<svg width="40" height="60" viewBox="0 0 40 60" fill="none" xmlns="http://www.w3.org/2000/svg">
    <rect width="40" height="40" rx="3" fill="#5D5C66" fill-opacity="0.15"/>
    <path d="M25.0738 19.5174H23.8313V17.0324C23.8313 16.3487 24.39 15.7899 25.0738 15.7899V19.5174Z" fill="url(#paint0_radial_42_1154)"/>
    <path d="M35.015 19.5175H23.8313V23.2462H35.015V19.5175Z" fill="#EE3124"/>
    <path d="M35.015 19.5175H16.375V23.2462H35.015V19.5175Z" fill="#EE3124"/>
    <path d="M35.015 19.5175H16.375V23.2462H35.015V19.5175Z" fill="url(#paint1_radial_42_1154)"/>
    <path d="M17.6175 18.2749C14.35 18.2749 11.13 19.0337 8.19875 20.4999L2.70625 23.2462H21.345V19.5174L20.1025 18.2749H17.6175Z" fill="url(#paint2_linear_42_1154)"/>
    <path fill-rule="evenodd" clip-rule="evenodd" d="M20.1075 23.2462V18.2787L21.345 19.5174V23.2462H20.1075Z" fill="url(#paint3_linear_42_1154)"/>
    <path d="M35.015 20.7612H7.6775L5.19125 22.0024H35.015V20.7612Z" fill="url(#paint4_linear_42_1154)"/>
    <path d="M35.015 20.7612H7.6775L5.19125 22.0024H35.015V20.7612Z" fill="url(#paint5_linear_42_1154)"/>
    <path d="M32.53 22.5962H37.5V14.5187H32.53V22.5962Z" fill="url(#paint6_radial_42_1154)"/>
    <path d="M32.53 17.0324H37.5V15.7899H32.53V17.0324Z" fill="url(#paint7_linear_42_1154)"/>
    <path d="M32.53 17.0324H37.5V15.7899H32.53V17.0324Z" fill="url(#paint8_linear_42_1154)"/>
    <path d="M32.53 14.5474H37.5V13.3049H32.53V14.5474Z" fill="url(#paint9_linear_42_1154)"/>
    <path d="M32.53 14.5474H37.5V13.3049H32.53V14.5474Z" fill="url(#paint10_linear_42_1154)"/>
    <path d="M32.53 14.5474H37.5V13.3049H32.53V14.5474Z" fill="url(#paint11_linear_42_1154)"/>
    <path d="M35.015 23.2462H22.5875V25.7312H35.0125L35.015 23.2462Z" fill="#A0393E"/>
    <path d="M35.015 23.2462H22.5875V25.7312H35.0125L35.015 23.2462Z" fill="url(#paint12_radial_42_1154)"/>
    <path d="M35.015 23.2462H22.5875V25.7312H35.0125L35.015 23.2462Z" fill="url(#paint13_linear_42_1154)"/>
    <path d="M24.76 23.2462H2.70625V25.7312H24.76V23.2462Z" fill="url(#paint14_linear_42_1154)"/>
    <path d="M24.76 23.2462H2.70625V25.7312H24.76V23.2462Z" fill="url(#paint15_linear_42_1154)"/>
    <path d="M24.76 23.2462H2.70625V25.7312H24.76V23.2462Z" fill="url(#paint16_linear_42_1154)"/>
    <path d="M24.76 23.2462H2.70625V25.7312H24.76V23.2462Z" fill="url(#paint17_radial_42_1154)"/>
    <path d="M24.76 23.2462H2.70625V25.7312H24.76V23.2462Z" fill="url(#paint18_linear_42_1154)"/>
    <path d="M32.53 19.5174H25.0738V15.7899C27.46 15.7899 29.7463 16.7337 31.4363 18.4237L32.53 19.5174Z" fill="url(#paint19_radial_42_1154)"/>
    <path d="M25.695 25.7312H22.5887V22.0024H25.695C25.9399 22.0023 26.1824 22.0504 26.4087 22.1441C26.635 22.2378 26.8406 22.3752 27.0137 22.5484C27.1868 22.7216 27.324 22.9273 27.4176 23.1536C27.5111 23.38 27.5591 23.6225 27.5587 23.8674C27.5587 24.1121 27.5105 24.3544 27.4169 24.5805C27.3232 24.8065 27.1859 25.0119 27.0128 25.1849C26.8397 25.3578 26.6342 25.495 26.4081 25.5885C26.182 25.6821 25.9397 25.7301 25.695 25.7299" fill="url(#paint20_radial_42_1154)"/>
    <path d="M25.695 25.7312H22.5887V22.0024H25.695C25.9399 22.0023 26.1824 22.0504 26.4087 22.1441C26.635 22.2378 26.8406 22.3752 27.0137 22.5484C27.1868 22.7216 27.324 22.9273 27.4176 23.1536C27.5111 23.38 27.5591 23.6225 27.5587 23.8674C27.5587 24.1121 27.5105 24.3544 27.4169 24.5805C27.3232 24.8065 27.1859 25.0119 27.0128 25.1849C26.8397 25.3578 26.6342 25.495 26.4081 25.5885C26.182 25.6821 25.9397 25.7301 25.695 25.7299" fill="url(#paint21_radial_42_1154)"/>
    <path d="M25.695 25.7312H22.5887V22.0024H25.695C25.9399 22.0023 26.1824 22.0504 26.4087 22.1441C26.635 22.2378 26.8406 22.3752 27.0137 22.5484C27.1868 22.7216 27.324 22.9273 27.4176 23.1536C27.5111 23.38 27.5591 23.6225 27.5587 23.8674C27.5587 24.1121 27.5105 24.3544 27.4169 24.5805C27.3232 24.8065 27.1859 25.0119 27.0128 25.1849C26.8397 25.3578 26.6342 25.495 26.4081 25.5885C26.182 25.6821 25.9397 25.7301 25.695 25.7299" fill="url(#paint22_linear_42_1154)"/>
    <path d="M22.5875 22.0037H21.345V25.7312H22.5887L22.5875 22.0037Z" fill="url(#paint23_linear_42_1154)"/>
    <path d="M22.5875 22.0037H21.345V25.7312H22.5887L22.5875 22.0037Z" fill="url(#paint24_linear_42_1154)"/>
    <g filter="url(#filter0_ii_42_1154)">
    <path d="M10.7838 26.9737C11.3611 26.9835 11.9347 26.8782 12.4709 26.664C13.0072 26.4498 13.4955 26.131 13.9072 25.7262C14.319 25.3213 14.646 24.8385 14.8693 24.306C15.0925 23.7734 15.2075 23.2017 15.2075 22.6243C15.2075 22.0468 15.0925 21.4752 14.8693 20.9426C14.646 20.41 14.319 19.9273 13.9072 19.5224C13.4955 19.1176 13.0072 18.7988 12.4709 18.5846C11.9347 18.3704 11.3611 18.2651 10.7838 18.2749C9.643 18.2943 8.5555 18.761 7.75562 19.5746C6.95573 20.3881 6.50749 21.4834 6.50749 22.6243C6.50749 23.7652 6.95573 24.8605 7.75562 25.674C8.5555 26.4876 9.643 26.9543 10.7838 26.9737Z" fill="url(#paint25_linear_42_1154)"/>
    <path d="M10.7838 26.9737C11.3611 26.9835 11.9347 26.8782 12.4709 26.664C13.0072 26.4498 13.4955 26.131 13.9072 25.7262C14.319 25.3213 14.646 24.8385 14.8693 24.306C15.0925 23.7734 15.2075 23.2017 15.2075 22.6243C15.2075 22.0468 15.0925 21.4752 14.8693 20.9426C14.646 20.41 14.319 19.9273 13.9072 19.5224C13.4955 19.1176 13.0072 18.7988 12.4709 18.5846C11.9347 18.3704 11.3611 18.2651 10.7838 18.2749C9.643 18.2943 8.5555 18.761 7.75562 19.5746C6.95573 20.3881 6.50749 21.4834 6.50749 22.6243C6.50749 23.7652 6.95573 24.8605 7.75562 25.674C8.5555 26.4876 9.643 26.9543 10.7838 26.9737Z" fill="url(#paint26_radial_42_1154)"/>
    <path d="M10.7838 26.9737C11.3611 26.9835 11.9347 26.8782 12.4709 26.664C13.0072 26.4498 13.4955 26.131 13.9072 25.7262C14.319 25.3213 14.646 24.8385 14.8693 24.306C15.0925 23.7734 15.2075 23.2017 15.2075 22.6243C15.2075 22.0468 15.0925 21.4752 14.8693 20.9426C14.646 20.41 14.319 19.9273 13.9072 19.5224C13.4955 19.1176 13.0072 18.7988 12.4709 18.5846C11.9347 18.3704 11.3611 18.2651 10.7838 18.2749C9.643 18.2943 8.5555 18.761 7.75562 19.5746C6.95573 20.3881 6.50749 21.4834 6.50749 22.6243C6.50749 23.7652 6.95573 24.8605 7.75562 25.674C8.5555 26.4876 9.643 26.9543 10.7838 26.9737Z" fill="url(#paint27_radial_42_1154)"/>
    </g>
    <g filter="url(#filter1_ii_42_1154)">
    <path d="M10.7837 24.2312C10.9985 24.2371 11.2123 24.2 11.4125 24.122C11.6127 24.0439 11.7952 23.9265 11.9493 23.7767C12.1033 23.6269 12.2258 23.4477 12.3094 23.2498C12.393 23.0518 12.4361 22.8392 12.4361 22.6243C12.4361 22.4094 12.393 22.1967 12.3094 21.9988C12.2258 21.8008 12.1033 21.6217 11.9493 21.4719C11.7952 21.3221 11.6127 21.2047 11.4125 21.1266C11.2123 21.0485 10.9985 21.0114 10.7837 21.0174C10.3653 21.0291 9.96798 21.2035 9.67616 21.5036C9.38434 21.8036 9.22107 22.2057 9.22107 22.6243C9.22107 23.0429 9.38434 23.4449 9.67616 23.745C9.96798 24.0451 10.3653 24.2195 10.7837 24.2312Z" fill="#D9D2E8"/>
    </g>
    <path fill-rule="evenodd" clip-rule="evenodd" d="M29.1 16.7399L26.3175 19.5174H32.53L31.4363 18.4237C30.7525 17.7406 29.9633 17.172 29.0988 16.7399" fill="url(#paint28_radial_42_1154)"/>
    <path fill-rule="evenodd" clip-rule="evenodd" d="M29.1 16.7399L26.3175 19.5174H32.53L31.4363 18.4237C30.7525 17.7406 29.9633 17.172 29.0988 16.7399" fill="url(#paint29_radial_42_1154)"/>
    <g filter="url(#filter2_ii_42_1154)">
    <path d="M33.15 26.9737C33.7274 26.9835 34.3009 26.8782 34.8372 26.664C35.3735 26.4498 35.8617 26.131 36.2735 25.7262C36.6853 25.3213 37.0123 24.8385 37.2355 24.306C37.4588 23.7734 37.5737 23.2017 37.5737 22.6243C37.5737 22.0468 37.4588 21.4752 37.2355 20.9426C37.0123 20.41 36.6853 19.9273 36.2735 19.5224C35.8617 19.1176 35.3735 18.7988 34.8372 18.5846C34.3009 18.3704 33.7274 18.2651 33.15 18.2749C32.0093 18.2943 30.9218 18.761 30.1219 19.5746C29.322 20.3881 28.8737 21.4834 28.8737 22.6243C28.8737 23.7652 29.322 24.8605 30.1219 25.674C30.9218 26.4876 32.0093 26.9543 33.15 26.9737Z" fill="url(#paint30_linear_42_1154)"/>
    <path d="M33.15 26.9737C33.7274 26.9835 34.3009 26.8782 34.8372 26.664C35.3735 26.4498 35.8617 26.131 36.2735 25.7262C36.6853 25.3213 37.0123 24.8385 37.2355 24.306C37.4588 23.7734 37.5737 23.2017 37.5737 22.6243C37.5737 22.0468 37.4588 21.4752 37.2355 20.9426C37.0123 20.41 36.6853 19.9273 36.2735 19.5224C35.8617 19.1176 35.3735 18.7988 34.8372 18.5846C34.3009 18.3704 33.7274 18.2651 33.15 18.2749C32.0093 18.2943 30.9218 18.761 30.1219 19.5746C29.322 20.3881 28.8737 21.4834 28.8737 22.6243C28.8737 23.7652 29.322 24.8605 30.1219 25.674C30.9218 26.4876 32.0093 26.9543 33.15 26.9737Z" fill="url(#paint31_radial_42_1154)"/>
    <path d="M33.15 26.9737C33.7274 26.9835 34.3009 26.8782 34.8372 26.664C35.3735 26.4498 35.8617 26.131 36.2735 25.7262C36.6853 25.3213 37.0123 24.8385 37.2355 24.306C37.4588 23.7734 37.5737 23.2017 37.5737 22.6243C37.5737 22.0468 37.4588 21.4752 37.2355 20.9426C37.0123 20.41 36.6853 19.9273 36.2735 19.5224C35.8617 19.1176 35.3735 18.7988 34.8372 18.5846C34.3009 18.3704 33.7274 18.2651 33.15 18.2749C32.0093 18.2943 30.9218 18.761 30.1219 19.5746C29.322 20.3881 28.8737 21.4834 28.8737 22.6243C28.8737 23.7652 29.322 24.8605 30.1219 25.674C30.9218 26.4876 32.0093 26.9543 33.15 26.9737Z" fill="url(#paint32_radial_42_1154)"/>
    </g>
    <g filter="url(#filter3_ii_42_1154)">
    <path d="M33.15 24.2312C33.3648 24.2371 33.5786 24.2 33.7788 24.122C33.979 24.0439 34.1615 23.9265 34.3155 23.7767C34.4696 23.6269 34.592 23.4477 34.6756 23.2498C34.7592 23.0518 34.8023 22.8392 34.8023 22.6243C34.8023 22.4094 34.7592 22.1967 34.6756 21.9988C34.592 21.8008 34.4696 21.6217 34.3155 21.4719C34.1615 21.3221 33.979 21.2047 33.7788 21.1266C33.5786 21.0485 33.3648 21.0114 33.15 21.0174C32.7316 21.0291 32.3342 21.2035 32.0424 21.5036C31.7506 21.8036 31.5873 22.2057 31.5873 22.6243C31.5873 23.0429 31.7506 23.4449 32.0424 23.745C32.3342 24.0451 32.7316 24.2195 33.15 24.2312Z" fill="#D2CBE1"/>
    </g>
    <g filter="url(#filter4_f_42_1154)">
    <path d="M11.1538 25.3537C12.765 25.3537 14.0713 24.0475 14.0713 22.4362C14.0713 20.8249 12.765 19.5187 11.1538 19.5187C9.54246 19.5187 8.23625 20.8249 8.23625 22.4362C8.23625 24.0475 9.54246 25.3537 11.1538 25.3537Z" stroke="url(#paint33_linear_42_1154)" stroke-width="0.5"/>
    </g>
    <g filter="url(#filter5_f_42_1154)">
    <path d="M33.4975 25.3537C35.1088 25.3537 36.415 24.0475 36.415 22.4362C36.415 20.8249 35.1088 19.5187 33.4975 19.5187C31.8862 19.5187 30.58 20.8249 30.58 22.4362C30.58 24.0475 31.8862 25.3537 33.4975 25.3537Z" stroke="url(#paint34_linear_42_1154)" stroke-width="0.5"/>
    </g>
    <path d="M13.82 55.604C13.292 55.912 12.588 56.165 11.653 56.165C9.519 56.165 7.594 54.515 7.594 51.897C7.594 49.29 9.519 47.651 11.653 47.651C12.588 47.651 13.303 47.904 13.82 48.212V49.29C13.171 48.883 12.566 48.63 11.697 48.63C10.168 48.63 8.639 49.84 8.639 51.908C8.639 53.954 10.168 55.186 11.697 55.186C12.566 55.186 13.171 54.922 13.82 54.515V55.604ZM17.4638 56.132C16.0668 56.132 14.7578 54.911 14.7578 53.03C14.7578 51.127 16.0668 49.917 17.4638 49.917C18.3218 49.917 19.1358 50.346 19.5868 51.149L19.7078 50.049H20.5328V56H19.7078L19.5868 54.911C19.1358 55.714 18.3218 56.132 17.4638 56.132ZM17.6728 55.186C18.7178 55.186 19.5538 54.306 19.5538 53.019C19.5538 51.743 18.7178 50.863 17.6728 50.863C16.6058 50.863 15.7808 51.743 15.7808 53.03C15.7808 54.306 16.6058 55.186 17.6728 55.186ZM22.383 56V50.049H23.186L23.296 50.995H23.307C23.714 50.225 24.484 49.983 25.012 49.983C25.166 49.983 25.287 49.994 25.408 50.016V50.984C25.276 50.962 25.133 50.94 24.99 50.94C24.198 50.94 23.395 51.446 23.395 52.612V56H22.383ZM28.335 49.917C29.017 49.917 29.71 50.115 30.128 50.434V51.435C29.699 51.072 29.05 50.819 28.346 50.819C27.598 50.819 27.18 51.138 27.18 51.622C27.18 52.15 27.697 52.348 28.5 52.579C29.413 52.843 30.447 53.14 30.447 54.339C30.447 55.428 29.6 56.132 28.225 56.132C27.455 56.132 26.718 55.912 26.168 55.472V54.383C26.63 54.856 27.334 55.23 28.192 55.23C28.995 55.23 29.457 54.878 29.457 54.35C29.457 53.778 28.896 53.591 28.038 53.327C27.059 53.03 26.19 52.711 26.19 51.666C26.19 50.665 27.015 49.917 28.335 49.917Z" fill="black"/>
    <defs>
    <filter id="filter0_ii_42_1154" x="6.50749" y="18.2743" width="8.7" height="8.77501" filterUnits="userSpaceOnUse" color-interpolation-filters="sRGB">
    <feFlood flood-opacity="0" result="BackgroundImageFix"/>
    <feBlend mode="normal" in="SourceGraphic" in2="BackgroundImageFix" result="shape"/>
    <feColorMatrix in="SourceAlpha" type="matrix" values="0 0 0 0 0 0 0 0 0 0 0 0 0 0 0 0 0 0 127 0" result="hardAlpha"/>
    <feOffset/>
    <feGaussianBlur stdDeviation="0.25"/>
    <feComposite in2="hardAlpha" operator="arithmetic" k2="-1" k3="1"/>
    <feColorMatrix type="matrix" values="0 0 0 0 0.145098 0 0 0 0 0.0823529 0 0 0 0 0.215686 0 0 0 1 0"/>
    <feBlend mode="normal" in2="shape" result="effect1_innerShadow_42_1154"/>
    <feColorMatrix in="SourceAlpha" type="matrix" values="0 0 0 0 0 0 0 0 0 0 0 0 0 0 0 0 0 0 127 0" result="hardAlpha"/>
    <feOffset dy="0.075"/>
    <feGaussianBlur stdDeviation="0.0625"/>
    <feComposite in2="hardAlpha" operator="arithmetic" k2="-1" k3="1"/>
    <feColorMatrix type="matrix" values="0 0 0 0 0.207843 0 0 0 0 0.0313726 0 0 0 0 0.235294 0 0 0 1 0"/>
    <feBlend mode="normal" in2="effect1_innerShadow_42_1154" result="effect2_innerShadow_42_1154"/>
    </filter>
    <filter id="filter1_ii_42_1154" x="9.19607" y="20.9918" width="3.265" height="3.26503" filterUnits="userSpaceOnUse" color-interpolation-filters="sRGB">
    <feFlood flood-opacity="0" result="BackgroundImageFix"/>
    <feBlend mode="normal" in="SourceGraphic" in2="BackgroundImageFix" result="shape"/>
    <feColorMatrix in="SourceAlpha" type="matrix" values="0 0 0 0 0 0 0 0 0 0 0 0 0 0 0 0 0 0 127 0" result="hardAlpha"/>
    <feOffset dx="0.025" dy="-0.025"/>
    <feGaussianBlur stdDeviation="0.025"/>
    <feComposite in2="hardAlpha" operator="arithmetic" k2="-1" k3="1"/>
    <feColorMatrix type="matrix" values="0 0 0 0 0.478431 0 0 0 0 0.364706 0 0 0 0 0.584314 0 0 0 1 0"/>
    <feBlend mode="normal" in2="shape" result="effect1_innerShadow_42_1154"/>
    <feColorMatrix in="SourceAlpha" type="matrix" values="0 0 0 0 0 0 0 0 0 0 0 0 0 0 0 0 0 0 127 0" result="hardAlpha"/>
    <feOffset dx="-0.025" dy="0.025"/>
    <feGaussianBlur stdDeviation="0.025"/>
    <feComposite in2="hardAlpha" operator="arithmetic" k2="-1" k3="1"/>
    <feColorMatrix type="matrix" values="0 0 0 0 0.807843 0 0 0 0 0.764706 0 0 0 0 0.858824 0 0 0 1 0"/>
    <feBlend mode="normal" in2="effect1_innerShadow_42_1154" result="effect2_innerShadow_42_1154"/>
    </filter>
    <filter id="filter2_ii_42_1154" x="28.8737" y="18.2743" width="8.7" height="8.77501" filterUnits="userSpaceOnUse" color-interpolation-filters="sRGB">
    <feFlood flood-opacity="0" result="BackgroundImageFix"/>
    <feBlend mode="normal" in="SourceGraphic" in2="BackgroundImageFix" result="shape"/>
    <feColorMatrix in="SourceAlpha" type="matrix" values="0 0 0 0 0 0 0 0 0 0 0 0 0 0 0 0 0 0 127 0" result="hardAlpha"/>
    <feOffset/>
    <feGaussianBlur stdDeviation="0.25"/>
    <feComposite in2="hardAlpha" operator="arithmetic" k2="-1" k3="1"/>
    <feColorMatrix type="matrix" values="0 0 0 0 0.145098 0 0 0 0 0.0823529 0 0 0 0 0.215686 0 0 0 1 0"/>
    <feBlend mode="normal" in2="shape" result="effect1_innerShadow_42_1154"/>
    <feColorMatrix in="SourceAlpha" type="matrix" values="0 0 0 0 0 0 0 0 0 0 0 0 0 0 0 0 0 0 127 0" result="hardAlpha"/>
    <feOffset dy="0.075"/>
    <feGaussianBlur stdDeviation="0.0625"/>
    <feComposite in2="hardAlpha" operator="arithmetic" k2="-1" k3="1"/>
    <feColorMatrix type="matrix" values="0 0 0 0 0.207843 0 0 0 0 0.0313726 0 0 0 0 0.235294 0 0 0 1 0"/>
    <feBlend mode="normal" in2="effect1_innerShadow_42_1154" result="effect2_innerShadow_42_1154"/>
    </filter>
    <filter id="filter3_ii_42_1154" x="31.5623" y="20.9918" width="3.265" height="3.26503" filterUnits="userSpaceOnUse" color-interpolation-filters="sRGB">
    <feFlood flood-opacity="0" result="BackgroundImageFix"/>
    <feBlend mode="normal" in="SourceGraphic" in2="BackgroundImageFix" result="shape"/>
    <feColorMatrix in="SourceAlpha" type="matrix" values="0 0 0 0 0 0 0 0 0 0 0 0 0 0 0 0 0 0 127 0" result="hardAlpha"/>
    <feOffset dx="0.025" dy="-0.025"/>
    <feGaussianBlur stdDeviation="0.025"/>
    <feComposite in2="hardAlpha" operator="arithmetic" k2="-1" k3="1"/>
    <feColorMatrix type="matrix" values="0 0 0 0 0.478431 0 0 0 0 0.364706 0 0 0 0 0.584314 0 0 0 1 0"/>
    <feBlend mode="normal" in2="shape" result="effect1_innerShadow_42_1154"/>
    <feColorMatrix in="SourceAlpha" type="matrix" values="0 0 0 0 0 0 0 0 0 0 0 0 0 0 0 0 0 0 127 0" result="hardAlpha"/>
    <feOffset dx="-0.025" dy="0.025"/>
    <feGaussianBlur stdDeviation="0.025"/>
    <feComposite in2="hardAlpha" operator="arithmetic" k2="-1" k3="1"/>
    <feColorMatrix type="matrix" values="0 0 0 0 0.807843 0 0 0 0 0.764706 0 0 0 0 0.858824 0 0 0 1 0"/>
    <feBlend mode="normal" in2="effect1_innerShadow_42_1154" result="effect2_innerShadow_42_1154"/>
    </filter>
    <filter id="filter4_f_42_1154" x="7.61125" y="18.8937" width="7.08501" height="7.08502" filterUnits="userSpaceOnUse" color-interpolation-filters="sRGB">
    <feFlood flood-opacity="0" result="BackgroundImageFix"/>
    <feBlend mode="normal" in="SourceGraphic" in2="BackgroundImageFix" result="shape"/>
    <feGaussianBlur stdDeviation="0.1875" result="effect1_foregroundBlur_42_1154"/>
    </filter>
    <filter id="filter5_f_42_1154" x="29.955" y="18.8937" width="7.085" height="7.08502" filterUnits="userSpaceOnUse" color-interpolation-filters="sRGB">
    <feFlood flood-opacity="0" result="BackgroundImageFix"/>
    <feBlend mode="normal" in="SourceGraphic" in2="BackgroundImageFix" result="shape"/>
    <feGaussianBlur stdDeviation="0.1875" result="effect1_foregroundBlur_42_1154"/>
    </filter>
    <radialGradient id="paint0_radial_42_1154" cx="0" cy="0" r="1" gradientUnits="userSpaceOnUse" gradientTransform="translate(24.9574 16.6834) rotate(90) scale(3.33985 2.80641)">
    <stop stop-color="#727273"/>
    <stop offset="1" stop-color="#4E2A2A"/>
    </radialGradient>
    <radialGradient id="paint1_radial_42_1154" cx="0" cy="0" r="1" gradientUnits="userSpaceOnUse" gradientTransform="translate(29.2125 23.2462) rotate(180) scale(1.32812 2.7263)">
    <stop offset="0.155" stop-color="#AA2E30"/>
    <stop offset="1" stop-color="#AA2E30" stop-opacity="0"/>
    </radialGradient>
    <linearGradient id="paint2_linear_42_1154" x1="5.0675" y1="23.2462" x2="21.345" y2="23.2462" gradientUnits="userSpaceOnUse">
    <stop stop-color="#C03131"/>
    <stop offset="1" stop-color="#FC443F"/>
    </linearGradient>
    <linearGradient id="paint3_linear_42_1154" x1="20.7262" y1="18.8924" x2="20.7262" y2="23.2462" gradientUnits="userSpaceOnUse">
    <stop stop-color="#FF5752"/>
    <stop offset="1" stop-color="#FF5752" stop-opacity="0"/>
    </linearGradient>
    <linearGradient id="paint4_linear_42_1154" x1="10.405" y1="21.3874" x2="23.4" y2="21.3874" gradientUnits="userSpaceOnUse">
    <stop stop-color="#C5C5C7"/>
    <stop offset="1" stop-color="#F0EBED"/>
    </linearGradient>
    <linearGradient id="paint5_linear_42_1154" x1="29.565" y1="21.6824" x2="27.5338" y2="21.6824" gradientUnits="userSpaceOnUse">
    <stop stop-color="#B9B3BA"/>
    <stop offset="1" stop-color="#B9B3BA" stop-opacity="0"/>
    </linearGradient>
    <radialGradient id="paint6_radial_42_1154" cx="0" cy="0" r="1" gradientUnits="userSpaceOnUse" gradientTransform="translate(35.015 18.5574) rotate(-88.2109) scale(5.98634 14.9652)">
    <stop stop-color="#ED4C48"/>
    <stop offset="1" stop-color="#B5312D"/>
    </radialGradient>
    <linearGradient id="paint7_linear_42_1154" x1="32.5262" y1="16.4174" x2="37.4962" y2="16.4174" gradientUnits="userSpaceOnUse">
    <stop stop-color="#E4AA2D"/>
    <stop offset="1" stop-color="#F38320"/>
    </linearGradient>
    <linearGradient id="paint8_linear_42_1154" x1="32.1312" y1="16.6412" x2="33.4687" y2="16.6412" gradientUnits="userSpaceOnUse">
    <stop stop-color="#B58B2C"/>
    <stop offset="1" stop-color="#B58B2C" stop-opacity="0"/>
    </linearGradient>
    <linearGradient id="paint9_linear_42_1154" x1="32.53" y1="13.9262" x2="37.5" y2="13.9262" gradientUnits="userSpaceOnUse">
    <stop stop-color="#B9AAB5"/>
    <stop offset="0.693" stop-color="#D8D4E0"/>
    <stop offset="1" stop-color="#C7C5CC"/>
    </linearGradient>
    <linearGradient id="paint10_linear_42_1154" x1="32.3975" y1="14.5474" x2="33.5587" y2="14.5474" gradientUnits="userSpaceOnUse">
    <stop stop-color="#94858A"/>
    <stop offset="1" stop-color="#94858A" stop-opacity="0"/>
    </linearGradient>
    <linearGradient id="paint11_linear_42_1154" x1="37.67" y1="14.5474" x2="37.3187" y2="14.5474" gradientUnits="userSpaceOnUse">
    <stop stop-color="#94858A"/>
    <stop offset="1" stop-color="#94858A" stop-opacity="0"/>
    </linearGradient>
    <radialGradient id="paint12_radial_42_1154" cx="0" cy="0" r="1" gradientUnits="userSpaceOnUse" gradientTransform="translate(30.4625 24.4887) rotate(180) scale(2.53906 3.47551)">
    <stop offset="0.429" stop-color="#620B25"/>
    <stop offset="1" stop-color="#620B25" stop-opacity="0"/>
    </radialGradient>
    <linearGradient id="paint13_linear_42_1154" x1="29.9087" y1="23.2462" x2="29.9087" y2="23.3612" gradientUnits="userSpaceOnUse">
    <stop stop-color="#B11B27"/>
    <stop offset="1" stop-color="#B11B27" stop-opacity="0"/>
    </linearGradient>
    <linearGradient id="paint14_linear_42_1154" x1="4.25125" y1="25.7312" x2="25.535" y2="25.7312" gradientUnits="userSpaceOnUse">
    <stop stop-color="#AB3138"/>
    <stop offset="1" stop-color="#C8494E"/>
    </linearGradient>
    <linearGradient id="paint15_linear_42_1154" x1="21.01" y1="26.2524" x2="18.9175" y2="25.5337" gradientUnits="userSpaceOnUse">
    <stop stop-color="#722026"/>
    <stop offset="1" stop-color="#722026" stop-opacity="0"/>
    </linearGradient>
    <linearGradient id="paint16_linear_42_1154" x1="18.9788" y1="26.3299" x2="18.9788" y2="24.7287" gradientUnits="userSpaceOnUse">
    <stop stop-color="#722026"/>
    <stop offset="1" stop-color="#722026" stop-opacity="0"/>
    </linearGradient>
    <radialGradient id="paint17_radial_42_1154" cx="0" cy="0" r="1" gradientUnits="userSpaceOnUse" gradientTransform="translate(9.0175 24.4887) rotate(170.73) scale(3.91836 2.77699)">
    <stop stop-color="#722026"/>
    <stop offset="1" stop-color="#722026" stop-opacity="0"/>
    </radialGradient>
    <linearGradient id="paint18_linear_42_1154" x1="15.6975" y1="23.2462" x2="15.6975" y2="23.3612" gradientUnits="userSpaceOnUse">
    <stop stop-color="#BF212E"/>
    <stop offset="1" stop-color="#BF212E" stop-opacity="0"/>
    </linearGradient>
    <radialGradient id="paint19_radial_42_1154" cx="0" cy="0" r="1" gradientUnits="userSpaceOnUse" gradientTransform="translate(25.8148 19.5179) rotate(-68.122) scale(4.40283 9.40546)">
    <stop stop-color="#FF5A56"/>
    <stop offset="1" stop-color="#FF4940"/>
    </radialGradient>
    <radialGradient id="paint20_radial_42_1154" cx="0" cy="0" r="1" gradientUnits="userSpaceOnUse" gradientTransform="translate(23.0412 22.3074) scale(4.51738 3.04687)">
    <stop stop-color="#FFE042"/>
    <stop offset="1" stop-color="#DC8B38"/>
    </radialGradient>
    <radialGradient id="paint21_radial_42_1154" cx="0" cy="0" r="1" gradientUnits="userSpaceOnUse" gradientTransform="translate(22.5875 23.8674) scale(4.67194 3.89546)">
    <stop offset="0.749" stop-color="#E57A14" stop-opacity="0"/>
    <stop offset="1" stop-color="#E57A14"/>
    </radialGradient>
    <linearGradient id="paint22_linear_42_1154" x1="23.8225" y1="26.9162" x2="23.8225" y2="24.6899" gradientUnits="userSpaceOnUse">
    <stop stop-color="#97594D"/>
    <stop offset="0.93" stop-color="#97594D" stop-opacity="0"/>
    </linearGradient>
    <linearGradient id="paint23_linear_42_1154" x1="21.9675" y1="22.0024" x2="21.9675" y2="23.8674" gradientUnits="userSpaceOnUse">
    <stop stop-color="#626162"/>
    <stop offset="1" stop-color="#646367"/>
    </linearGradient>
    <linearGradient id="paint24_linear_42_1154" x1="22.5887" y1="25.7312" x2="22.5887" y2="23.0299" gradientUnits="userSpaceOnUse">
    <stop stop-color="#2B1B41"/>
    <stop offset="1" stop-color="#2B1B41" stop-opacity="0"/>
    </linearGradient>
    <linearGradient id="paint25_linear_42_1154" x1="8.77751" y1="21.5312" x2="15.31" y2="21.5312" gradientUnits="userSpaceOnUse">
    <stop offset="0.239" stop-color="#34214F"/>
    <stop offset="1" stop-color="#241337"/>
    </linearGradient>
    <radialGradient id="paint26_radial_42_1154" cx="0" cy="0" r="1" gradientUnits="userSpaceOnUse" gradientTransform="translate(10.7838 22.2362) rotate(-65.5366) scale(2.37306 2.47859)">
    <stop offset="0.523" stop-color="#2D114D"/>
    <stop offset="1" stop-color="#2B1249" stop-opacity="0"/>
    </radialGradient>
    <radialGradient id="paint27_radial_42_1154" cx="0" cy="0" r="1" gradientUnits="userSpaceOnUse" gradientTransform="translate(11.97 22.9249) rotate(33.4863) scale(0.962959 1.08205)">
    <stop stop-color="#392A49"/>
    <stop offset="1" stop-color="#392A49" stop-opacity="0"/>
    </radialGradient>
    <radialGradient id="paint28_radial_42_1154" cx="0" cy="0" r="1" gradientUnits="userSpaceOnUse" gradientTransform="translate(27.5925 17.7174) rotate(28.0725) scale(2.65625 1.7245)">
    <stop stop-color="#F8F2F5"/>
    <stop offset="1" stop-color="#F2DEE2"/>
    </radialGradient>
    <radialGradient id="paint29_radial_42_1154" cx="0" cy="0" r="1" gradientUnits="userSpaceOnUse" gradientTransform="translate(28.9986 20.1199) rotate(-52.409) scale(3.10571 5.48625)">
    <stop offset="0.688" stop-color="#C8BBBA" stop-opacity="0"/>
    <stop offset="1" stop-color="#C8BBBA"/>
    </radialGradient>
    <linearGradient id="paint30_linear_42_1154" x1="31.145" y1="21.5312" x2="37.6775" y2="21.5312" gradientUnits="userSpaceOnUse">
    <stop offset="0.239" stop-color="#34214F"/>
    <stop offset="1" stop-color="#241337"/>
    </linearGradient>
    <radialGradient id="paint31_radial_42_1154" cx="0" cy="0" r="1" gradientUnits="userSpaceOnUse" gradientTransform="translate(33.15 22.2362) rotate(-65.5366) scale(2.37306 2.47859)">
    <stop offset="0.523" stop-color="#2D114D"/>
    <stop offset="1" stop-color="#2B1249" stop-opacity="0"/>
    </radialGradient>
    <radialGradient id="paint32_radial_42_1154" cx="0" cy="0" r="1" gradientUnits="userSpaceOnUse" gradientTransform="translate(34.3375 22.9249) rotate(33.4863) scale(0.962959 1.08205)">
    <stop stop-color="#392A49"/>
    <stop offset="1" stop-color="#392A49" stop-opacity="0"/>
    </radialGradient>
    <linearGradient id="paint33_linear_42_1154" x1="13.3325" y1="19.5174" x2="8.93125" y2="24.7124" gradientUnits="userSpaceOnUse">
    <stop offset="0.083" stop-color="#615B6B"/>
    <stop offset="0.391" stop-color="#615B6B" stop-opacity="0"/>
    <stop offset="0.692" stop-color="#615B6B" stop-opacity="0"/>
    <stop offset="0.935" stop-color="#615B6B"/>
    </linearGradient>
    <linearGradient id="paint34_linear_42_1154" x1="35.6763" y1="19.5174" x2="31.275" y2="24.7124" gradientUnits="userSpaceOnUse">
    <stop offset="0.083" stop-color="#615B6B"/>
    <stop offset="0.391" stop-color="#615B6B" stop-opacity="0"/>
    <stop offset="0.692" stop-color="#615B6B" stop-opacity="0"/>
    <stop offset="0.935" stop-color="#615B6B"/>
    </linearGradient>
    </defs>
    </svg>
    