<svg width="40" height="60" viewBox="0 0 40 60" fill="none" xmlns="http://www.w3.org/2000/svg">
    <rect width="40" height="40" rx="3" fill="#5D5C66" fill-opacity="0.15"/>
    <path d="M8.60375 9.49798C9.37 9.03673 10.1112 8.77798 10.3037 8.74548L11.28 9.66423L10.1375 22.3005C10.1375 22.138 9.97125 21.793 9.3075 21.7142C8.4775 21.6167 5.9575 21.2167 4.24875 18.7755C3.10375 17.218 2.6925 15.3842 2.63625 14.043C2.6175 13.5492 2.89375 13.1017 3.31125 12.8367C5.1425 11.6755 7.9275 9.90548 8.60375 9.49798Z" fill="url(#paint0_radial_42_1106)"/>
    <path d="M8.60375 9.49798C9.37 9.03673 10.1112 8.77798 10.3037 8.74548L11.28 9.66423L10.1375 22.3005C10.1375 22.138 9.97125 21.793 9.3075 21.7142C8.4775 21.6167 5.9575 21.2167 4.24875 18.7755C3.10375 17.218 2.6925 15.3842 2.63625 14.043C2.6175 13.5492 2.89375 13.1017 3.31125 12.8367C5.1425 11.6755 7.9275 9.90548 8.60375 9.49798Z" fill="url(#paint1_linear_42_1106)"/>
    <path d="M8.60375 9.49798C9.37 9.03673 10.1112 8.77798 10.3037 8.74548L11.28 9.66423L10.1375 22.3005C10.1375 22.138 9.97125 21.793 9.3075 21.7142C8.4775 21.6167 5.9575 21.2167 4.24875 18.7755C3.10375 17.218 2.6925 15.3842 2.63625 14.043C2.6175 13.5492 2.89375 13.1017 3.31125 12.8367C5.1425 11.6755 7.9275 9.90548 8.60375 9.49798Z" fill="url(#paint2_linear_42_1106)"/>
    <g filter="url(#filter0_i_42_1106)">
    <path d="M31.3963 9.48297C30.63 9.02172 29.8888 8.76422 29.6963 8.73047L28.72 9.64922L29.8625 22.2867C29.8625 22.123 30.0288 21.778 30.6925 21.6992C31.5225 21.6017 34.0425 21.2017 35.7513 18.7605C36.8963 17.203 37.3075 15.3692 37.3638 14.0292C37.3838 13.5342 37.1063 13.0867 36.6888 12.8217C34.8575 11.6617 32.0725 9.89047 31.3963 9.48297Z" fill="url(#paint3_linear_42_1106)"/>
    </g>
    <path d="M31.3963 9.48297C30.63 9.02172 29.8888 8.76422 29.6963 8.73047L28.72 9.64922L29.8625 22.2867C29.8625 22.123 30.0288 21.778 30.6925 21.6992C31.5225 21.6017 34.0425 21.2017 35.7513 18.7605C36.8963 17.203 37.3075 15.3692 37.3638 14.0292C37.3838 13.5342 37.1063 13.0867 36.6888 12.8217C34.8575 11.6617 32.0725 9.89047 31.3963 9.48297Z" fill="url(#paint4_radial_42_1106)"/>
    <g filter="url(#filter1_i_42_1106)">
    <path d="M10.1275 8.81295L10.18 32.2717C10.1825 32.918 10.5937 33.4967 11.2175 33.6705C16.885 35.1117 23.2525 35.0142 28.88 33.6642C29.505 33.4955 29.9175 32.918 29.9175 32.2717L29.9712 8.81295C29.7175 8.6667 28.315 8.4717 27.5 8.6667C25.5662 9.19795 22.1787 9.7992 20.05 9.7992C17.9212 9.7992 14.5325 9.19795 12.6 8.6667C11.7837 8.4717 10.3812 8.6667 10.1275 8.81295Z" fill="url(#paint5_linear_42_1106)"/>
    </g>
    <path d="M10.1275 8.81295L10.18 32.2717C10.1825 32.918 10.5937 33.4967 11.2175 33.6705C16.885 35.1117 23.2525 35.0142 28.88 33.6642C29.505 33.4955 29.9175 32.918 29.9175 32.2717L29.9712 8.81295C29.7175 8.6667 28.315 8.4717 27.5 8.6667C25.5662 9.19795 22.1787 9.7992 20.05 9.7992C17.9212 9.7992 14.5325 9.19795 12.6 8.6667C11.7837 8.4717 10.3812 8.6667 10.1275 8.81295Z" fill="url(#paint6_radial_42_1106)"/>
    <path d="M10.1275 8.81295L10.18 32.2717C10.1825 32.918 10.5937 33.4967 11.2175 33.6705C16.885 35.1117 23.2525 35.0142 28.88 33.6642C29.505 33.4955 29.9175 32.918 29.9175 32.2717L29.9712 8.81295C29.7175 8.6667 28.315 8.4717 27.5 8.6667C25.5662 9.19795 22.1787 9.7992 20.05 9.7992C17.9212 9.7992 14.5325 9.19795 12.6 8.6667C11.7837 8.4717 10.3812 8.6667 10.1275 8.81295Z" fill="url(#paint7_radial_42_1106)"/>
    <path d="M12.5325 8.65173L20.03 16.6067L27.1337 8.76423C25.1625 9.26798 22.05 9.79923 20.05 9.79923C17.9212 9.79923 14.5325 9.19798 12.6 8.66673L12.5325 8.65173Z" fill="url(#paint8_radial_42_1106)"/>
    <path d="M12.5325 8.65173L20.03 16.6067L27.1337 8.76423C25.1625 9.26798 22.05 9.79923 20.05 9.79923C17.9212 9.79923 14.5325 9.19798 12.6 8.66673L12.5325 8.65173Z" fill="url(#paint9_radial_42_1106)"/>
    <g filter="url(#filter2_ii_42_1106)">
    <path d="M18.07 15.4142C18.7075 16.1367 19.29 16.798 19.7725 17.3355C19.8073 17.3744 19.85 17.4056 19.8977 17.427C19.9454 17.4484 19.9971 17.4594 20.0494 17.4594C20.1016 17.4594 20.1533 17.4484 20.201 17.427C20.2488 17.4056 20.2914 17.3744 20.3262 17.3355C20.81 16.798 21.3925 16.1355 22.0287 15.4142C24.1187 13.0405 26.7912 10.073 28.4287 8.58421C27.9337 8.58421 27.4625 8.44296 27.1475 8.37296C27.0482 8.3486 26.9446 8.34755 26.8449 8.36989C26.7451 8.39223 26.6519 8.43734 26.5725 8.50171C25.2425 9.63921 23.655 11.4517 22.28 13.023C21.455 13.9667 20.705 14.823 20.1362 15.3892C20.1129 15.4117 20.0818 15.4243 20.0494 15.4243C20.017 15.4243 19.9858 15.4117 19.9625 15.3892C19.3937 14.8217 18.645 13.9667 17.8187 13.023C16.4437 11.453 14.8562 9.63796 13.525 8.50171C13.4457 8.43753 13.3527 8.39252 13.2532 8.37019C13.1537 8.34786 13.0503 8.34881 12.9512 8.37296C12.6362 8.44296 12.165 8.58546 11.67 8.58546C13.3087 10.073 15.98 13.0405 18.07 15.4142Z" fill="url(#paint10_linear_42_1106)"/>
    </g>
    <g filter="url(#filter3_f_42_1106)">
    <path d="M29.19 9.38044C29.3725 9.37419 29.8937 9.45919 30.5187 9.84919C31.1437 10.2404 34.6462 12.4867 36.3187 13.5604" stroke="#FF8EE2" stroke-width="0.25" stroke-linecap="round"/>
    </g>
    <g filter="url(#filter4_f_42_1106)">
    <path d="M15.2837 9.75171C16.755 10.188 20.7212 10.798 24.815 9.75171" stroke="url(#paint11_radial_42_1106)" stroke-width="0.125" stroke-linecap="round"/>
    </g>
    <path d="M9.82 55.604C9.292 55.912 8.588 56.165 7.653 56.165C5.519 56.165 3.594 54.515 3.594 51.897C3.594 49.29 5.519 47.651 7.653 47.651C8.588 47.651 9.303 47.904 9.82 48.212V49.29C9.171 48.883 8.566 48.63 7.697 48.63C6.168 48.63 4.639 49.84 4.639 51.908C4.639 53.954 6.168 55.186 7.697 55.186C8.566 55.186 9.171 54.922 9.82 54.515V55.604ZM11.2829 56V47.2H12.2949V56H11.2829ZM16.7463 56.132C15.0523 56.132 13.7763 54.823 13.7763 53.03C13.7763 51.237 15.0523 49.917 16.7463 49.917C18.4293 49.917 19.6943 51.237 19.6943 53.03C19.6943 54.812 18.4293 56.132 16.7463 56.132ZM16.7463 55.186C17.7363 55.186 18.6823 54.394 18.6823 53.03C18.6823 51.655 17.7363 50.863 16.7463 50.863C15.7453 50.863 14.7993 51.655 14.7993 53.03C14.7993 54.405 15.7453 55.186 16.7463 55.186ZM22.333 48.652V50.049H24.038V50.929H22.333V53.877C22.333 54.801 22.883 55.186 23.642 55.186C23.807 55.186 23.983 55.164 24.17 55.131V56.011C24.06 56.033 23.796 56.077 23.466 56.077C22.179 56.077 21.343 55.307 21.343 53.921V50.929H20.452V50.049H21.365V48.652H22.333ZM26.3881 47.2V50.764H26.3991C26.7401 50.258 27.3781 49.917 28.1041 49.917C29.4131 49.917 30.2491 50.665 30.2491 52.062V56H29.2371V52.414C29.2371 51.369 28.7861 50.863 27.8731 50.863C27.0811 50.863 26.3881 51.325 26.3881 52.315V56H25.3761V47.2H26.3881ZM33.917 49.917C34.599 49.917 35.292 50.115 35.71 50.434V51.435C35.281 51.072 34.632 50.819 33.928 50.819C33.18 50.819 32.762 51.138 32.762 51.622C32.762 52.15 33.279 52.348 34.082 52.579C34.995 52.843 36.029 53.14 36.029 54.339C36.029 55.428 35.182 56.132 33.807 56.132C33.037 56.132 32.3 55.912 31.75 55.472V54.383C32.212 54.856 32.916 55.23 33.774 55.23C34.577 55.23 35.039 54.878 35.039 54.35C35.039 53.778 34.478 53.591 33.62 53.327C32.641 53.03 31.772 52.711 31.772 51.666C31.772 50.665 32.597 49.917 33.917 49.917Z" fill="black"/>
    <defs>
    <filter id="filter0_i_42_1106" x="28.72" y="8.48047" width="8.76976" height="13.8063" filterUnits="userSpaceOnUse" color-interpolation-filters="sRGB">
    <feFlood flood-opacity="0" result="BackgroundImageFix"/>
    <feBlend mode="normal" in="SourceGraphic" in2="BackgroundImageFix" result="shape"/>
    <feColorMatrix in="SourceAlpha" type="matrix" values="0 0 0 0 0 0 0 0 0 0 0 0 0 0 0 0 0 0 127 0" result="hardAlpha"/>
    <feOffset dx="0.125" dy="-0.25"/>
    <feGaussianBlur stdDeviation="0.25"/>
    <feComposite in2="hardAlpha" operator="arithmetic" k2="-1" k3="1"/>
    <feColorMatrix type="matrix" values="0 0 0 0 0.960784 0 0 0 0 0.305882 0 0 0 0 0.764706 0 0 0 1 0"/>
    <feBlend mode="normal" in2="shape" result="effect1_innerShadow_42_1106"/>
    </filter>
    <filter id="filter1_i_42_1106" x="10.1275" y="8.33466" width="20.0937" height="26.3798" filterUnits="userSpaceOnUse" color-interpolation-filters="sRGB">
    <feFlood flood-opacity="0" result="BackgroundImageFix"/>
    <feBlend mode="normal" in="SourceGraphic" in2="BackgroundImageFix" result="shape"/>
    <feColorMatrix in="SourceAlpha" type="matrix" values="0 0 0 0 0 0 0 0 0 0 0 0 0 0 0 0 0 0 127 0" result="hardAlpha"/>
    <feOffset dx="0.25" dy="-0.25"/>
    <feGaussianBlur stdDeviation="0.375"/>
    <feComposite in2="hardAlpha" operator="arithmetic" k2="-1" k3="1"/>
    <feColorMatrix type="matrix" values="0 0 0 0 0.909804 0 0 0 0 0.223529 0 0 0 0 0.717647 0 0 0 1 0"/>
    <feBlend mode="normal" in2="shape" result="effect1_innerShadow_42_1106"/>
    </filter>
    <filter id="filter2_ii_42_1106" x="11.62" y="8.30388" width="16.8588" height="9.20553" filterUnits="userSpaceOnUse" color-interpolation-filters="sRGB">
    <feFlood flood-opacity="0" result="BackgroundImageFix"/>
    <feBlend mode="normal" in="SourceGraphic" in2="BackgroundImageFix" result="shape"/>
    <feColorMatrix in="SourceAlpha" type="matrix" values="0 0 0 0 0 0 0 0 0 0 0 0 0 0 0 0 0 0 127 0" result="hardAlpha"/>
    <feOffset dx="-0.05" dy="0.05"/>
    <feGaussianBlur stdDeviation="0.0375"/>
    <feComposite in2="hardAlpha" operator="arithmetic" k2="-1" k3="1"/>
    <feColorMatrix type="matrix" values="0 0 0 0 0.913725 0 0 0 0 0.411765 0 0 0 0 0.662745 0 0 0 1 0"/>
    <feBlend mode="normal" in2="shape" result="effect1_innerShadow_42_1106"/>
    <feColorMatrix in="SourceAlpha" type="matrix" values="0 0 0 0 0 0 0 0 0 0 0 0 0 0 0 0 0 0 127 0" result="hardAlpha"/>
    <feOffset dx="0.05" dy="-0.05"/>
    <feGaussianBlur stdDeviation="0.0375"/>
    <feComposite in2="hardAlpha" operator="arithmetic" k2="-1" k3="1"/>
    <feColorMatrix type="matrix" values="0 0 0 0 0.898039 0 0 0 0 0.247059 0 0 0 0 0.615686 0 0 0 1 0"/>
    <feBlend mode="normal" in2="effect1_innerShadow_42_1106" result="effect2_innerShadow_42_1106"/>
    </filter>
    <filter id="filter3_f_42_1106" x="28.69" y="8.88013" width="8.12877" height="5.18036" filterUnits="userSpaceOnUse" color-interpolation-filters="sRGB">
    <feFlood flood-opacity="0" result="BackgroundImageFix"/>
    <feBlend mode="normal" in="SourceGraphic" in2="BackgroundImageFix" result="shape"/>
    <feGaussianBlur stdDeviation="0.1875" result="effect1_foregroundBlur_42_1106"/>
    </filter>
    <filter id="filter4_f_42_1106" x="15.0962" y="9.56421" width="9.90628" height="0.952759" filterUnits="userSpaceOnUse" color-interpolation-filters="sRGB">
    <feFlood flood-opacity="0" result="BackgroundImageFix"/>
    <feBlend mode="normal" in="SourceGraphic" in2="BackgroundImageFix" result="shape"/>
    <feGaussianBlur stdDeviation="0.0625" result="effect1_foregroundBlur_42_1106"/>
    </filter>
    <radialGradient id="paint0_radial_42_1106" cx="0" cy="0" r="1" gradientUnits="userSpaceOnUse" gradientTransform="translate(11.6837 13.468) rotate(141.499) scale(9.87473 12.8729)">
    <stop offset="0.335" stop-color="#F96ACF"/>
    <stop offset="1" stop-color="#E44CBA"/>
    </radialGradient>
    <linearGradient id="paint1_linear_42_1106" x1="10.855" y1="23.1742" x2="7.45125" y2="22.0242" gradientUnits="userSpaceOnUse">
    <stop stop-color="#DE47B0"/>
    <stop offset="1" stop-color="#DE47B0" stop-opacity="0"/>
    </linearGradient>
    <linearGradient id="paint2_linear_42_1106" x1="4.9325" y1="11.2555" x2="6.065" y2="12.6617" gradientUnits="userSpaceOnUse">
    <stop offset="0.082" stop-color="#E665B5"/>
    <stop offset="1" stop-color="#E665B5" stop-opacity="0"/>
    </linearGradient>
    <linearGradient id="paint3_linear_42_1106" x1="30.2838" y1="9.57547" x2="33.76" y2="21.0605" gradientUnits="userSpaceOnUse">
    <stop offset="0.457" stop-color="#FF6ED9"/>
    <stop offset="1" stop-color="#FA5BCA"/>
    </linearGradient>
    <radialGradient id="paint4_radial_42_1106" cx="0" cy="0" r="1" gradientUnits="userSpaceOnUse" gradientTransform="translate(30.1275 14.068) rotate(90) scale(5.42969 0.898438)">
    <stop stop-color="#FF81D9"/>
    <stop offset="1" stop-color="#FF81D9" stop-opacity="0"/>
    </radialGradient>
    <linearGradient id="paint5_linear_42_1106" x1="20.05" y1="16.3342" x2="20.05" y2="34.7142" gradientUnits="userSpaceOnUse">
    <stop stop-color="#F972CA"/>
    <stop offset="1" stop-color="#F949C4"/>
    </linearGradient>
    <radialGradient id="paint6_radial_42_1106" cx="0" cy="0" r="1" gradientUnits="userSpaceOnUse" gradientTransform="translate(9.7375 10.0055) rotate(90) scale(14.0625 6.76592)">
    <stop offset="0.355" stop-color="#F76AC8"/>
    <stop offset="1" stop-color="#F360C4" stop-opacity="0"/>
    </radialGradient>
    <radialGradient id="paint7_radial_42_1106" cx="0" cy="0" r="1" gradientUnits="userSpaceOnUse" gradientTransform="translate(29.9712 15.9042) rotate(90) scale(12.8516 1.75804)">
    <stop offset="0.077" stop-color="#FF83DA"/>
    <stop offset="1" stop-color="#FF83DA" stop-opacity="0"/>
    </radialGradient>
    <radialGradient id="paint8_radial_42_1106" cx="0" cy="0" r="1" gradientUnits="userSpaceOnUse" gradientTransform="translate(19.8337 9.34173) rotate(90) scale(6.79688 10.6513)">
    <stop offset="0.247" stop-color="#CE59A3"/>
    <stop offset="1" stop-color="#B8387F"/>
    </radialGradient>
    <radialGradient id="paint9_radial_42_1106" cx="0" cy="0" r="1" gradientUnits="userSpaceOnUse" gradientTransform="translate(24.1517 12.6284) rotate(146.867) scale(7.27698 2.19231)">
    <stop stop-color="#BA3A82"/>
    <stop offset="1" stop-color="#BA3A82" stop-opacity="0"/>
    </radialGradient>
    <linearGradient id="paint10_linear_42_1106" x1="27.5887" y1="8.95046" x2="18.9562" y2="16.8805" gradientUnits="userSpaceOnUse">
    <stop stop-color="#DD53A4"/>
    <stop offset="1" stop-color="#E24B9B"/>
    </linearGradient>
    <radialGradient id="paint11_radial_42_1106" cx="0" cy="0" r="1" gradientUnits="userSpaceOnUse" gradientTransform="translate(20.05 10.0405) rotate(90) scale(1.1563 6.28906)">
    <stop stop-color="#D463A8"/>
    <stop offset="1" stop-color="#D463A8" stop-opacity="0"/>
    </radialGradient>
    </defs>
    </svg>
    