<svg width="44" height="60" viewBox="0 0 44 60" fill="none" xmlns="http://www.w3.org/2000/svg">
    <rect x="3" width="40" height="40" rx="3" fill="#5D5C66" fill-opacity="0.15"/>
    <path fill-rule="evenodd" clip-rule="evenodd" d="M19.0925 8.27498C19.025 9.06748 18.0675 9.46498 17.4588 8.94998C16.6638 8.27498 15.82 7.61623 15.1925 7.26498C13.49 6.30873 12.4688 6.12123 10.8213 7.72748L10.7775 7.77248L10.7525 7.79748L10.7325 7.81748C9.12751 9.46498 9.31251 10.485 10.27 12.1875C10.625 12.8225 11.295 13.6775 11.9775 14.4812C12.4938 15.0887 12.0963 16.05 11.3013 16.115C10.2513 16.2012 9.17376 16.3325 8.47376 16.5275C6.59376 17.0562 5.74001 17.6462 5.71001 19.9462V20.0737C5.74001 22.3737 6.59376 22.9637 8.47251 23.4912C9.16251 23.685 10.22 23.815 11.255 23.9012C12.0488 23.9675 12.4463 24.9262 11.9313 25.5337C11.2663 26.3212 10.6175 27.1537 10.2688 27.7725C9.31251 29.475 9.12751 30.4962 10.7325 32.1437L10.7525 32.165L10.7775 32.19L10.8213 32.2337C12.4688 33.8387 13.49 33.6525 15.1925 32.6962C15.8275 32.34 16.685 31.6675 17.49 30.9837C18.0988 30.4687 19.0588 30.8662 19.1238 31.6612C19.2113 32.7112 19.3413 33.7912 19.5388 34.4925C20.0663 36.3725 20.6563 37.2262 22.9563 37.255H23.0825C25.3825 37.225 25.9738 36.3725 26.5013 34.4925C26.6925 33.81 26.8213 32.7687 26.9075 31.745C26.975 30.9512 27.9325 30.555 28.5413 31.07C29.3363 31.7437 30.18 32.4025 30.8075 32.755C32.51 33.7112 33.53 33.8975 35.1788 32.2925L35.2225 32.2475L35.2375 32.2325L35.2475 32.2225L35.2675 32.2025C36.8725 30.555 36.6875 29.5337 35.73 27.8312C35.375 27.1975 34.705 26.3412 34.0225 25.5387C33.5063 24.93 33.9038 23.97 34.6988 23.905C35.7488 23.8175 36.8263 23.6875 37.5263 23.4912C39.4063 22.9637 40.26 22.3737 40.29 20.0737V19.9462C40.26 17.6462 39.4063 17.0562 37.5275 16.5287C36.8375 16.335 35.78 16.205 34.745 16.1187C33.9513 16.0525 33.5538 15.0937 34.0688 14.4862C34.7338 13.6987 35.3825 12.8662 35.7313 12.2462C36.6875 10.5437 36.8725 9.52373 35.2675 7.87623L35.2475 7.85498L35.2225 7.82998L35.1788 7.78623C33.53 6.17998 32.51 6.36623 30.8075 7.32373C30.1725 7.67998 29.315 8.35248 28.51 9.03623C27.9013 9.55123 26.9413 9.15373 26.875 8.35873C26.7888 7.30873 26.6588 6.22748 26.4625 5.52748C25.935 3.64748 25.3438 2.79373 23.0438 2.76373H22.9175C20.6175 2.79373 20.0263 3.64748 19.4988 5.52623C19.3075 6.20873 19.1788 7.25248 19.0925 8.27498ZM22.995 26.7662C24.7872 26.7662 26.506 26.0543 27.7733 24.787C29.0406 23.5197 29.7525 21.8009 29.7525 20.0087C29.7525 18.2165 29.0406 16.4977 27.7733 15.2305C26.506 13.9632 24.7872 13.2512 22.995 13.2512C21.2028 13.2512 19.484 13.9632 18.2167 15.2305C16.9495 16.4977 16.2375 18.2165 16.2375 20.0087C16.2375 21.8009 16.9495 23.5197 18.2167 24.787C19.484 26.0543 21.2028 26.7662 22.995 26.7662Z" fill="url(#paint0_linear_42_1068)"/>
    <g filter="url(#filter0_iii_42_1068)">
    <path fill-rule="evenodd" clip-rule="evenodd" d="M19.0925 8.27498C19.025 9.06748 18.0675 9.46498 17.4588 8.94998C16.6638 8.27498 15.82 7.61623 15.1925 7.26498C13.49 6.30873 12.4688 6.12123 10.8213 7.72748L10.7775 7.77248L10.7525 7.79748L10.7325 7.81748C9.12751 9.46498 9.31251 10.485 10.27 12.1875C10.625 12.8225 11.295 13.6775 11.9775 14.4812C12.4938 15.0887 12.0963 16.05 11.3013 16.115C10.2513 16.2012 9.17376 16.3325 8.47376 16.5275C6.59376 17.0562 5.74001 17.6462 5.71001 19.9462V20.0737C5.74001 22.3737 6.59376 22.9637 8.47251 23.4912C9.16251 23.685 10.22 23.815 11.255 23.9012C12.0488 23.9675 12.4463 24.9262 11.9313 25.5337C11.2663 26.3212 10.6175 27.1537 10.2688 27.7725C9.31251 29.475 9.12751 30.4962 10.7325 32.1437L10.7525 32.165L10.7775 32.19L10.8213 32.2337C12.4688 33.8387 13.49 33.6525 15.1925 32.6962C15.8275 32.34 16.685 31.6675 17.49 30.9837C18.0988 30.4687 19.0588 30.8662 19.1238 31.6612C19.2113 32.7112 19.3413 33.7912 19.5388 34.4925C20.0663 36.3725 20.6563 37.2262 22.9563 37.255H23.0825C25.3825 37.225 25.9738 36.3725 26.5013 34.4925C26.6925 33.81 26.8213 32.7687 26.9075 31.745C26.975 30.9512 27.9325 30.555 28.5413 31.07C29.3363 31.7437 30.18 32.4025 30.8075 32.755C32.51 33.7112 33.53 33.8975 35.1788 32.2925L35.2225 32.2475L35.2375 32.2325L35.2475 32.2225L35.2675 32.2025C36.8725 30.555 36.6875 29.5337 35.73 27.8312C35.375 27.1975 34.705 26.3412 34.0225 25.5387C33.5063 24.93 33.9038 23.97 34.6988 23.905C35.7488 23.8175 36.8263 23.6875 37.5263 23.4912C39.4063 22.9637 40.26 22.3737 40.29 20.0737V19.9462C40.26 17.6462 39.4063 17.0562 37.5275 16.5287C36.8375 16.335 35.78 16.205 34.745 16.1187C33.9513 16.0525 33.5538 15.0937 34.0688 14.4862C34.7338 13.6987 35.3825 12.8662 35.7313 12.2462C36.6875 10.5437 36.8725 9.52373 35.2675 7.87623L35.2475 7.85498L35.2225 7.82998L35.1788 7.78623C33.53 6.17998 32.51 6.36623 30.8075 7.32373C30.1725 7.67998 29.315 8.35248 28.51 9.03623C27.9013 9.55123 26.9413 9.15373 26.875 8.35873C26.7888 7.30873 26.6588 6.22748 26.4625 5.52748C25.935 3.64748 25.3438 2.79373 23.0438 2.76373H22.9175C20.6175 2.79373 20.0263 3.64748 19.4988 5.52623C19.3075 6.20873 19.1788 7.25248 19.0925 8.27498ZM22.995 26.7662C24.7872 26.7662 26.506 26.0543 27.7733 24.787C29.0406 23.5197 29.7525 21.8009 29.7525 20.0087C29.7525 18.2165 29.0406 16.4977 27.7733 15.2305C26.506 13.9632 24.7872 13.2512 22.995 13.2512C21.2028 13.2512 19.484 13.9632 18.2167 15.2305C16.9495 16.4977 16.2375 18.2165 16.2375 20.0087C16.2375 21.8009 16.9495 23.5197 18.2167 24.787C19.484 26.0543 21.2028 26.7662 22.995 26.7662Z" fill="url(#paint1_linear_42_1068)"/>
    </g>
    <g filter="url(#filter1_f_42_1068)">
    <path fill-rule="evenodd" clip-rule="evenodd" d="M23 30.185C25.6986 30.185 28.2866 29.113 30.1948 27.2048C32.103 25.2966 33.175 22.7085 33.175 20.01C33.175 17.3114 32.103 14.7233 30.1948 12.8151C28.2866 10.907 25.6986 9.83496 23 9.83496C20.3014 9.83496 17.7134 10.907 15.8052 12.8151C13.897 14.7233 12.825 17.3114 12.825 20.01C12.825 22.7085 13.897 25.2966 15.8052 27.2048C17.7134 29.113 20.3014 30.185 23 30.185ZM23 26.2637C24.6586 26.2637 26.2493 25.6048 27.4221 24.432C28.5949 23.2592 29.2538 21.6686 29.2538 20.01C29.2538 18.3514 28.5949 16.7607 27.4221 15.5879C26.2493 14.4151 24.6586 13.7562 23 13.7562C21.3414 13.7562 19.7507 14.4151 18.5779 15.5879C17.4051 16.7607 16.7463 18.3514 16.7463 20.01C16.7463 21.6686 17.4051 23.2592 18.5779 24.432C19.7507 25.6048 21.3414 26.2637 23 26.2637Z" fill="url(#paint2_linear_42_1068)"/>
    <path fill-rule="evenodd" clip-rule="evenodd" d="M23 30.185C25.6986 30.185 28.2866 29.113 30.1948 27.2048C32.103 25.2966 33.175 22.7085 33.175 20.01C33.175 17.3114 32.103 14.7233 30.1948 12.8151C28.2866 10.907 25.6986 9.83496 23 9.83496C20.3014 9.83496 17.7134 10.907 15.8052 12.8151C13.897 14.7233 12.825 17.3114 12.825 20.01C12.825 22.7085 13.897 25.2966 15.8052 27.2048C17.7134 29.113 20.3014 30.185 23 30.185ZM23 26.2637C24.6586 26.2637 26.2493 25.6048 27.4221 24.432C28.5949 23.2592 29.2538 21.6686 29.2538 20.01C29.2538 18.3514 28.5949 16.7607 27.4221 15.5879C26.2493 14.4151 24.6586 13.7562 23 13.7562C21.3414 13.7562 19.7507 14.4151 18.5779 15.5879C17.4051 16.7607 16.7463 18.3514 16.7463 20.01C16.7463 21.6686 17.4051 23.2592 18.5779 24.432C19.7507 25.6048 21.3414 26.2637 23 26.2637Z" fill="url(#paint3_radial_42_1068)"/>
    </g>
    <g filter="url(#filter2_i_42_1068)">
    <path fill-rule="evenodd" clip-rule="evenodd" d="M23 29.8775C24.3053 29.8922 25.6004 29.6478 26.8106 29.1585C28.0207 28.6691 29.1218 27.9446 30.05 27.0268C30.9781 26.109 31.715 25.0162 32.2179 23.8116C32.7209 22.6071 32.9798 21.3147 32.9798 20.0094C32.9798 18.704 32.7209 17.4117 32.2179 16.2071C31.715 15.0026 30.9781 13.9098 30.05 12.992C29.1218 12.0742 28.0207 11.3496 26.8106 10.8603C25.6004 10.371 24.3053 10.1266 23 10.1413C20.3827 10.1413 17.8725 11.181 16.0217 13.0317C14.171 14.8825 13.1313 17.3926 13.1313 20.01C13.1313 22.6274 14.171 25.1375 16.0217 26.9883C17.8725 28.839 20.3827 29.8775 23 29.8775ZM23 26.075C23.8037 26.0865 24.6017 25.9382 25.3476 25.6386C26.0935 25.339 26.7723 24.8942 27.3448 24.3299C27.9172 23.7656 28.3718 23.0932 28.682 22.3517C28.9923 21.6102 29.1521 20.8144 29.1521 20.0106C29.1521 19.2068 28.9923 18.4111 28.682 17.6696C28.3718 16.9281 27.9172 16.2556 27.3448 15.6913C26.7723 15.1271 26.0935 14.6822 25.3476 14.3826C24.6017 14.083 23.8037 13.9347 23 13.9462C21.4067 13.9691 19.8864 14.6181 18.7678 15.7529C17.6492 16.8877 17.0221 18.4172 17.0221 20.0106C17.0221 21.6041 17.6492 23.1335 18.7678 24.2683C19.8864 25.4031 21.4067 26.0521 23 26.075Z" fill="url(#paint4_radial_42_1068)"/>
    </g>
    <g filter="url(#filter3_f_42_1068)">
    <path fill-rule="evenodd" clip-rule="evenodd" d="M23 26.895C23.9042 26.895 24.7995 26.7169 25.6348 26.3709C26.4701 26.0249 27.2291 25.5178 27.8684 24.8784C28.5078 24.2391 29.0149 23.4801 29.3609 22.6448C29.7069 21.8094 29.885 20.9142 29.885 20.01C29.885 19.1058 29.7069 18.2106 29.3609 17.3752C29.0149 16.5399 28.5078 15.7809 27.8684 15.1416C27.2291 14.5022 26.4701 13.9951 25.6348 13.6491C24.7995 13.3031 23.9042 13.125 23 13.125C21.174 13.125 19.4228 13.8504 18.1316 15.1416C16.8404 16.4328 16.115 18.184 16.115 20.01C16.115 21.836 16.8404 23.5872 18.1316 24.8784C19.4228 26.1696 21.174 26.895 23 26.895ZM29.065 20.01C29.065 20.8065 28.9081 21.5951 28.6033 22.331C28.2985 23.0668 27.8518 23.7354 27.2886 24.2986C26.7254 24.8618 26.0568 25.3085 25.321 25.6133C24.5851 25.9181 23.7965 26.075 23 26.075C22.2035 26.075 21.4149 25.9181 20.679 25.6133C19.9432 25.3085 19.2746 24.8618 18.7114 24.2986C18.1482 23.7354 17.7015 23.0668 17.3967 22.331C17.0919 21.5951 16.935 20.8065 16.935 20.01C16.935 18.4015 17.574 16.8588 18.7114 15.7214C19.8488 14.584 21.3915 13.945 23 13.945C24.6085 13.945 26.1512 14.584 27.2886 15.7214C28.426 16.8588 29.065 18.4015 29.065 20.01Z" fill="url(#paint5_linear_42_1068)"/>
    </g>
    <path fill-rule="evenodd" clip-rule="evenodd" d="M23 26.8462C24.8131 26.8462 26.5519 26.126 27.834 24.8439C29.116 23.5619 29.8363 21.823 29.8363 20.01C29.8363 18.1969 29.116 16.458 27.834 15.176C26.5519 13.894 24.8131 13.1737 23 13.1737C21.1869 13.1737 19.4481 13.894 18.166 15.176C16.884 16.458 16.1638 18.1969 16.1638 20.01C16.1638 21.823 16.884 23.5619 18.166 24.8439C19.4481 26.126 21.1869 26.8462 23 26.8462ZM23 25.42C24.4348 25.42 25.8109 24.85 26.8255 23.8354C27.84 22.8208 28.41 21.4448 28.41 20.01C28.41 18.5751 27.84 17.1991 26.8255 16.1845C25.8109 15.1699 24.4348 14.6 23 14.6C21.5652 14.6 20.1891 15.1699 19.1746 16.1845C18.16 17.1991 17.59 18.5751 17.59 20.01C17.59 21.4448 18.16 22.8208 19.1746 23.8354C20.1891 24.85 21.5652 25.42 23 25.42Z" fill="url(#paint6_radial_42_1068)"/>
    <path fill-rule="evenodd" clip-rule="evenodd" d="M23 26.8462C24.8131 26.8462 26.5519 26.126 27.834 24.8439C29.116 23.5619 29.8363 21.823 29.8363 20.01C29.8363 18.1969 29.116 16.458 27.834 15.176C26.5519 13.894 24.8131 13.1737 23 13.1737C21.1869 13.1737 19.4481 13.894 18.166 15.176C16.884 16.458 16.1638 18.1969 16.1638 20.01C16.1638 21.823 16.884 23.5619 18.166 24.8439C19.4481 26.126 21.1869 26.8462 23 26.8462ZM23 25.42C24.4348 25.42 25.8109 24.85 26.8255 23.8354C27.84 22.8208 28.41 21.4448 28.41 20.01C28.41 18.5751 27.84 17.1991 26.8255 16.1845C25.8109 15.1699 24.4348 14.6 23 14.6C21.5652 14.6 20.1891 15.1699 19.1746 16.1845C18.16 17.1991 17.59 18.5751 17.59 20.01C17.59 21.4448 18.16 22.8208 19.1746 23.8354C20.1891 24.85 21.5652 25.42 23 25.42Z" fill="url(#paint7_radial_42_1068)"/>
    <path fill-rule="evenodd" clip-rule="evenodd" d="M23 26.1812C23.8179 26.1929 24.63 26.0418 25.389 25.7369C26.148 25.4319 26.8388 24.9792 27.4213 24.4049C28.0038 23.8306 28.4663 23.1463 28.7821 22.3917C29.0978 21.6371 29.2603 20.8273 29.2603 20.0094C29.2603 19.1914 29.0978 18.3816 28.7821 17.627C28.4663 16.8724 28.0038 16.1881 27.4213 15.6138C26.8388 15.0395 26.148 14.5868 25.389 14.2818C24.63 13.9769 23.8179 13.8258 23 13.8375C21.3783 13.8606 19.8309 14.521 18.6923 15.6759C17.5537 16.8308 16.9153 18.3875 16.9153 20.0094C16.9153 21.6312 17.5537 23.1879 18.6923 24.3428C19.8309 25.4977 21.3783 26.1581 23 26.1812ZM28.41 20.01C28.41 21.4448 27.84 22.8209 26.8255 23.8354C25.8109 24.85 24.4348 25.42 23 25.42C21.5652 25.42 20.1891 24.85 19.1746 23.8354C18.16 22.8209 17.59 21.4448 17.59 20.01C17.59 18.5752 18.16 17.1991 19.1746 16.1845C20.1891 15.17 21.5652 14.6 23 14.6C24.4348 14.6 25.8109 15.17 26.8255 16.1845C27.84 17.1991 28.41 18.5752 28.41 20.01Z" fill="url(#paint8_radial_42_1068)"/>
    <path fill-rule="evenodd" clip-rule="evenodd" d="M23 26.1812C23.8179 26.1929 24.63 26.0418 25.389 25.7369C26.148 25.4319 26.8388 24.9792 27.4213 24.4049C28.0038 23.8306 28.4663 23.1463 28.7821 22.3917C29.0978 21.6371 29.2603 20.8273 29.2603 20.0094C29.2603 19.1914 29.0978 18.3816 28.7821 17.627C28.4663 16.8724 28.0038 16.1881 27.4213 15.6138C26.8388 15.0395 26.148 14.5868 25.389 14.2818C24.63 13.9769 23.8179 13.8258 23 13.8375C21.3783 13.8606 19.8309 14.521 18.6923 15.6759C17.5537 16.8308 16.9153 18.3875 16.9153 20.0094C16.9153 21.6312 17.5537 23.1879 18.6923 24.3428C19.8309 25.4977 21.3783 26.1581 23 26.1812ZM28.41 20.01C28.41 21.4448 27.84 22.8209 26.8255 23.8354C25.8109 24.85 24.4348 25.42 23 25.42C21.5652 25.42 20.1891 24.85 19.1746 23.8354C18.16 22.8209 17.59 21.4448 17.59 20.01C17.59 18.5752 18.16 17.1991 19.1746 16.1845C20.1891 15.17 21.5652 14.6 23 14.6C24.4348 14.6 25.8109 15.17 26.8255 16.1845C27.84 17.1991 28.41 18.5752 28.41 20.01Z" fill="url(#paint9_radial_42_1068)"/>
    <path fill-rule="evenodd" clip-rule="evenodd" d="M23 26.1812C23.8179 26.1929 24.63 26.0418 25.389 25.7369C26.148 25.4319 26.8388 24.9792 27.4213 24.4049C28.0038 23.8306 28.4663 23.1463 28.7821 22.3917C29.0978 21.6371 29.2603 20.8273 29.2603 20.0094C29.2603 19.1914 29.0978 18.3816 28.7821 17.627C28.4663 16.8724 28.0038 16.1881 27.4213 15.6138C26.8388 15.0395 26.148 14.5868 25.389 14.2818C24.63 13.9769 23.8179 13.8258 23 13.8375C21.3783 13.8606 19.8309 14.521 18.6923 15.6759C17.5537 16.8308 16.9153 18.3875 16.9153 20.0094C16.9153 21.6312 17.5537 23.1879 18.6923 24.3428C19.8309 25.4977 21.3783 26.1581 23 26.1812ZM28.41 20.01C28.41 21.4448 27.84 22.8209 26.8255 23.8354C25.8109 24.85 24.4348 25.42 23 25.42C21.5652 25.42 20.1891 24.85 19.1746 23.8354C18.16 22.8209 17.59 21.4448 17.59 20.01C17.59 18.5752 18.16 17.1991 19.1746 16.1845C20.1891 15.17 21.5652 14.6 23 14.6C24.4348 14.6 25.8109 15.17 26.8255 16.1845C27.84 17.1991 28.41 18.5752 28.41 20.01Z" fill="url(#paint10_radial_42_1068)"/>
    <g filter="url(#filter4_f_42_1068)">
    <path d="M23 26.1812C23.8179 26.1929 24.63 26.0418 25.389 25.7369C26.148 25.4319 26.8388 24.9792 27.4213 24.4049C28.0038 23.8306 28.4663 23.1463 28.7821 22.3917C29.0978 21.6371 29.2603 20.8273 29.2603 20.0094C29.2603 19.1914 29.0978 18.3816 28.7821 17.627C28.4663 16.8724 28.0038 16.1881 27.4213 15.6138C26.8388 15.0395 26.148 14.5868 25.389 14.2818C24.63 13.9769 23.8179 13.8258 23 13.8375C21.3783 13.8606 19.8309 14.521 18.6923 15.6759C17.5537 16.8308 16.9153 18.3875 16.9153 20.0094C16.9153 21.6312 17.5537 23.1879 18.6923 24.3428C19.8309 25.4977 21.3783 26.1581 23 26.1812Z" stroke="url(#paint11_radial_42_1068)" stroke-width="0.178125"/>
    </g>
    <path d="M3.311 47.64C4.07 47.64 4.774 47.882 5.258 48.179V49.235C4.686 48.828 3.96 48.597 3.322 48.597C2.486 48.597 1.76 49.004 1.76 49.818C1.76 50.533 2.332 50.874 3.454 51.38C4.697 51.93 5.698 52.458 5.698 53.8C5.698 55.296 4.466 56.176 2.981 56.176C2.024 56.176 1.188 55.802 0.693 55.417V54.273C1.254 54.845 2.112 55.219 2.937 55.219C3.85 55.219 4.642 54.735 4.642 53.855C4.642 53.096 4.037 52.722 2.893 52.205C1.694 51.666 0.726 51.171 0.726 49.873C0.726 48.454 1.87 47.64 3.311 47.64ZM12.2252 52.909C12.2252 53.085 12.2142 53.228 12.1922 53.36H7.78121C7.92421 54.537 8.76021 55.252 9.88221 55.252C10.5642 55.252 11.2682 54.999 11.8842 54.471V55.472C11.2792 55.912 10.5752 56.132 9.80521 56.132C7.95721 56.132 6.79121 54.889 6.79121 53.052C6.79121 51.127 8.12221 49.917 9.66221 49.917C11.0702 49.917 12.2252 50.951 12.2252 52.909ZM7.78121 52.601H11.2462C11.2242 51.369 10.4652 50.797 9.65121 50.797C8.73821 50.797 7.93521 51.49 7.78121 52.601ZM13.675 56V50.049H14.478L14.588 50.995H14.599C15.006 50.225 15.776 49.983 16.304 49.983C16.458 49.983 16.579 49.994 16.7 50.016V50.984C16.568 50.962 16.425 50.94 16.282 50.94C15.49 50.94 14.687 51.446 14.687 52.612V56H13.675ZM19.3177 56L17.1507 50.049H18.2287L19.8677 54.878H19.9007L21.5397 50.049H22.5847L20.4177 56H19.3177ZM24.2791 48.685C23.9161 48.685 23.6521 48.421 23.6521 48.069C23.6521 47.717 23.9161 47.453 24.2791 47.453C24.6421 47.453 24.9061 47.717 24.9061 48.069C24.9061 48.421 24.6421 48.685 24.2791 48.685ZM23.7731 56V50.049H24.7851V56H23.7731ZM27.2895 53.019C27.2895 54.383 28.2795 55.186 29.3355 55.186C29.8305 55.186 30.4245 55.087 30.9195 54.702V55.725C30.4795 55.978 29.9185 56.132 29.2695 56.132C27.5535 56.132 26.2665 54.801 26.2665 53.019C26.2665 51.259 27.5535 49.917 29.2695 49.917C29.8855 49.917 30.4465 50.038 30.9195 50.335V51.369C30.4245 51.006 29.9405 50.863 29.3245 50.863C28.2795 50.863 27.2895 51.677 27.2895 53.019ZM37.3834 52.909C37.3834 53.085 37.3724 53.228 37.3504 53.36H32.9394C33.0824 54.537 33.9184 55.252 35.0404 55.252C35.7224 55.252 36.4264 54.999 37.0424 54.471V55.472C36.4374 55.912 35.7334 56.132 34.9634 56.132C33.1154 56.132 31.9494 54.889 31.9494 53.052C31.9494 51.127 33.2804 49.917 34.8204 49.917C36.2284 49.917 37.3834 50.951 37.3834 52.909ZM32.9394 52.601H36.4044C36.3824 51.369 35.6234 50.797 34.8094 50.797C33.8964 50.797 33.0934 51.49 32.9394 52.601ZM40.7032 49.917C41.3852 49.917 42.0782 50.115 42.4962 50.434V51.435C42.0672 51.072 41.4182 50.819 40.7142 50.819C39.9662 50.819 39.5482 51.138 39.5482 51.622C39.5482 52.15 40.0652 52.348 40.8682 52.579C41.7812 52.843 42.8152 53.14 42.8152 54.339C42.8152 55.428 41.9682 56.132 40.5932 56.132C39.8232 56.132 39.0862 55.912 38.5362 55.472V54.383C38.9982 54.856 39.7022 55.23 40.5602 55.23C41.3632 55.23 41.8252 54.878 41.8252 54.35C41.8252 53.778 41.2642 53.591 40.4062 53.327C39.4272 53.03 38.5582 52.711 38.5582 51.666C38.5582 50.665 39.3832 49.917 40.7032 49.917Z" fill="black"/>
    <defs>
    <filter id="filter0_iii_42_1068" x="5.35376" y="2.40748" width="35.2925" height="35.2038" filterUnits="userSpaceOnUse" color-interpolation-filters="sRGB">
    <feFlood flood-opacity="0" result="BackgroundImageFix"/>
    <feBlend mode="normal" in="SourceGraphic" in2="BackgroundImageFix" result="shape"/>
    <feColorMatrix in="SourceAlpha" type="matrix" values="0 0 0 0 0 0 0 0 0 0 0 0 0 0 0 0 0 0 127 0" result="hardAlpha"/>
    <feOffset dx="0.35625" dy="-0.35625"/>
    <feGaussianBlur stdDeviation="0.35625"/>
    <feComposite in2="hardAlpha" operator="arithmetic" k2="-1" k3="1"/>
    <feColorMatrix type="matrix" values="0 0 0 0 0.615686 0 0 0 0 0.533333 0 0 0 0 0.717647 0 0 0 1 0"/>
    <feBlend mode="normal" in2="shape" result="effect1_innerShadow_42_1068"/>
    <feColorMatrix in="SourceAlpha" type="matrix" values="0 0 0 0 0 0 0 0 0 0 0 0 0 0 0 0 0 0 127 0" result="hardAlpha"/>
    <feOffset dx="-0.35625" dy="0.35625"/>
    <feGaussianBlur stdDeviation="0.35625"/>
    <feComposite in2="hardAlpha" operator="arithmetic" k2="-1" k3="1"/>
    <feColorMatrix type="matrix" values="0 0 0 0 0.941176 0 0 0 0 0.941176 0 0 0 0 0.960784 0 0 0 1 0"/>
    <feBlend mode="normal" in2="effect1_innerShadow_42_1068" result="effect2_innerShadow_42_1068"/>
    <feColorMatrix in="SourceAlpha" type="matrix" values="0 0 0 0 0 0 0 0 0 0 0 0 0 0 0 0 0 0 127 0" result="hardAlpha"/>
    <feOffset dx="0.35625" dy="0.178125"/>
    <feGaussianBlur stdDeviation="0.35625"/>
    <feComposite in2="hardAlpha" operator="arithmetic" k2="-1" k3="1"/>
    <feColorMatrix type="matrix" values="0 0 0 0 0.607843 0 0 0 0 0.6 0 0 0 0 0.631373 0 0 0 1 0"/>
    <feBlend mode="normal" in2="effect2_innerShadow_42_1068" result="effect3_innerShadow_42_1068"/>
    </filter>
    <filter id="filter1_f_42_1068" x="11.9344" y="8.94434" width="22.1313" height="22.1312" filterUnits="userSpaceOnUse" color-interpolation-filters="sRGB">
    <feFlood flood-opacity="0" result="BackgroundImageFix"/>
    <feBlend mode="normal" in="SourceGraphic" in2="BackgroundImageFix" result="shape"/>
    <feGaussianBlur stdDeviation="0.445312" result="effect1_foregroundBlur_42_1068"/>
    </filter>
    <filter id="filter2_i_42_1068" x="13.1313" y="9.69531" width="20.2939" height="20.1828" filterUnits="userSpaceOnUse" color-interpolation-filters="sRGB">
    <feFlood flood-opacity="0" result="BackgroundImageFix"/>
    <feBlend mode="normal" in="SourceGraphic" in2="BackgroundImageFix" result="shape"/>
    <feColorMatrix in="SourceAlpha" type="matrix" values="0 0 0 0 0 0 0 0 0 0 0 0 0 0 0 0 0 0 127 0" result="hardAlpha"/>
    <feOffset dx="0.445312" dy="-0.445312"/>
    <feGaussianBlur stdDeviation="0.445312"/>
    <feComposite in2="hardAlpha" operator="arithmetic" k2="-1" k3="1"/>
    <feColorMatrix type="matrix" values="0 0 0 0 0.596078 0 0 0 0 0.521569 0 0 0 0 0.682353 0 0 0 1 0"/>
    <feBlend mode="normal" in2="shape" result="effect1_innerShadow_42_1068"/>
    </filter>
    <filter id="filter3_f_42_1068" x="15.9369" y="12.9469" width="14.1263" height="14.1263" filterUnits="userSpaceOnUse" color-interpolation-filters="sRGB">
    <feFlood flood-opacity="0" result="BackgroundImageFix"/>
    <feBlend mode="normal" in="SourceGraphic" in2="BackgroundImageFix" result="shape"/>
    <feGaussianBlur stdDeviation="0.0890625" result="effect1_foregroundBlur_42_1068"/>
    </filter>
    <filter id="filter4_f_42_1068" x="16.6482" y="13.5697" width="12.8794" height="12.8794" filterUnits="userSpaceOnUse" color-interpolation-filters="sRGB">
    <feFlood flood-opacity="0" result="BackgroundImageFix"/>
    <feBlend mode="normal" in="SourceGraphic" in2="BackgroundImageFix" result="shape"/>
    <feGaussianBlur stdDeviation="0.0890625" result="effect1_foregroundBlur_42_1068"/>
    </filter>
    <linearGradient id="paint0_linear_42_1068" x1="35.2663" y1="7.57873" x2="10.6563" y2="32.11" gradientUnits="userSpaceOnUse">
    <stop stop-color="#DED7EB"/>
    <stop offset="1" stop-color="#C1B4D6"/>
    </linearGradient>
    <linearGradient id="paint1_linear_42_1068" x1="35.2663" y1="7.57873" x2="10.6563" y2="32.11" gradientUnits="userSpaceOnUse">
    <stop stop-color="#DED7EB"/>
    <stop offset="1" stop-color="#C1B4D6"/>
    </linearGradient>
    <linearGradient id="paint2_linear_42_1068" x1="29.25" y1="11.8062" x2="19.9925" y2="29.9225" gradientUnits="userSpaceOnUse">
    <stop stop-color="#D0CCD9"/>
    <stop offset="0.837" stop-color="#A38EBE"/>
    </linearGradient>
    <radialGradient id="paint3_radial_42_1068" cx="0" cy="0" r="1" gradientUnits="userSpaceOnUse" gradientTransform="translate(14.6408 14.5312) rotate(26.764) scale(5.03119 13.9295)">
    <stop stop-color="#908B9A"/>
    <stop offset="1" stop-color="#908B9A" stop-opacity="0"/>
    </radialGradient>
    <radialGradient id="paint4_radial_42_1068" cx="0" cy="0" r="1" gradientUnits="userSpaceOnUse" gradientTransform="translate(29.2116 13.945) rotate(133.81) scale(18.6209 24.2929)">
    <stop offset="0.033" stop-color="#E5DFF0"/>
    <stop offset="1" stop-color="#9B8BAE"/>
    </radialGradient>
    <linearGradient id="paint5_linear_42_1068" x1="26.6325" y1="13.75" x2="23" y2="26.895" gradientUnits="userSpaceOnUse">
    <stop stop-color="#AEA9B7"/>
    <stop offset="1" stop-color="#9888AC"/>
    </linearGradient>
    <radialGradient id="paint6_radial_42_1068" cx="0" cy="0" r="1" gradientUnits="userSpaceOnUse" gradientTransform="translate(28.5459 15.9782) rotate(128.71) scale(13.929)">
    <stop stop-color="#E6E0F1"/>
    <stop offset="1" stop-color="#A89ABA"/>
    </radialGradient>
    <radialGradient id="paint7_radial_42_1068" cx="0" cy="0" r="1" gradientUnits="userSpaceOnUse" gradientTransform="translate(16.985 16.2112) rotate(32.5741) scale(6.675 13.4561)">
    <stop stop-color="#90899A"/>
    <stop offset="1" stop-color="#90899A" stop-opacity="0"/>
    </radialGradient>
    <radialGradient id="paint8_radial_42_1068" cx="0" cy="0" r="1" gradientUnits="userSpaceOnUse" gradientTransform="translate(27.4908 16.1715) rotate(136.338) scale(11.8252 11.7555)">
    <stop offset="0.246" stop-color="#C9BFD7"/>
    <stop offset="1" stop-color="#ADA4BB"/>
    </radialGradient>
    <radialGradient id="paint9_radial_42_1068" cx="0" cy="0" r="1" gradientUnits="userSpaceOnUse" gradientTransform="translate(18.0788 24.61) rotate(-45.5162) scale(6.13219 9.7482)">
    <stop offset="0.343" stop-color="#BCB6C4"/>
    <stop offset="1" stop-color="#BCB6C4" stop-opacity="0"/>
    </radialGradient>
    <radialGradient id="paint10_radial_42_1068" cx="0" cy="0" r="1" gradientUnits="userSpaceOnUse" gradientTransform="translate(18.975 14.57) rotate(49.259) scale(5.20719 9.24424)">
    <stop offset="0.194" stop-color="#A294B3"/>
    <stop offset="1" stop-color="#A294B3" stop-opacity="0"/>
    </radialGradient>
    <radialGradient id="paint11_radial_42_1068" cx="0" cy="0" r="1" gradientUnits="userSpaceOnUse" gradientTransform="translate(29.3769 19.3961) rotate(152.789) scale(8.5743 8.49715)">
    <stop offset="0.588" stop-color="#CCC3DA"/>
    <stop offset="1" stop-color="#A197AF"/>
    </radialGradient>
    </defs>
    </svg>
    