<svg width="256" height="171" viewBox="0 0 256 171" fill="none" xmlns="http://www.w3.org/2000/svg">
    <g clip-path="url(#clip0_5_7324)">
    <path d="M26.1086 136.519H22.3242L18.18 171H0.00363159L11.582 74.2792H58.2372L50.7994 136.519H43.8742L50.0541 171H31.8778L26.1086 136.519ZM27.5845 92.4834L24.4618 118.308H34.7932L37.916 92.4834H27.5845Z" fill="black"/>
    <path d="M78.2167 131.969L73.5817 171H55.4053L66.9873 74.2792H112.501L100.923 171H82.7462L87.403 131.969H78.2167ZM82.9861 92.4834L80.4415 113.765H89.6387L92.1834 92.4834H82.9861Z" fill="black"/>
    <path d="M150.533 92.4834L141.111 170.996H122.949L132.371 92.4834H119.088L121.244 74.2792H166.768L164.613 92.4834H150.533Z" fill="black"/>
    <path d="M211.384 74.2792L209.228 92.4834H191.517L188.962 113.761H206.673L204.517 131.969H186.748L184.25 152.792H201.962L199.806 170.996H163.929L175.511 74.2792H211.384Z" fill="black"/>
    <path d="M244.422 171H208.545L210.704 152.792H228.412L230.626 134.872L215.187 116.038L220.123 74.2792H256L253.841 92.4834H236.133L233.977 110.404L249.358 129.237L244.422 171Z" fill="black"/>
    <path d="M57.7319 17.5459C57.6591 17.5459 56.5104 7.65269 56.3977 6.75793C56.2705 5.73224 56.1469 4.70654 56.0342 3.68085L55.8379 2.11321C55.8142 1.64117 55.7349 1.17358 55.6016 0.720154C55.4124 1.05216 55.1985 1.36949 54.9618 1.66947C54.7691 2.00773 54.5982 2.3569 54.3947 2.69516C54.3292 2.80792 54.0311 3.20074 54.0311 3.32077C52.4971 6.11415 50.9884 8.91844 49.4507 11.7082C48.9398 12.7257 48.3452 13.699 47.673 14.618C46.946 15.5309 45.9572 15.3199 44.9757 15.1272C44.394 14.9635 43.7651 14.8944 43.158 14.7634C42.5509 14.6325 42.0275 14.5088 41.4604 14.4215C40.268 14.236 39.0792 14.0287 37.8941 13.7923C36.709 13.5559 35.5421 13.3049 34.3752 13.0212C33.7887 12.8806 33.2058 12.7339 32.6266 12.5811C32.3431 12.5084 32.0559 12.432 31.7723 12.352C31.6493 12.2945 31.5158 12.263 31.3802 12.2592C31.2445 12.2555 31.1095 12.2796 30.9835 12.3301C30.151 12.763 32.7757 14.8762 33.1101 15.2144C34.8066 16.9118 36.4594 18.665 38.0686 20.4739C39.1011 21.6269 40.2498 22.7689 41.1804 24.0056C42.0129 25.1222 41.4385 26.1079 40.8678 27.1882C39.5773 29.3378 38.3522 31.531 37.1053 33.7061C36.1965 35.2955 35.3095 36.8995 34.4006 38.4854C34.2873 38.6721 34.1923 38.8694 34.1171 39.0746C34.0612 39.2281 34.0425 39.3926 34.0626 39.5547C34.0626 39.6129 34.0626 39.7184 34.1316 39.7366C34.2007 39.7547 34.3425 39.6674 34.3934 39.6456C34.7351 39.5038 35.0586 39.3146 35.3931 39.1619L36.6763 38.569L39.2465 37.3869L40.148 36.9795C43.0962 35.6374 46.0481 34.2989 49.0145 33.0004C49.1654 32.9825 49.3184 32.9998 49.4616 33.0509C49.6048 33.102 49.7342 33.1856 49.8397 33.2951C52.537 36.2266 55.1981 39.1873 57.8882 42.1262C58.797 43.1192 59.7531 44.0648 60.6873 45.036L60.9382 44.8796C60.2802 39.3692 59.6258 33.8552 58.9569 28.2357C60.8073 27.872 62.5922 27.5082 64.3699 27.21C66.551 26.8511 68.7322 26.5286 70.9134 26.2425C74.1633 25.8133 77.4132 25.4168 80.6668 25.024C83.9204 24.6312 87.1231 24.1947 90.3657 23.9329C93.961 23.631 97.5673 23.4418 101.173 23.3036C107.146 23.0708 113.126 22.8126 119.103 22.769C122.883 22.7399 126.671 23.0454 130.448 23.2672C134.364 23.5 138.293 23.6673 142.183 24.1329C147.541 24.7694 152.885 25.5623 158.204 26.468C163.097 27.3021 167.966 28.272 172.81 29.3778C176.362 30.1889 179.848 31.2837 183.353 32.3385C187.075 33.4624 190.816 34.5535 194.455 35.9102C198.955 37.587 203.372 39.482 207.796 41.366C210.384 42.4572 212.962 43.6138 215.456 44.9087C218.702 46.5891 221.912 48.3495 225.038 50.2372C229.604 52.9906 234.126 55.8021 238.572 58.7628C241.332 60.6033 243.934 62.7019 246.512 64.8042C249.584 67.3066 252.561 69.9363 255.698 72.4424C255.567 72.1957 255.41 71.964 255.229 71.7513C250.729 67.4776 246.406 62.9856 241.659 59.0029C237.198 55.2565 232.331 51.9867 227.558 48.6259C224.904 46.7527 222.105 45.0978 219.316 43.4029C217.862 42.5227 216.379 41.7079 214.86 40.9696C211.192 39.1873 207.516 37.4124 203.801 35.7356C200.017 34.0298 196.221 32.3348 192.35 30.8399C188.642 29.4069 184.885 28.1205 181.081 26.9808C176.653 25.6605 172.163 24.5221 167.681 23.4018C163.511 22.3616 159.32 21.3504 155.121 20.5139C151.366 19.7646 147.571 19.1972 143.779 18.6771C139.169 18.0406 134.553 17.4586 129.921 16.9931C124.388 16.4366 118.848 15.9492 113.304 15.5782C109.647 15.3308 105.976 15.2836 102.311 15.2617C98.3198 15.2326 94.3282 15.2775 90.3367 15.3963C84.851 15.5563 79.3618 15.72 73.887 16.0619C69.8301 16.3129 65.7949 16.8621 61.7488 17.2622C60.5528 17.3822 59.3568 17.4513 57.75 17.575" fill="black"/>
    <path d="M27.8244 41.4352C27.7323 41.5245 27.6583 41.6307 27.6063 41.748C27.4682 42.0826 27.3446 42.4136 27.1919 42.7446C26.9338 43.3156 26.6684 43.8867 26.4103 44.4541L26.2358 44.8178C25.8323 45.698 25.4288 46.5782 25.018 47.4548C24.4498 48.7482 23.8165 50.0119 23.1204 51.2411C22.9587 51.4396 22.7529 51.5976 22.5193 51.7024C22.2858 51.8072 22.031 51.856 21.7753 51.8449C18.5908 51.4812 15.4136 51.0047 12.2436 50.5318C11.9092 50.4809 10.7132 50.5028 11.2912 51.1065C13.3088 53.2234 15.6208 55.1075 17.7656 57.1043C19.6378 58.8392 19.5832 59.0357 18.3691 61.4253C16.9963 64.1123 15.7682 66.8708 14.6902 69.6891C15.828 69.1071 16.9731 68.5506 18.0928 67.9396C20.1322 66.8484 22.1461 65.6699 24.1964 64.5861C24.4594 64.4151 24.7765 64.348 25.0862 64.3977C25.3958 64.4474 25.676 64.6105 25.8723 64.8552C28.1552 67.1648 30.5327 69.3835 32.8811 71.6277C33.1356 71.8714 33.43 72.0714 33.8626 72.4133C33.1719 68.336 32.5103 64.4115 31.8269 60.3705L33.1247 60.105C40.5043 58.5992 47.8694 57.0279 55.2672 55.6203C58.8188 54.9438 62.425 54.5292 66.013 54.0745C68.2269 53.7799 70.4517 53.5653 72.6765 53.3471C75.4357 53.0852 78.1948 52.7978 80.9613 52.6414C84.0622 52.4705 87.1704 52.4341 90.2785 52.3323C92.9141 52.2413 95.5497 52.0631 98.1889 52.0631C100.828 52.0631 103.525 52.1977 106.187 52.3395C111.138 52.6051 116.1 52.7942 121.04 53.2525C126.061 53.7144 131.07 54.3655 136.054 55.122C139.627 55.664 143.172 56.4569 146.702 57.2571C150.671 58.1555 154.652 59.0429 158.549 60.1996C163.199 61.5744 167.779 63.1894 172.363 64.7897C175.271 65.8082 178.149 66.9187 180.997 68.1214C183.407 69.1398 185.723 70.3474 188.246 71.264C187.624 70.8493 187.031 70.3838 186.381 70.031C184.478 69.0053 182.565 68.005 180.641 67.0303C178.438 65.9064 176.246 64.7534 173.999 63.724C171.374 62.5238 168.724 61.3598 166.03 60.3305C162.759 59.072 159.429 57.8608 156.07 56.8315C151.465 55.413 146.824 54.1048 142.147 52.9069C138.98 52.0958 135.763 51.4193 132.531 50.9283C125.777 49.8978 119.008 48.9654 112.225 48.1313C109.091 47.7494 105.914 47.7094 102.773 47.5384C100.502 47.4148 98.2277 47.3153 95.9496 47.2402C93.6303 47.1674 91.3109 47.1201 88.9916 47.0983C86.3561 47.0729 83.7205 47.0292 81.0885 47.0983C78.7147 47.1674 76.3627 47.4148 73.9779 47.5311C71.4114 47.6621 68.8376 47.6657 66.2784 47.8476C63.8937 48.0185 61.5271 48.3714 59.1496 48.6078C56.2414 48.9024 53.3041 49.1606 50.385 49.4334C50.305 49.4334 50.225 49.4625 50.1487 49.4734C47.415 49.9244 44.6958 50.3827 41.9511 50.8301L30.46 52.7033C30.4346 52.7033 29.7729 49.3207 29.7111 49.0115C29.4567 47.7748 29.2095 46.5382 28.9586 45.3015C28.9406 45.1502 28.9102 45.0006 28.8678 44.8542C28.835 44.7014 28.8059 44.545 28.7732 44.3922C28.7114 44.0831 28.646 43.7739 28.5842 43.4647C28.4533 42.8282 28.3225 42.1917 28.1989 41.5516C28.1902 41.5057 28.1743 41.4615 28.1516 41.4206C28.0571 41.297 27.9444 41.3333 27.8462 41.4206" fill="black"/>
    <path d="M179.855 48.3204L177.787 47.8148C176.769 47.5675 175.751 47.3238 174.737 47.0655C174.704 47.0496 174.667 47.0409 174.63 47.0399C174.593 47.0388 174.556 47.0456 174.522 47.0596C174.488 47.0736 174.457 47.0947 174.431 47.1214C174.406 47.1481 174.386 47.1799 174.373 47.2147C173.508 48.6453 172.638 50.0735 171.763 51.4993C171.72 51.5721 171.669 51.6412 171.578 51.7757C171.538 51.2629 171.505 50.8228 171.472 50.3863C171.374 49.0878 171.273 47.7894 171.182 46.4909C171.186 46.4493 171.181 46.4073 171.169 46.3674C171.157 46.3275 171.137 46.2904 171.11 46.2582C171.083 46.2261 171.051 46.1996 171.014 46.1802C170.977 46.1608 170.936 46.149 170.894 46.1453C169.342 45.7816 167.786 45.4179 166.234 45.0323C166.088 45.0058 165.949 44.9514 165.823 44.8723L167.008 44.374C168.208 43.8793 169.408 43.381 170.615 42.8973C170.703 42.8725 170.778 42.8152 170.826 42.737C170.874 42.6588 170.891 42.5653 170.873 42.4754C170.735 40.8532 170.607 39.2274 170.476 37.6052C170.463 37.4944 170.47 37.3822 170.498 37.2742C170.567 37.3433 170.636 37.4124 170.702 37.4888C171.76 38.7363 172.821 39.9803 173.868 41.2387C173.921 41.3171 174.002 41.3718 174.094 41.3915C174.186 41.4112 174.283 41.3942 174.363 41.3442C175.9 40.6932 177.445 40.0566 178.987 39.4128L179.208 39.3328C179.132 39.4674 179.088 39.5511 179.041 39.6274C178.176 41.035 177.311 42.4463 176.435 43.8466C176.406 43.8793 176.385 43.9175 176.371 43.9588C176.358 44.0002 176.353 44.0437 176.357 44.0869C176.361 44.1301 176.374 44.1721 176.395 44.2102C176.416 44.2483 176.444 44.2817 176.478 44.3085C177.532 45.527 178.572 46.7527 179.619 47.9748L179.87 48.2767L179.837 48.3204" fill="black"/>
    <path d="M208.52 29.6542L206.873 29.2505L204.452 28.6576C204.426 28.6469 204.398 28.6415 204.37 28.6416C204.343 28.6417 204.315 28.6473 204.289 28.6581C204.264 28.6689 204.24 28.6847 204.221 28.7046C204.201 28.7245 204.186 28.7481 204.175 28.774C203.487 29.9112 202.795 31.0485 202.1 32.1857C202.063 32.2439 202.023 32.2984 201.951 32.4039C201.918 31.9966 201.892 31.6474 201.867 31.3128C201.787 30.2798 201.707 29.2468 201.634 28.2102C201.64 28.1442 201.62 28.0784 201.578 28.0273C201.536 27.9762 201.475 27.9439 201.409 27.9374C200.171 27.6464 198.933 27.3506 197.697 27.0499C197.581 27.0301 197.47 26.9868 197.37 26.9226L198.312 26.5262C199.268 26.1334 200.224 25.7333 201.184 25.3514C201.219 25.3428 201.253 25.3273 201.283 25.3057C201.313 25.284 201.338 25.2567 201.357 25.2253C201.377 25.1939 201.39 25.1589 201.395 25.1225C201.401 25.0861 201.399 25.0489 201.391 25.0131C201.278 23.7219 201.176 22.4307 201.075 21.1358C201.056 21.0496 201.056 20.9602 201.075 20.874C201.129 20.9285 201.184 20.9831 201.235 21.0449C202.078 22.0379 202.921 23.0272 203.754 24.0274C203.773 24.0599 203.799 24.0881 203.83 24.1102C203.861 24.1323 203.896 24.148 203.933 24.1561C203.97 24.1643 204.009 24.1648 204.046 24.1577C204.083 24.1506 204.119 24.136 204.15 24.1147C205.375 23.5982 206.604 23.089 207.833 22.5762L208.007 22.5143C207.945 22.6198 207.913 22.6853 207.876 22.7471C207.185 23.8674 206.498 24.9913 205.797 26.1079C205.775 26.1342 205.759 26.1644 205.749 26.1969C205.74 26.2294 205.736 26.2635 205.74 26.2973C205.743 26.3311 205.753 26.3639 205.769 26.3938C205.785 26.4237 205.807 26.4502 205.833 26.4716C206.673 27.4391 207.502 28.4139 208.334 29.3814L208.534 29.6215L208.509 29.6578" fill="black"/>
    <path d="M144.8 12.5702L143.154 12.1665C142.347 11.9701 141.536 11.7737 140.729 11.57C140.676 11.5493 140.618 11.5499 140.565 11.5716C140.513 11.5933 140.471 11.6344 140.449 11.6864C139.761 12.8285 139.069 13.9657 138.373 15.0981C138.337 15.1563 138.297 15.2108 138.228 15.3199C138.195 14.9126 138.166 14.5634 138.141 14.2288C138.064 13.1922 137.981 12.1592 137.912 11.1262C137.918 11.0592 137.897 10.9926 137.854 10.9408C137.811 10.889 137.749 10.8563 137.683 10.8498C136.443 10.5625 135.207 10.2606 133.971 9.96597C133.855 9.94386 133.744 9.90072 133.644 9.83867L134.585 9.44221C135.545 9.04939 136.497 8.6493 137.461 8.26375C137.496 8.25567 137.53 8.24051 137.56 8.21918C137.589 8.19784 137.614 8.17077 137.633 8.13956C137.652 8.10835 137.665 8.07363 137.67 8.03749C137.676 8.00134 137.674 7.96449 137.664 7.92913C137.552 6.63792 137.454 5.34307 137.348 4.05186C137.337 3.96422 137.343 3.87521 137.366 3.78998C137.421 3.84454 137.475 3.89909 137.526 3.96093C138.37 4.95389 139.217 5.94321 140.049 6.94344C140.069 6.97606 140.095 7.00428 140.126 7.02636C140.157 7.04843 140.192 7.06388 140.229 7.07173C140.266 7.07958 140.305 7.07967 140.342 7.07199C140.379 7.06431 140.414 7.04903 140.445 7.0271C141.667 6.51062 142.896 6.00504 144.124 5.4922L144.302 5.42672C144.237 5.53584 144.204 5.60131 144.168 5.65951C143.477 6.78341 142.79 7.90731 142.092 9.02029C142.07 9.04635 142.054 9.07655 142.044 9.10911C142.033 9.14167 142.03 9.17593 142.033 9.20985C142.037 9.24377 142.047 9.27667 142.063 9.30658C142.08 9.3365 142.102 9.36283 142.128 9.38402C142.965 10.3552 143.793 11.3299 144.63 12.2938L144.826 12.5375L144.8 12.5739" fill="black"/>
    <path d="M68.9612 5.36492C69.0799 6.29938 69.4728 7.17769 70.0901 7.88885C70.7075 8.60002 71.5217 9.11213 72.4299 9.36049C73.3381 9.60884 74.2994 9.5823 75.1925 9.2842C76.0856 8.98611 76.8703 8.42984 77.4476 7.68568C78.0248 6.94153 78.3686 6.04289 78.4356 5.1033C78.5026 4.16371 78.2897 3.22533 77.8239 2.40675C77.3581 1.58816 76.6602 0.92609 75.8184 0.504195C74.9766 0.0823 74.0287 -0.0804844 73.0945 0.0364009C72.473 0.113682 71.8729 0.312961 71.3285 0.622814C70.7841 0.932667 70.3062 1.34699 69.9222 1.84204C69.5382 2.33708 69.2556 2.9031 69.0907 3.50764C68.9258 4.11217 68.8818 4.74333 68.9612 5.36492Z" fill="black"/>
    <path d="M122.8 35.7283C122.944 36.488 123.31 37.1878 123.852 37.7395C124.393 38.2912 125.086 38.67 125.843 38.8281C126.599 38.9863 127.385 38.9166 128.102 38.628C128.819 38.3394 129.435 37.8447 129.871 37.2064C130.307 36.5682 130.545 35.8149 130.554 35.0417C130.563 34.2684 130.342 33.51 129.921 32.8619C129.499 32.2139 128.895 31.7054 128.185 31.4005C127.474 31.0957 126.69 31.0082 125.93 31.1491C125.424 31.2438 124.942 31.4376 124.511 31.7192C124.08 32.0009 123.709 32.3649 123.419 32.7904C123.13 33.2159 122.927 33.6944 122.822 34.1986C122.718 34.7028 122.714 35.2226 122.811 35.7283" fill="black"/>
    <path d="M231.778 66.15C231.844 66.4969 232.011 66.8166 232.258 67.0685C232.505 67.3205 232.821 67.4935 233.167 67.5657C233.512 67.6379 233.871 67.6061 234.199 67.4742C234.526 67.3423 234.807 67.1163 235.006 66.8248C235.205 66.5332 235.313 66.1892 235.317 65.8361C235.32 65.4831 235.219 65.1369 235.026 64.8413C234.833 64.5457 234.557 64.3139 234.233 64.1752C233.908 64.0366 233.55 63.9973 233.203 64.0623C232.738 64.1505 232.326 64.4199 232.059 64.8113C231.792 65.2027 231.691 65.6842 231.778 66.15Z" fill="black"/>
    <path d="M213.74 51.8849L212.955 51.7467L211.802 51.5357C211.777 51.5284 211.75 51.5307 211.727 51.5421C211.703 51.5535 211.685 51.5733 211.675 51.5975C211.388 52.154 211.093 52.7069 210.803 53.2561L210.741 53.3652C210.712 53.1761 210.69 53.0015 210.668 52.8487C210.603 52.3686 210.534 51.8849 210.472 51.3938C210.472 51.3623 210.46 51.3319 210.438 51.3089C210.417 51.2859 210.387 51.272 210.355 51.2702C209.766 51.172 209.181 51.0665 208.592 50.9647C208.543 50.9578 208.495 50.9431 208.451 50.921L208.879 50.7101C209.316 50.4955 209.752 50.2809 210.192 50.0735C210.208 50.0686 210.224 50.0604 210.237 50.0494C210.25 50.0384 210.261 50.0248 210.269 50.0095C210.276 49.9943 210.281 49.9775 210.282 49.9604C210.283 49.9433 210.281 49.9261 210.275 49.9099C210.188 49.3097 210.105 48.7059 210.017 48.0913C210.008 48.0505 210.008 48.0083 210.017 47.9676C210.043 47.9931 210.072 48.0149 210.097 48.044C210.523 48.4841 210.944 48.9205 211.362 49.3643C211.373 49.3791 211.386 49.3917 211.401 49.4013C211.416 49.4108 211.433 49.4172 211.451 49.4199C211.468 49.4226 211.486 49.4217 211.504 49.4171C211.521 49.4126 211.537 49.4045 211.551 49.3934L213.231 48.5677L213.311 48.5314L213.256 48.6441C212.966 49.1897 212.674 49.7353 212.38 50.2809C212.362 50.3075 212.354 50.3403 212.36 50.3723C212.365 50.4043 212.383 50.4328 212.409 50.4518L213.664 51.743L213.765 51.8485" fill="black"/>
    </g>
    <defs>
    <clipPath id="clip0_5_7324">
    <rect width="256" height="171" fill="white"/>
    </clipPath>
    </defs>
    </svg>
    