<svg width="263" height="175" viewBox="0 0 263 175" fill="none" xmlns="http://www.w3.org/2000/svg">
    <g clip-path="url(#clip0_5_7339)">
    <path d="M26.8255 139.716H22.918L18.6584 175H0L11.8966 76.0132H59.8317L52.2056 139.713H45.0771L51.443 175H32.7701L26.8255 139.716ZM28.3398 94.6503L25.1332 121.083H35.7443L38.9545 94.6503H28.3398Z" fill="white"/>
    <path d="M80.3566 135.057L75.574 175H56.9156L68.8122 76.0132H115.578L103.681 175H85.023L89.8056 135.057H80.3566ZM85.2554 94.6503L82.6299 116.427H92.0716L94.6935 94.6503H85.2554Z" fill="white"/>
    <path d="M154.649 94.6466L144.971 174.996H126.309L135.99 94.6466H122.343L124.559 76.0168H171.328L169.113 94.6466H154.649Z" fill="white"/>
    <path d="M217.164 76.0168L214.949 94.6466H196.755L194.13 116.424H212.323L210.108 135.057H191.856L189.289 156.367H207.482L205.267 174.996H168.412L180.308 76.0168H217.164Z" fill="white"/>
    <path d="M251.103 175H214.248L216.463 156.367H234.657L236.934 138.027L221.071 118.752L226.144 76.0168H263L260.781 94.6466H242.588L240.372 112.986L256.177 132.262L251.103 175Z" fill="white"/>
    <path d="M59.3124 17.959C59.2361 17.959 58.0559 7.83193 57.9397 6.91821C57.8089 5.8667 57.6818 4.81881 57.5511 3.76731C57.4857 3.2343 57.4167 2.69767 57.3514 2.16466C57.3253 1.68193 57.2436 1.20379 57.1081 0.739685C56.9142 1.07874 56.6944 1.4024 56.4508 1.7078C56.251 2.07039 56.0658 2.43298 55.8661 2.75931C55.8007 2.87534 55.4812 3.27781 55.503 3.40109C53.9269 6.2583 52.3763 9.13 50.7821 11.9836C50.2591 13.0248 49.6519 14.0216 48.9664 14.9641C48.2401 15.8959 47.2051 15.6892 46.1956 15.4826C45.6 15.3121 44.9536 15.2432 44.3435 15.12C43.7335 14.9967 43.1815 14.8589 42.5968 14.7574C41.3718 14.5688 40.1516 14.3549 38.9363 14.1156C37.721 13.8763 36.5105 13.6128 35.3049 13.3251C34.7057 13.1801 34.1065 13.0315 33.5073 12.8719C33.2168 12.7994 32.9227 12.7196 32.6321 12.6399C32.5059 12.5808 32.3688 12.5484 32.2295 12.5447C32.0902 12.5409 31.9515 12.5659 31.8223 12.6181C30.9653 13.0605 33.6598 15.2179 34.0012 15.566C35.7394 17.3209 37.4341 19.1157 39.0852 20.9504C40.1492 22.1288 41.3331 23.3 42.2809 24.5763C43.1379 25.7185 42.5496 26.7301 41.9613 27.8396C40.6358 30.0405 39.3757 32.2849 38.0975 34.5112C37.1642 36.1393 36.2491 37.7745 35.3158 39.4026C35.2008 39.5952 35.1036 39.7979 35.0253 40.0081C34.9699 40.165 34.95 40.3321 34.9672 40.4976C34.9672 40.5556 34.9671 40.6644 35.0398 40.6825C35.1124 40.7006 35.2577 40.61 35.3085 40.5882C35.6717 40.4468 35.9912 40.251 36.3362 40.0951L37.6581 39.486L40.2945 38.2785L41.2205 37.8579C44.2491 36.4873 47.2814 35.1168 50.3282 33.7897C50.4835 33.7709 50.641 33.7884 50.7884 33.8406C50.9358 33.8928 51.0692 33.9784 51.1779 34.0906C53.9487 37.0892 56.6832 40.1205 59.4467 43.1263C60.38 44.1416 61.3641 45.1133 62.3228 46.1032L62.5807 45.94C61.9052 40.3018 61.2297 34.6599 60.5434 28.8984C62.4463 28.5358 64.2693 28.1514 66.1068 27.8468C68.3365 27.477 70.5734 27.147 72.8177 26.857C76.155 26.4182 79.4959 26.0121 82.8368 25.6133C86.1778 25.2145 89.4715 24.7648 92.8015 24.4857C96.4947 24.1775 100.199 23.9816 103.903 23.8402C110.04 23.6009 116.181 23.3362 122.322 23.2927C126.207 23.2637 130.096 23.5756 133.982 23.804C138.002 24.0433 142.037 24.2137 146.035 24.6851C151.54 25.3377 157.027 26.1354 162.493 27.0782C167.518 27.9315 172.521 28.9213 177.501 30.0478C181.133 30.8781 184.731 31.9985 188.316 33.079C192.14 34.2284 195.982 35.3452 199.722 36.7303C204.341 38.449 208.884 40.3888 213.427 42.3105C216.085 43.4345 218.733 44.6093 221.296 45.9364C224.63 47.6551 227.928 49.4535 231.141 51.3752C235.83 54.1962 240.492 57.0715 245.042 60.1028C247.879 61.9882 250.551 64.1348 253.199 66.2849C256.358 68.8448 259.416 71.5352 262.64 74.0878C262.505 73.836 262.343 73.599 262.157 73.3808C257.535 69.0043 253.079 64.4103 248.216 60.3276C243.633 56.495 238.633 53.1447 233.731 49.7037C231 47.7892 228.113 46.096 225.262 44.3628C223.777 43.4636 222.244 42.626 220.683 41.8718C216.913 40.0588 213.14 38.2278 209.32 36.5127C205.434 34.7687 201.534 33.0355 197.561 31.5054C193.752 30.0369 189.874 28.7171 185.963 27.5568C181.412 26.2043 176.804 25.0368 172.196 23.891C167.914 22.8286 163.618 21.7952 159.293 20.9359C155.437 20.1672 151.536 19.5907 147.644 19.0541C142.923 18.405 138.162 17.8104 133.405 17.3318C127.721 16.7625 122.031 16.2658 116.337 15.8814C112.578 15.6312 108.809 15.5805 105.043 15.5551C100.942 15.5285 96.8409 15.5744 92.7398 15.6929C87.1038 15.8597 81.4823 16.0264 75.839 16.3745C71.6738 16.6356 67.5267 17.194 63.3723 17.6037C62.1449 17.727 60.9138 17.7995 59.2797 17.9264" fill="white"/>
    <path d="M28.5867 42.4084C28.4905 42.4982 28.4139 42.6068 28.3616 42.7275C28.2199 43.0683 28.0928 43.4091 27.9367 43.7464L27.1305 45.4977C27.0724 45.6282 27.0143 45.7551 26.9526 45.882C26.5386 46.7848 26.1246 47.6949 25.7034 48.5797C25.1187 49.8999 24.4679 51.19 23.7533 52.4449C23.5869 52.6476 23.3756 52.8091 23.1362 52.9167C22.8968 53.0243 22.6357 53.075 22.3733 53.0649C19.105 52.6733 15.8367 52.2019 12.5684 51.7197C12.2053 51.6689 10.9924 51.6871 11.5879 52.3071C13.6651 54.4826 16.0365 56.4043 18.2407 58.4421C20.1654 60.2224 20.1218 60.4218 18.8617 62.8693C17.4517 65.6142 16.1886 68.4318 15.0778 71.3104C16.2471 70.7157 17.4237 70.1428 18.5748 69.5192C20.6702 68.3879 22.7365 67.1986 24.8427 66.0891C25.113 65.9133 25.4389 65.8439 25.7575 65.8941C26.0761 65.9443 26.3648 66.1107 26.5676 66.361C28.9136 68.7251 31.3539 70.9949 33.7652 73.2937C34.0266 73.5439 34.3317 73.747 34.7711 74.0987C34.0629 69.9253 33.3839 65.9187 32.683 61.7707L34.0194 61.4987C41.5982 59.9613 49.1661 58.3514 56.7631 56.912C60.4127 56.2194 64.1168 55.8242 67.8027 55.3275C70.0796 55.0301 72.3638 54.809 74.6516 54.6023C77.4841 54.3376 80.3203 54.0403 83.1601 53.8771C86.3485 53.6994 89.5405 53.6632 92.7325 53.558C95.4416 53.4674 98.1507 53.2824 100.86 53.2824C103.569 53.2824 106.343 53.4202 109.081 53.5653C114.165 53.8372 119.249 54.033 124.333 54.5008C129.486 54.9721 134.636 55.6393 139.756 56.4116C143.427 56.97 147.07 57.7786 150.698 58.5871C154.772 59.5045 158.861 60.4001 162.87 61.5966C167.642 63.0071 172.348 64.6569 177.051 66.3103C180.04 67.3509 183.003 68.4858 185.919 69.7222C188.396 70.7629 190.792 71.9993 193.367 72.9384C192.732 72.5142 192.121 72.0356 191.45 71.6766C189.5 70.6251 187.531 69.6062 185.556 68.6018C183.29 67.4524 181.038 66.274 178.729 65.2225C176.034 63.9897 173.314 62.8004 170.543 61.7453C167.166 60.4581 163.764 59.2071 160.31 58.1629C155.575 56.7125 150.808 55.3746 146.009 54.149C142.741 53.3187 139.447 52.6298 136.128 52.1258C129.19 51.0719 122.237 50.117 115.269 49.2613C112.088 48.8734 108.82 48.819 105.552 48.6594C103.218 48.5313 100.88 48.4298 98.5392 48.3549C96.157 48.2775 93.7748 48.2292 91.3925 48.2098C88.6835 48.1844 85.9744 48.1409 83.2726 48.2098C80.8359 48.2823 78.4029 48.5325 75.9662 48.6522C73.3334 48.7863 70.6897 48.79 68.0569 48.9749C65.6093 49.1489 63.1762 49.5115 60.7323 49.7545C57.7327 50.0554 54.7295 50.3201 51.7299 50.5993C51.65 50.5993 51.5665 50.6283 51.4866 50.6392L43.0907 52.0351C39.1688 52.6769 35.2468 53.3115 31.2849 53.9532C31.2595 53.9532 30.5804 50.4905 30.515 50.1751L29.7415 46.3751C29.7271 46.2204 29.6979 46.0674 29.6544 45.9183L29.5563 45.4433C29.4946 45.1278 29.4292 44.8124 29.3639 44.4969C29.2295 43.8442 29.0915 43.1916 28.9644 42.5353C28.9598 42.4886 28.9435 42.4437 28.9172 42.4048C28.8228 42.2779 28.7066 42.3141 28.6049 42.4048" fill="white"/>
    <path d="M184.775 49.4535L182.651 48.935C181.605 48.6812 180.559 48.431 179.517 48.17C179.483 48.1552 179.447 48.1474 179.41 48.1469C179.374 48.1464 179.337 48.1533 179.304 48.1672C179.27 48.1811 179.239 48.2016 179.213 48.2277C179.187 48.2537 179.167 48.2846 179.154 48.3186C178.263 49.7835 177.369 51.2459 176.474 52.706L176.281 52.9888C176.241 52.463 176.205 52.0134 176.172 51.5674C176.07 50.2367 175.965 48.9097 175.874 47.579C175.88 47.5357 175.877 47.4918 175.865 47.4498C175.853 47.4079 175.832 47.3688 175.805 47.3349C175.777 47.301 175.743 47.273 175.705 47.2527C175.666 47.2323 175.624 47.2199 175.58 47.2164C173.982 46.8538 172.388 46.4586 170.794 46.0778C170.643 46.0494 170.499 45.9928 170.369 45.9111L171.586 45.4034C172.82 44.8994 174.055 44.3846 175.293 43.8914C175.385 43.8682 175.464 43.8101 175.514 43.7295C175.563 43.6489 175.579 43.5522 175.558 43.46C175.413 41.7993 175.282 40.135 175.148 38.4744C175.134 38.3614 175.143 38.2468 175.174 38.1371C175.243 38.2097 175.315 38.2786 175.381 38.3547C176.47 39.631 177.559 40.8928 178.649 42.1945C178.675 42.2355 178.708 42.2708 178.748 42.2985C178.788 42.3263 178.833 42.3458 178.88 42.3559C178.927 42.366 178.976 42.3666 179.024 42.3576C179.072 42.3485 179.117 42.3301 179.157 42.3033C180.737 41.6361 182.324 40.9835 183.907 40.3272L184.136 40.2438L183.965 40.5447C183.072 41.9951 182.186 43.4454 181.285 44.8632C181.256 44.8968 181.234 44.936 181.22 44.9784C181.206 45.0208 181.201 45.0656 181.205 45.11C181.209 45.1544 181.223 45.1975 181.244 45.2367C181.265 45.2759 181.294 45.3104 181.329 45.3382C182.418 46.5818 183.482 47.8364 184.557 49.0873L184.815 49.3955L184.782 49.4427" fill="white"/>
    <path d="M214.222 30.3487L212.53 29.939L210.035 29.3298C210.009 29.3187 209.981 29.3129 209.952 29.3129C209.923 29.3129 209.895 29.3187 209.868 29.3298C209.842 29.341 209.818 29.3573 209.798 29.3779C209.778 29.3984 209.763 29.4228 209.752 29.4495C209.026 30.6134 208.329 31.7773 207.617 32.9412C207.581 32.9992 207.541 33.0536 207.468 33.1624C207.432 32.7454 207.406 32.3901 207.377 32.0347C207.297 30.9724 207.214 29.9172 207.141 28.8548C207.147 28.7871 207.126 28.7197 207.083 28.6674C207.039 28.6151 206.977 28.5821 206.909 28.5757C205.634 28.2783 204.367 27.9738 203.096 27.6692C202.976 27.6476 202.861 27.6033 202.758 27.5386L203.728 27.1362C204.712 26.7301 205.692 26.324 206.68 25.9287C206.716 25.9207 206.751 25.9054 206.781 25.8837C206.811 25.862 206.837 25.8344 206.856 25.8025C206.876 25.7707 206.888 25.7352 206.894 25.6983C206.899 25.6615 206.897 25.6239 206.887 25.5879C206.774 24.2645 206.669 22.941 206.564 21.6176C206.553 21.5278 206.559 21.4368 206.582 21.3492C206.64 21.4073 206.698 21.4616 206.749 21.5233C207.613 22.5385 208.481 23.5538 209.338 24.5763C209.358 24.6098 209.385 24.6389 209.416 24.6617C209.448 24.6845 209.484 24.7004 209.522 24.7086C209.561 24.7168 209.6 24.717 209.638 24.7092C209.677 24.7014 209.713 24.6858 209.745 24.6633C211.001 24.1339 212.265 23.6154 213.525 23.0933L213.707 23.0244C213.641 23.1368 213.609 23.2021 213.569 23.2637C212.843 24.4131 212.156 25.5625 211.437 26.7047C211.396 26.7583 211.376 26.8257 211.383 26.8932C211.39 26.9607 211.422 27.023 211.473 27.0673C212.334 28.0571 213.188 29.0543 214.045 30.0514L214.248 30.2979L214.222 30.3342" fill="white"/>
    <path d="M148.766 12.8647L147.073 12.4513C146.242 12.2519 145.41 12.0525 144.579 11.8422C144.525 11.8216 144.466 11.8226 144.413 11.8449C144.36 11.8672 144.318 11.9092 144.295 11.9618C143.588 13.1294 142.877 14.2933 142.16 15.4536C142.124 15.5152 142.084 15.5696 142.011 15.6784C141.979 15.2614 141.949 14.9061 141.92 14.5471C141.841 13.4883 141.762 12.4296 141.684 11.3708C141.69 11.3031 141.669 11.2357 141.626 11.1834C141.582 11.131 141.52 11.0981 141.452 11.0916C140.177 10.7943 138.91 10.4897 137.639 10.1851C137.52 10.1641 137.407 10.1197 137.305 10.0546L138.271 9.64852C139.255 9.24605 140.235 8.83994 141.223 8.44472C141.262 8.43597 141.298 8.41942 141.329 8.3961C141.361 8.37278 141.388 8.34319 141.408 8.30918C141.427 8.27516 141.44 8.23745 141.444 8.19839C141.449 8.15933 141.445 8.11975 141.434 8.08213C141.318 6.76231 141.216 5.43886 141.107 4.11541C141.102 4.02834 141.113 3.94112 141.14 3.85797C141.194 3.91236 141.252 3.97037 141.303 4.03201C142.167 5.04726 143.039 6.06251 143.892 7.08501C143.912 7.11856 143.939 7.14764 143.971 7.17041C144.002 7.19318 144.038 7.20915 144.077 7.21733C144.115 7.2255 144.154 7.2257 144.193 7.2179C144.231 7.21011 144.267 7.19449 144.299 7.17203C145.556 6.64265 146.819 6.12415 148.079 5.60202L148.261 5.53313C148.199 5.64553 148.163 5.7108 148.123 5.77244C147.397 6.92185 146.71 8.07126 145.991 9.21341C145.949 9.26665 145.929 9.33435 145.936 9.40208C145.942 9.46981 145.975 9.53222 146.028 9.576C146.888 10.5695 147.742 11.5666 148.599 12.5637C148.668 12.6435 148.733 12.7269 148.802 12.8103L148.777 12.8466" fill="white"/>
    <path d="M70.8458 5.48961C70.9633 6.44902 71.3631 7.35206 71.9949 8.08443C72.6266 8.81679 73.4618 9.34554 74.3946 9.60373C75.3275 9.86192 76.3161 9.83795 77.2353 9.53484C78.1545 9.23173 78.9629 8.66312 79.5583 7.901C80.1536 7.13887 80.5091 6.21751 80.5798 5.25354C80.6504 4.28957 80.433 3.32634 79.9551 2.48581C79.4772 1.64528 78.7602 0.965231 77.895 0.531764C77.0298 0.0982975 76.0552 -0.0690992 75.0946 0.0507704C73.8096 0.211129 72.6407 0.873724 71.8443 1.89328C71.0478 2.91283 70.6887 4.20613 70.8458 5.48961Z" fill="white"/>
    <path d="M126.156 36.5671C126.304 37.3472 126.679 38.0661 127.236 38.633C127.792 39.1999 128.505 39.5894 129.283 39.752C130.061 39.9147 130.87 39.8434 131.608 39.547C132.345 39.2506 132.978 38.7425 133.426 38.087C133.875 37.4315 134.118 36.6579 134.127 35.8641C134.135 35.0703 133.907 34.292 133.472 33.6275C133.037 32.963 132.414 32.4422 131.683 32.1309C130.952 31.8197 130.144 31.7319 129.363 31.8788C128.844 31.9764 128.349 32.175 127.907 32.4634C127.465 32.7519 127.085 33.1244 126.787 33.5598C126.489 33.9951 126.28 34.4848 126.172 35.0008C126.064 35.5168 126.059 36.049 126.156 36.5671Z" fill="white"/>
    <path d="M238.099 67.699C238.167 68.0551 238.339 68.3831 238.594 68.6415C238.848 68.8998 239.174 69.077 239.529 69.1504C239.885 69.2239 240.254 69.1903 240.59 69.054C240.927 68.9177 241.215 68.6848 241.419 68.3848C241.622 68.0848 241.732 67.7312 241.735 67.3688C241.737 67.0063 241.631 66.6514 241.432 66.3488C241.232 66.0463 240.946 65.8098 240.612 65.6694C240.277 65.5289 239.908 65.4907 239.552 65.5597C239.075 65.6519 238.655 65.9288 238.383 66.3298C238.111 66.7308 238.009 67.2231 238.099 67.699Z" fill="white"/>
    <path d="M219.579 53.1012L218.776 52.9561C218.38 52.8873 217.985 52.8184 217.589 52.7422C217.563 52.7342 217.536 52.7366 217.512 52.7488C217.488 52.761 217.47 52.7821 217.462 52.8075L216.565 54.5044C216.545 54.5418 216.523 54.5781 216.499 54.6132C216.47 54.421 216.449 54.2506 216.427 54.0874C216.358 53.5943 216.289 53.1012 216.223 52.6081C216.223 52.5283 216.183 52.4957 216.104 52.4848L214.288 52.1693C214.232 52.1614 214.178 52.1443 214.128 52.1186L214.571 51.901C215.018 51.6835 215.464 51.4623 215.918 51.252C215.951 51.2404 215.979 51.2167 215.995 51.1857C216.011 51.1548 216.015 51.1188 216.006 51.0852C215.915 50.4688 215.828 49.8524 215.737 49.236C215.728 49.1942 215.728 49.1509 215.737 49.1091L215.82 49.1852C216.256 49.6385 216.692 50.0844 217.12 50.5413C217.131 50.5563 217.145 50.569 217.161 50.5786C217.176 50.5882 217.194 50.5946 217.212 50.5973C217.231 50.6 217.249 50.599 217.267 50.5943C217.285 50.5897 217.302 50.5815 217.316 50.5703C217.887 50.2839 218.464 50.0047 219.038 49.7255L219.121 49.6856C219.105 49.7257 219.086 49.7645 219.063 49.8016C218.765 50.36 218.468 50.922 218.166 51.4768C218.156 51.4898 218.149 51.5049 218.144 51.521C218.14 51.5371 218.14 51.5538 218.142 51.5702C218.145 51.5866 218.151 51.6022 218.16 51.6161C218.169 51.6299 218.181 51.6418 218.195 51.6508C218.627 52.0896 219.052 52.5319 219.484 52.9743C219.52 53.0088 219.554 53.0451 219.586 53.0831V53.1012" fill="white"/>
    </g>
    <defs>
    <clipPath id="clip0_5_7339">
    <rect width="263" height="175" fill="white"/>
    </clipPath>
    </defs>
    </svg>
    