<svg width="3" height="3" viewBox="0 0 3 3" fill="none" xmlns="http://www.w3.org/2000/svg">
<path d="M0.688457 1.94052C0.731469 2.16637 0.840713 2.37442 1.00237 2.5383C1.16402 2.70219 1.37081 2.81454 1.59653 2.86112C1.82225 2.90771 2.05676 2.88643 2.27034 2.79998C2.48393 2.71354 2.66698 2.56582 2.79633 2.37553C2.92568 2.18525 2.9955 1.96095 2.99694 1.73106C2.99839 1.50117 2.93139 1.27602 2.80444 1.08413C2.67749 0.89224 2.4963 0.742247 2.28381 0.653145C2.07133 0.564042 1.8371 0.539842 1.61082 0.583604C1.30838 0.642093 1.04151 0.817728 0.868634 1.07205C0.695759 1.32637 0.630971 1.63865 0.688457 1.94052Z" fill="white"/>
</svg>
