<svg width="6" height="6" viewBox="0 0 6 6" fill="none" xmlns="http://www.w3.org/2000/svg">
<path d="M0.606884 3.19399C0.700424 3.68878 0.93897 4.1448 1.29235 4.50438C1.64573 4.86397 2.09807 5.11097 2.59219 5.21416C3.08631 5.31735 3.6 5.27208 4.06833 5.0841C4.53666 4.89611 4.93859 4.57385 5.22329 4.15804C5.508 3.74224 5.66269 3.25158 5.66781 2.74809C5.67293 2.24461 5.52826 1.75091 5.25208 1.32943C4.97589 0.907956 4.58061 0.577617 4.1162 0.380192C3.65179 0.182766 3.13911 0.127121 2.64299 0.220287C2.31351 0.282161 1.99947 0.408168 1.71882 0.591107C1.43817 0.774046 1.19641 1.01034 1.00733 1.28648C0.818257 1.56263 0.685572 1.87321 0.616862 2.2005C0.548153 2.5278 0.544761 2.86539 0.606884 3.19399Z" fill="white"/>
</svg>
