<svg width="7" height="7" viewBox="0 0 7 7" fill="none" xmlns="http://www.w3.org/2000/svg">
<path d="M0.485748 3.48197C0.560312 4.09051 0.81423 4.6633 1.21536 5.12783C1.6165 5.59236 2.14681 5.92774 2.73915 6.0915C3.33149 6.25527 3.95924 6.24006 4.54291 6.04781C5.12658 5.85555 5.63993 5.49489 6.01797 5.01148C6.39602 4.52808 6.62177 3.94367 6.66662 3.33224C6.71147 2.7208 6.57343 2.10984 6.26996 1.57671C5.96648 1.04357 5.51123 0.612225 4.96183 0.337284C4.41243 0.0623419 3.79358 -0.0438355 3.18365 0.0321961C2.3677 0.133909 1.62547 0.554184 1.11973 1.20087C0.613987 1.84756 0.385998 2.66788 0.485748 3.48197Z" fill="white"/>
</svg>
