<svg width="148" height="47" viewBox="0 0 148 47" fill="none" xmlns="http://www.w3.org/2000/svg">
<path d="M18.1622 11.3912C18.1138 11.3912 17.3644 4.96768 17.2906 4.38812C17.2076 3.72116 17.1269 3.0565 17.0439 2.38955C17.0024 2.05147 16.9585 1.71109 16.917 1.37301C16.9005 1.06682 16.8486 0.763542 16.7625 0.46917C16.6394 0.684226 16.4999 0.889522 16.3452 1.08323C16.2183 1.31322 16.1007 1.5432 15.9739 1.75019C15.9324 1.82378 15.7295 2.07907 15.7433 2.15726C14.7426 3.96955 13.758 5.79103 12.7457 7.60101C12.4136 8.26142 12.028 8.89368 11.5927 9.49149C11.1315 10.0825 10.4744 9.95146 9.83332 9.82036C9.45515 9.71227 9.0447 9.66857 8.65731 9.59038C8.26992 9.51218 7.91943 9.42479 7.54818 9.36039C6.77032 9.2408 5.99554 9.10511 5.22383 8.95332C4.45212 8.80153 3.68349 8.63441 2.91793 8.45195C2.53746 8.35996 2.15698 8.26566 1.77651 8.16447C1.59204 8.11847 1.40527 8.06788 1.22079 8.01728C1.14065 7.97983 1.0536 7.95927 0.965125 7.95689C0.876646 7.95452 0.78863 7.97038 0.706577 8.00348C0.162385 8.28407 1.87336 9.65248 2.09012 9.87326C3.19387 10.9864 4.26996 12.1248 5.31837 13.2885C5.994 14.036 6.74572 14.7788 7.34756 15.5884C7.89175 16.3128 7.5182 16.9545 7.14465 17.6583C6.30299 19.0543 5.50284 20.4779 4.69117 21.89C4.09855 22.9226 3.51746 23.9598 2.92485 24.9925C2.85187 25.1147 2.79013 25.2432 2.74038 25.3766C2.7052 25.4761 2.6926 25.5821 2.70349 25.687C2.70349 25.7238 2.70348 25.7928 2.7496 25.8043C2.79572 25.8158 2.88796 25.7583 2.92024 25.7445C3.15083 25.6548 3.35375 25.5306 3.57281 25.4318L4.41216 25.0454L6.08623 24.2795L6.67424 24.0127C8.59736 23.1434 10.5228 22.2741 12.4574 21.4323C12.556 21.4204 12.6561 21.4315 12.7497 21.4646C12.8433 21.4977 12.9279 21.552 12.997 21.6232C14.7564 23.5252 16.4928 25.4478 18.2475 27.3544C18.8402 27.9984 19.465 28.6147 20.0738 29.2426L20.2375 29.1391C19.8086 25.5628 19.3797 21.9843 18.9439 18.3298C20.1522 18.0998 21.3098 17.856 22.4766 17.6629C23.8924 17.4283 25.3128 17.219 26.7378 17.035C28.857 16.7567 30.9784 16.4991 33.0998 16.2461C35.2212 15.9932 37.3127 15.708 39.4272 15.5309C41.7723 15.3354 44.1243 15.2112 46.4763 15.1215C50.3733 14.9697 54.2726 14.8018 58.1718 14.7742C60.6392 14.7558 63.1088 14.9536 65.5761 15.0985C68.1287 15.2503 70.6906 15.3584 73.2294 15.6574C76.7251 16.0714 80.2093 16.5773 83.6797 17.1753C86.871 17.7165 90.0478 18.3444 93.21 19.0589C95.5159 19.5855 97.801 20.2962 100.077 20.9815C102.505 21.7106 104.945 22.4189 107.32 23.2975C110.253 24.3876 113.138 25.618 116.022 26.837C117.71 27.5499 119.391 28.2951 121.019 29.1368C123.136 30.2269 125.23 31.3677 127.27 32.5866C130.247 34.3759 133.208 36.1997 136.097 38.1223C137.898 39.3183 139.595 40.6798 141.276 42.0436C143.283 43.6673 145.224 45.3738 147.272 46.9929C147.185 46.8331 147.083 46.6828 146.965 46.5444C144.03 43.7685 141.2 40.8545 138.113 38.2649C135.203 35.834 132.027 33.7089 128.914 31.5264C127.18 30.312 125.347 29.238 123.537 28.1387C122.594 27.5683 121.621 27.037 120.629 26.5587C118.236 25.4088 115.84 24.2473 113.414 23.1595C110.947 22.0533 108.47 20.9539 105.948 19.9834C103.529 19.052 101.066 18.2148 98.5827 17.4789C95.6934 16.621 92.7672 15.8805 89.841 15.1537C87.1224 14.4799 84.3945 13.8244 81.6482 13.2793C79.1993 12.7918 76.7228 12.4261 74.2509 12.0857C71.2532 11.674 68.2302 11.2969 65.2094 10.9933C61.6007 10.6322 57.9874 10.3171 54.3717 10.0733C51.9851 9.91466 49.5916 9.88246 47.2004 9.86636C44.5963 9.8495 41.9921 9.87863 39.388 9.95376C35.8092 10.0596 32.2397 10.1653 28.6564 10.3861C26.0115 10.5517 23.3782 10.9059 20.7402 11.1658C19.9608 11.244 19.1791 11.29 18.1415 11.3705" fill="white"/>
</svg>
