<svg width="10" height="10" viewBox="0 0 10 10" fill="none" xmlns="http://www.w3.org/2000/svg">
<path d="M9.82867 7.36767L8.47973 7.03879C7.81563 6.8778 7.15153 6.71911 6.48974 6.55352C6.46845 6.54415 6.44549 6.53917 6.42222 6.53886C6.39896 6.53856 6.37586 6.54294 6.35433 6.55174C6.3328 6.56055 6.31328 6.57359 6.29692 6.5901C6.28057 6.60661 6.26772 6.62624 6.25915 6.64781C5.69344 7.57695 5.12618 8.50456 4.5574 9.43063L4.43519 9.61002C4.40983 9.27654 4.38676 8.99136 4.366 8.70848C4.30144 7.86443 4.23458 7.02269 4.17693 6.17864C4.18045 6.1512 4.17836 6.12334 4.17078 6.09673C4.1632 6.07012 4.15029 6.04532 4.13284 6.02382C4.11538 6.00233 4.09373 5.98459 4.06921 5.97167C4.04468 5.95875 4.0178 5.95092 3.99015 5.94866C2.97556 5.71867 1.96326 5.46799 0.950969 5.22651C0.855166 5.20849 0.763638 5.17259 0.681183 5.12071L1.45367 4.79873C2.23767 4.47905 3.02167 4.15248 3.80798 3.8397C3.86628 3.82498 3.91651 3.78813 3.94796 3.737C3.97941 3.68587 3.98958 3.62452 3.97632 3.56601C3.88408 2.51268 3.80107 1.45705 3.71575 0.403719C3.707 0.332058 3.71247 0.259381 3.73188 0.189835C3.77569 0.235832 3.82181 0.27953 3.86332 0.327827C4.55509 1.13737 5.24686 1.93772 5.93863 2.76337C5.95502 2.78934 5.97646 2.81177 6.00168 2.82935C6.02689 2.84693 6.05538 2.8593 6.08546 2.86573C6.11554 2.87216 6.14662 2.87252 6.17684 2.86679C6.20707 2.86106 6.23584 2.84935 6.26146 2.83236C7.26452 2.40919 8.2722 1.99521 9.27757 1.57894L9.42285 1.52605L9.31446 1.71693C8.74721 2.63687 8.18457 3.55681 7.61271 4.45605C7.59409 4.47738 7.58001 4.50224 7.57129 4.52915C7.56257 4.55605 7.5594 4.58444 7.56199 4.6126C7.56457 4.64075 7.57286 4.66809 7.58633 4.69297C7.59981 4.71784 7.61819 4.73974 7.64038 4.75733C8.33215 5.54618 9.00778 6.34193 9.69032 7.13538L9.85405 7.33087L9.83329 7.36077" fill="white"/>
</svg>
