<svg width="4" height="4" viewBox="0 0 4 4" fill="none" xmlns="http://www.w3.org/2000/svg">
<path d="M3.92838 2.68132L3.41877 2.58932C3.16743 2.54563 2.91609 2.50193 2.66475 2.45363C2.64854 2.44856 2.63098 2.45005 2.61587 2.4578C2.60076 2.46555 2.58932 2.47893 2.58404 2.49503L2.01449 3.57136C2.00188 3.59507 1.98803 3.6181 1.97298 3.64036C1.95453 3.51846 1.9407 3.41037 1.92686 3.30688C1.88305 2.9941 1.83924 2.68132 1.79773 2.36854C1.79773 2.31794 1.77236 2.29724 1.72163 2.29034L0.568684 2.09025C0.533301 2.08524 0.499008 2.07436 0.467224 2.05806L0.748551 1.92007C1.03218 1.78207 1.31579 1.64178 1.60403 1.50839C1.62498 1.50103 1.64235 1.48602 1.65263 1.46638C1.6629 1.44674 1.66531 1.42394 1.65937 1.4026C1.60172 1.01162 1.54638 0.620648 1.48873 0.229674C1.48293 0.203155 1.48293 0.175696 1.48873 0.149178L1.54178 0.197479C1.81849 0.484961 2.09519 0.76784 2.36728 1.05762C2.37413 1.06714 2.38283 1.07518 2.39285 1.08128C2.40288 1.08738 2.41402 1.09141 2.42563 1.09312C2.43725 1.09484 2.4491 1.09421 2.46047 1.09127C2.47183 1.08833 2.48249 1.08314 2.49181 1.07602C2.85383 0.894329 3.22047 0.717243 3.5848 0.540155L3.63783 0.51486C3.62745 0.540302 3.61512 0.564902 3.60094 0.58845C3.41186 0.942627 3.22277 1.2991 3.03138 1.65098C3.02488 1.65927 3.02018 1.66882 3.01757 1.67902C3.01497 1.68922 3.01452 1.69985 3.01625 1.71023C3.01799 1.72061 3.02187 1.73052 3.02765 1.73932C3.03343 1.74813 3.04099 1.75564 3.04983 1.76138C3.32423 2.03966 3.59402 2.32024 3.86842 2.60082C3.89111 2.6227 3.91267 2.64573 3.93299 2.66982V2.68132" fill="white"/>
</svg>
