<?xml version="1.0" encoding="utf-8"?>
<!-- Generator: Adobe Illustrator 18.0.0, SVG Export Plug-In . SVG Version: 6.00 Build 0)  -->
<!DOCTYPE svg PUBLIC "-//W3C//DTD SVG 1.1//EN" "http://www.w3.org/Graphics/SVG/1.1/DTD/svg11.dtd" [
	<!ENTITY ns_flows "http://ns.adobe.com/Flows/1.0/">
	<!ENTITY ns_extend "http://ns.adobe.com/Extensibility/1.0/">
	<!ENTITY ns_ai "http://ns.adobe.com/AdobeIllustrator/10.0/">
	<!ENTITY ns_graphs "http://ns.adobe.com/Graphs/1.0/">
	<!ENTITY ns_vars "http://ns.adobe.com/Variables/1.0/">
	<!ENTITY ns_imrep "http://ns.adobe.com/ImageReplacement/1.0/">
	<!ENTITY ns_sfw "http://ns.adobe.com/SaveForWeb/1.0/">
	<!ENTITY ns_custom "http://ns.adobe.com/GenericCustomNamespace/1.0/">
	<!ENTITY ns_adobe_xpath "http://ns.adobe.com/XPath/1.0/">
]>
<svg version="1.1" id="Layer_1" xmlns:x="&ns_extend;" xmlns:i="&ns_ai;" xmlns:graph="&ns_graphs;"
	 xmlns="http://www.w3.org/2000/svg" xmlns:xlink="http://www.w3.org/1999/xlink" xmlns:a="http://ns.adobe.com/AdobeSVGViewerExtensions/3.0/"
	 x="0px" y="0px" viewBox="0 706.6 565.3 135.4" enable-background="new 0 706.6 565.3 135.4" xml:space="preserve">
<metadata>
	<sfw  xmlns="&ns_sfw;">
		<slices></slices>
		<sliceSourceBounds  height="135.4" width="565.3" y="-0.1" x="0" bottomLeftOrigin="true"></sliceSourceBounds>
	</sfw>
</metadata>
<g>
	<path d="M0,842V706.6h74.2v135.3H0V842z M27.2,739.2l-6.2,2.5l-6.6-2.5l-6.2,1.2l-3.3,2.1v4.5l10.3,3.7l2.5-2.5h2.5l1.2,1.2
		l2.5,32.2l-0.8,16.1l0.8,5.8l-2.9,6.2l-4.5,2.5v2.5h13.6l7,2.5l16.1-1.2l3.7-2.5l6.6-5.8l3.7-11.1l-1.2-2.1l-1.2-11.5l-4.5-4.5
		l-2.1-5.8l2.5-2.5l4.5-6.6v-7l-7-12l-4.5-2.5L42,738.8l-10.3,1.6L27.2,739.2z M14.4,812.3l-2.5-2.5H8.2l-2.5,4.5l1.2,0.8h3.3
		l3.7-0.8v-2.1h0.5V812.3z M32.6,780.8l8.2-1.2l7.8,1.2l6.2,3.3l5.4,7l-0.8,7.8l-4.5,3.3v4.5L29.3,808l-3.7-23.1l3.7-6.6L32.6,780.8
		z M46.6,752l1.2-0.8l3.3,0.8l4.5,9.5v4.5l-7,6.6h-7.8l-1.2-1.2l-3.7,2.5H28l1.2-21l2.5-3.3L46.6,752z"/>
	<path d="M74.2,842V706.6h74.2v135.3H74.2V842z M100.7,738.8l-3.7,0.8l-8.2-1.2l-7.8,2.5l-1.2-1.2v5.8l1.6-1.2l20.6,1.2l3.3,3.3v2.5
		l-3.3,2.5v4.5l1.2,7.8l-1.2,1.2l-2.5,39.2H97l-17.3,0.8v7l10.3,1.2l10.7-1.2l3.3,1.2l7.8-1.2l5.8,1.2l10.3-1.2l1.2,1.2l7.8-1.2
		l3.7,1.2l4.5-5.8v-4.1l-1.2-2.5l1.2-9.5l-1.2-14.8h-4.5l-3.3,4.9v3.3l0.8,3.7l-0.8,3.3l0.8,5.8l-5.4,5.8l-19.8,0.8l-3.3-3.3v-3.7
		l0.8-1.2l-0.8-7l2.5-11.5l-3.7-17.7l1.2-0.8l-1.2-11.1l1.2-4.1h4.5l7.8,1.2l5.8-2.5v-2.5l-1.2-0.8l-6.6-1.6l-11.5,1.6l-2.5-2.5
		C104.8,738.8,100.7,738.8,100.7,738.8z"/>
	<path d="M148.9,842V706.6h74.2v135.3h-74.2V842z M197.2,735.5l-1.2,1.2l-2.1-2.1l-8.2,4.5v3.3l11.5,3.3l2.5,5.8l-2.5,2.5l2.5,16.9
		l-2.5,7l0.8,14.8l-4.1,2.5v3.7l-3.3,3.3h-9.5l-9.1-4.5v-4.5l-3.7-3.3l-0.8-9.5l0.8-2.5l-0.8-7l0.8-3.3l-0.8-0.8v-1.2l2.5-3.3
		l-2.5-4.5l2.5-4.5l-1.2-5.8l2.5-2.5l9.5-1.2v-4.5l-1.2-2.5l-7.4-1.2l-10.7,1.2l-5.8-1.2l-4.5,2.5l-1.2,1.2l1.2,3.3h3.7l2.5,2.5
		l1.2-1.2h0.8l2.5,7l-1.2,5.4l2.5,3.7l-1.2,7l1.2,2.5l-1.2,6.6l1.2,2.5l-2.5,9.5l1.2,3.3l-1.2,1.2l1.2,4.5l8.2,14.8h2.5l10.3,3.3
		l4.5-1.2l0.8,1.2v0.8l12.8-6.6l7-12.8l-1.6-9.1l1.2-5.8l-1.2-10.7l1.2-10.3l-1.2-14.8l3.7-2.5l1.2,1.2l7.8-1.2v-4.1l-2.1-2.5
		l-5.8-1.2l-3.3,2.5L197.2,735.5z M195.9,786.3v-2.1h-3.3l0.8,3.3h1.2L195.9,786.3z"/>
	<path d="M223.1,842V706.6H342v135.3H223.1V842z M252.5,742.5l-1.2-1.2l-20.6-0.8l-2.5,5.4l0.8,1.2l8.2,1.2l5.4-1.2l2.5,2.5
		l1.2,35.9l-1.2,9.1l1.2,2.5l-1.2,4.5l-4.5,4.1l-12.8,2.5l-0.8,4.5l3.7,3.3l4.5-0.8l3.3,0.8l0.8-0.8l7,0.8l10.3-0.8l6.2,0.8l6.6-0.8
		l5.8,0.8l2.5-2.5h4.9l4.1,1.2l1.2-1.2l2.5-13.6l-1.2-2.6l2.5-9.5l-2.5-2.5h-2.5l-0.8,1.2l-4.5,13.6l-7,7l-7.8-1.2l-2.5,1.2
		l-10.3-1.2l-2.5-2.5v-5.8l-2.5-3.3l1.2-16.5l2.5-2.5h10.3l2.5,2.5l2.5,3.7l-1.6,3.3l2.5,4.5h1.2l3.7-3.3l-1.2-9.5l2.5-7l-0.8-9.5
		l-5.8,0.4l-0.8,0.8l-1.6,4.5l-7,7l-4.5-0.8l-2.9-3.7l-1.2-5.4l1.2-1.6l-1.2-13.6l2.5-2.5l16.9-2.5v-2.1l-1.2-0.8l-7.8,0.8l-3.7-0.8
		L252.5,742.5z M286.7,742.5h-0.8l-5.8-2.5l-6.2,3.3l1.2,1.2l1.2-1.2l7,8.2l0.8,7.8l4.5,7l1.2-0.8l-1.2-6.2l1.2-0.8L286.7,742.5z"/>
	<path d="M342,842V706.6h74.2v135.3H342V842z M395.7,740.9l-2.4,2.4l-14-3.7l-18.6,2.5l-0.8-1.2l-7,1.2l-2.5,2.5v1.2l0.8,3.3
		l4.5,0.8l3.7-0.8l0.8,0.8l0.8-0.8h2.5l2.5,3.3l2.5,29.3l-0.8,2.5l0.8,0.8v1.2l1.6,2.9l-1.2,1.6l1.2,9.1l-2.5,4.5l0.8,1.2l-4.5,5.8
		l-7.8-1.6l-2.5,1.6v5.4h3.7l5.8-1.2l0.8,1.2l9.5-1.2l2.5,1.2l7-1.2l5.8,1.2l2.5-2.5v-2.5l-2.5-2.5h-4.5l-4.5,1.6l-5.8-3.3v-5.8
		l-2.5-4.5l2.5-14.8l12-3.3l3.3-2.5l1.2,1.2h1.2l0.8-1.2v-4.5l2.5-5.8l-3.3-3.3l-1.2,5.4l-3.7,3.3l-3.3,4.5l-6.2-0.8l-3.3-3.7
		l1.2-9.1l-1.2-4.5l2.5-2.5V754l-1.2-3.3l2.1-2.5l3.7,0.8l4.5-2.1l1.2,1.2l9.1-1.2l7,4.5l2.5,3.7l-1.2,0.8l3.3,6.2l-1.2,3.3l1.2,0.8
		l-1.2,1.2v1.2l2.5,4.5h2.5v-1.2l1.2-3.7l-2.5-4.5l1.2-1.2V758l-2.5-2.5v-3.3l0.8-3.7l-3.3-6.6L395.7,740.9z M393.3,793.3v-4.1
		l-2.5-7.8l-1.2,7l1.2,5.4h0.8L393.3,793.3z M390.7,756.5v2.1h1.6v-2.1H390.7z"/>
	<path d="M416.8,842V706.6H491v135.3h-74.2V842z M446,740h-3.3l-4.5-0.8l-10.3,3.3l-1.6,3.3l3.7,3.7l9.1,2.5l7-1.2l2.5,1.2v4.1
		l-0.8,6.6l0.8,3.7l-0.8,10.3l0.8,0.8l-2.5,27.6l-1.2-1.2l-1.2,1.2h-3.4l-12,2.5l-3.3,3.7l0.8,3.3l4.9,2.5l7,1.2l3.3-1.2l9.5,1.2
		l4.5-1.2l7,1.2l11.5-1.2l1.2,1.2l4.5-2.5l2.1-5.8l-0.8-1.2l-2.5-3.7h-14.7l-2.5-2.1l-3.3-19l0.8-28.9l-0.8-5.8l0.8-0.8h3.7l1.2,0.8
		l1.2-0.8h2.1l3.7,0.8l7.8-4.5v-4.1l-0.8-0.8l-10.7-0.8l-11.5,0.8l-3.7-0.8l-4.1,2.5L446,740z"/>
	<path d="M491,842V706.6h74.2v135.3H491V842z M540.4,742.5l-2.5-2.5l-14.8-1.2l-4.5,2.5l-6.6,8.2l-3.7,9.1l-3.3,3.3v3.3l-1.2,12
		l2.5,2.5v3.3l-1.2,1.2l1.2,11.5l3.7,4.5l0.8,5.8l10.3,10.3l14,0.8l7-5.4l3.3,4.5h2.5l0.8-1.2l2.5-3.3l-0.8-1.2v-4.5l0.8-17.3
		l12.8-2.5v-4.5l-1.2-1.2l-11.5-2.1l-9.1,1.2l-7-1.2l-3.7,2.1l-2.5,4.5l1.2,1.2h1.2l11.5,2.5v4.5l-1.2,5.8l-5.8,5.8l-7.8,4.5l-7-1.2
		l-7.8-9.5l-2.5-16.1l-2.5-11.5l2.5-2.5l2.5-12.8l5.4-6.2l12.8-2.1l9.5,6.6l1.2,5.8l4.1,6.6h3.7l0.8-1.2v-3.3l-0.8-1.2l2.5-19.8
		l-2.5-2.5h-1.2L540.4,742.5z"/>
</g>
</svg>
