<svg width="24" height="24" viewBox="0 0 24 24" fill="none" xmlns="http://www.w3.org/2000/svg">
<g clip-path="url(#clip0_60_2357)">
<path d="M21.3333 3.33333H2.66667C1.95942 3.33333 1.28115 3.61428 0.781049 4.11438C0.280952 4.61448 0 5.29275 0 6L0 9H24V6C24 5.29275 23.719 4.61448 23.219 4.11438C22.7189 3.61428 22.0406 3.33333 21.3333 3.33333Z" fill="#141414"/>
<path d="M0 18C0 18.7072 0.280952 19.3855 0.781049 19.8856C1.28115 20.3857 1.95942 20.6667 2.66667 20.6667H21.3333C22.0406 20.6667 22.7189 20.3857 23.219 19.8856C23.719 19.3855 24 18.7072 24 18V15H0V18Z" fill="#007A3D"/>
<path d="M0 9H24V15H0V9Z" fill="#EEEEEE"/>
<path d="M0.900667 4.00267C0.617647 4.25281 0.390998 4.56023 0.235727 4.90456C0.080456 5.24889 0.000106889 5.62228 0 6L0 18C0 18.7953 0.348 19.5093 0.900667 19.998L11.6667 12L0.900667 4.00267Z" fill="#CE1126"/>
<path d="M4.418 12.892L5.122 13.5427L5.052 12.586L6 12.4413L5.20867 11.9L5.68667 11.0687L4.77 11.3493L4.418 10.4573L4.066 11.3493L3.14933 11.0687L3.62667 11.9L2.836 12.4413L3.78333 12.586L3.714 13.5427L4.418 12.892Z" fill="white"/>
</g>
<defs>
<clipPath id="clip0_60_2357">
<rect width="24" height="24" fill="white"/>
</clipPath>
</defs>
</svg>
