<svg width="21" height="21" viewBox="0 0 21 21" fill="none" xmlns="http://www.w3.org/2000/svg">
<path fill-rule="evenodd" clip-rule="evenodd" d="M10.5 1.69792C8.31683 1.69457 6.2094 2.49791 4.58244 3.95365C2.95548 5.40939 1.92369 7.41489 1.68524 9.58499C1.44679 11.7551 2.01848 13.9368 3.29053 15.7111C4.56257 17.4853 6.44528 18.7271 8.57707 19.1979V13.8073H7.12707C6.86498 13.807 6.6137 13.7028 6.42837 13.5174C6.24304 13.3321 6.13881 13.0808 6.13853 12.8187V11.0469C6.13881 10.7848 6.24304 10.5335 6.42837 10.3482C6.6137 10.1628 6.86498 10.0586 7.12707 10.0583H8.55728L8.50832 8.73125V8.71042C8.50832 7.79271 8.66666 6.07396 10.0167 5.10833C10.4489 4.79896 10.8469 4.60104 11.2802 4.48542C11.7073 4.37083 12.1396 4.34479 12.6239 4.34479C13.4739 4.34479 14.0614 4.42917 14.4385 4.48333L14.6135 4.50833C14.9677 4.55417 15.2281 4.85625 15.2281 5.20833V7.16979C15.2281 7.26615 15.2085 7.3615 15.1704 7.45C15.1323 7.5385 15.0765 7.6183 15.0065 7.68451C14.9365 7.75071 14.8537 7.80194 14.7632 7.83505C14.6727 7.86817 14.5764 7.88247 14.4802 7.87708H14.4792C14.3364 7.88333 13.7812 7.90521 13.3042 7.90521C12.9458 7.90521 12.7656 7.9875 12.6614 8.09792C12.55 8.21771 12.4229 8.48125 12.4229 9.07187V10.0583H14.0094C14.1524 10.0585 14.2938 10.0897 14.4236 10.1497C14.5535 10.2098 14.6688 10.2973 14.7616 10.4062C14.8543 10.5151 14.9224 10.6429 14.961 10.7806C14.9997 10.9184 15.008 11.0629 14.9854 11.2042L14.7167 12.9812C14.678 13.212 14.5589 13.4215 14.3804 13.5727C14.2019 13.724 13.9756 13.8071 13.7417 13.8073H12.4229V19.1969C14.5536 18.7251 16.4351 17.483 17.7061 15.7091C18.9772 13.9351 19.5484 11.7542 19.31 9.58494C19.0716 7.41566 18.0405 5.41084 16.4145 3.95522C14.7886 2.4996 12.6823 1.69574 10.5 1.69792ZM0.604156 10.5521C0.604156 7.92754 1.64675 5.4105 3.50258 3.55467C5.35841 1.69884 7.87545 0.65625 10.5 0.65625C13.1245 0.65625 15.6416 1.69884 17.4974 3.55467C19.3532 5.4105 20.3958 7.92754 20.3958 10.5521C20.3958 15.5146 16.7427 19.624 11.9792 20.3385C11.905 20.3496 11.8294 20.3446 11.7574 20.3238C11.6854 20.3029 11.6187 20.2668 11.5619 20.2179C11.5052 20.1689 11.4596 20.1083 11.4285 20.0401C11.3973 19.972 11.3812 19.8979 11.3812 19.8229V13.2865C11.3812 13.1483 11.4361 13.0158 11.5338 12.9182C11.6315 12.8205 11.7639 12.7656 11.9021 12.7656H13.6958L13.9469 11.1H11.9021C11.7639 11.1 11.6315 11.0451 11.5338 10.9475C11.4361 10.8498 11.3812 10.7173 11.3812 10.5792V9.07292C11.3812 8.36771 11.5271 7.78646 11.9021 7.38646C12.2844 6.97812 12.8062 6.86458 13.3042 6.86458C13.6094 6.86458 13.951 6.85417 14.1854 6.84687V5.5C13.6685 5.42304 13.1465 5.38508 12.6239 5.38646C12.1719 5.38646 11.8448 5.4125 11.5489 5.49167C11.2604 5.56875 10.975 5.70417 10.6219 5.95521C9.72916 6.59479 9.54999 7.80937 9.54895 8.70208L9.61874 10.5604C9.62126 10.6304 9.60965 10.7001 9.58461 10.7655C9.55956 10.8309 9.5216 10.8905 9.47298 10.9409C9.42436 10.9912 9.36609 11.0313 9.30165 11.0586C9.2372 11.086 9.16791 11.1 9.09791 11.1H7.18124V12.7656H9.09791C9.23604 12.7656 9.36852 12.8205 9.46619 12.9182C9.56387 13.0158 9.61874 13.1483 9.61874 13.2865V19.8229C9.61882 19.8979 9.60271 19.972 9.57153 20.0401C9.54034 20.1083 9.49481 20.1689 9.43805 20.2179C9.38128 20.2668 9.31462 20.3029 9.24261 20.3238C9.17061 20.3446 9.09495 20.3496 9.02082 20.3385C4.25728 19.624 0.604156 15.5156 0.604156 10.5521Z" fill="black"/>
</svg>
