<svg width="31" height="30" viewBox="0 0 31 30" fill="none" xmlns="http://www.w3.org/2000/svg">
    <path d="M15.5 26.25L13.6875 24.625C11.5833 22.7292 9.84375 21.0938 8.46875 19.7188C7.09375 18.3438 6 17.1092 5.1875 16.015C4.375 14.9208 3.8075 13.9158 3.485 13C3.1625 12.0842 3.00083 11.1467 3 10.1875C3 8.22917 3.65625 6.59375 4.96875 5.28125C6.28125 3.96875 7.91667 3.3125 9.875 3.3125C10.9583 3.3125 11.9896 3.54167 12.9688 4C13.9479 4.45833 14.7917 5.10417 15.5 5.9375C16.2083 5.10417 17.0521 4.45833 18.0312 4C19.0104 3.54167 20.0417 3.3125 21.125 3.3125C23.0833 3.3125 24.7188 3.96875 26.0312 5.28125C27.3437 6.59375 28 8.22917 28 10.1875C28 11.1458 27.8388 12.0833 27.5163 13C27.1938 13.9167 26.6258 14.9217 25.8125 16.015C24.9992 17.1083 23.9054 18.3429 22.5312 19.7188C21.1571 21.0946 19.4175 22.73 17.3125 24.625L15.5 26.25ZM15.5 22.875C17.5 21.0833 19.1458 19.5471 20.4375 18.2662C21.7292 16.9854 22.75 15.8708 23.5 14.9225C24.25 13.9742 24.7708 13.13 25.0625 12.39C25.3542 11.65 25.5 10.9158 25.5 10.1875C25.5 8.9375 25.0833 7.89583 24.25 7.0625C23.4167 6.22917 22.375 5.8125 21.125 5.8125C20.1458 5.8125 19.2396 6.08833 18.4062 6.64C17.5729 7.19167 17 7.895 16.6875 8.75H14.3125C14 7.89583 13.4271 7.19292 12.5938 6.64125C11.7604 6.08958 10.8542 5.81333 9.875 5.8125C8.625 5.8125 7.58333 6.22917 6.75 7.0625C5.91667 7.89583 5.5 8.9375 5.5 10.1875C5.5 10.9167 5.64583 11.6512 5.9375 12.3912C6.22917 13.1313 6.75 13.975 7.5 14.9225C8.25 15.87 9.27083 16.9846 10.5625 18.2662C11.8542 19.5479 13.5 21.0842 15.5 22.875Z" fill="black"/>
    </svg>
    