<svg width="20" height="21" viewBox="0 0 20 21" fill="none" xmlns="http://www.w3.org/2000/svg">
<path d="M17.3667 4.34172C16.941 3.91589 16.4357 3.5781 15.8795 3.34763C15.3232 3.11716 14.7271 2.99854 14.125 2.99854C13.5229 2.99854 12.9268 3.11716 12.3705 3.34763C11.8143 3.5781 11.309 3.91589 10.8833 4.34172L10 5.22506L9.11666 4.34172C8.25692 3.48198 7.09086 2.99898 5.875 2.99898C4.65914 2.99898 3.49307 3.48198 2.63333 4.34172C1.77359 5.20147 1.29059 6.36753 1.29059 7.58339C1.29059 8.79925 1.77359 9.96531 2.63333 10.8251L10 18.1917L17.3667 10.8251C17.7925 10.3994 18.1303 9.89407 18.3608 9.33785C18.5912 8.78164 18.7099 8.18546 18.7099 7.58339C18.7099 6.98132 18.5912 6.38514 18.3608 5.82893C18.1303 5.27271 17.7925 4.76735 17.3667 4.34172Z" stroke="#1E1E1E" stroke-width="2" stroke-linecap="round" stroke-linejoin="round"/>
</svg>
