<svg width="20" height="20" viewBox="0 0 20 20" fill="none" xmlns="http://www.w3.org/2000/svg">
<path d="M6.66663 15.0001L9.99996 12.4584L13.3333 15.0001L12.0833 10.8751L15.4166 8.50008H11.3333L9.99996 4.16675L8.66663 8.50008H4.58329L7.91663 10.8751L6.66663 15.0001ZM9.99996 18.3334C8.84718 18.3334 7.76385 18.1145 6.74996 17.6767C5.73607 17.239 4.85413 16.6454 4.10413 15.8959C3.35413 15.1465 2.76052 14.2645 2.32329 13.2501C1.88607 12.2356 1.66718 11.1523 1.66663 10.0001C1.66607 8.84786 1.88496 7.76453 2.32329 6.75008C2.76163 5.73564 3.35524 4.85369 4.10413 4.10425C4.85302 3.3548 5.73496 2.76119 6.74996 2.32341C7.76496 1.88564 8.84829 1.66675 9.99996 1.66675C11.1516 1.66675 12.235 1.88564 13.25 2.32341C14.265 2.76119 15.1469 3.3548 15.8958 4.10425C16.6447 4.85369 17.2386 5.73564 17.6775 6.75008C18.1163 7.76453 18.335 8.84786 18.3333 10.0001C18.3316 11.1523 18.1127 12.2356 17.6766 13.2501C17.2405 14.2645 16.6469 15.1465 15.8958 15.8959C15.1447 16.6454 14.2627 17.2392 13.25 17.6776C12.2372 18.1159 11.1538 18.3345 9.99996 18.3334ZM9.99996 16.6667C11.8611 16.6667 13.4375 16.0209 14.7291 14.7292C16.0208 13.4376 16.6666 11.8612 16.6666 10.0001C16.6666 8.13897 16.0208 6.56258 14.7291 5.27091C13.4375 3.97925 11.8611 3.33341 9.99996 3.33341C8.13885 3.33341 6.56246 3.97925 5.27079 5.27091C3.97913 6.56258 3.33329 8.13897 3.33329 10.0001C3.33329 11.8612 3.97913 13.4376 5.27079 14.7292C6.56246 16.0209 8.13885 16.6667 9.99996 16.6667Z" fill="black" fill-opacity="0.5"/>
</svg>
