<svg width="117" height="21" viewBox="0 0 117 21" fill="none" xmlns="http://www.w3.org/2000/svg">
<path d="M11.652 0.899061C11.5909 0.956014 11.5423 1.02491 11.5091 1.10145C11.4191 1.31764 11.3384 1.53382 11.2393 1.74771L10.7274 2.85853C10.6905 2.94133 10.6536 3.02182 10.6144 3.10232C10.3515 3.67498 10.0886 4.25224 9.82114 4.8134C9.4499 5.65083 9.03663 6.46908 8.58287 7.26505C8.4772 7.39365 8.34308 7.49609 8.19106 7.56432C8.03903 7.63255 7.87322 7.66473 7.70663 7.65832C5.63133 7.40994 3.55602 7.11096 1.48071 6.80508C1.25012 6.77288 0.479948 6.78438 0.858115 7.17765C2.17709 8.55756 3.68284 9.77649 5.08252 11.069C6.30465 12.1982 6.27697 12.3247 5.47683 13.8771C4.58149 15.6181 3.77944 17.4053 3.07408 19.2312C3.81658 18.854 4.56369 18.4906 5.29466 18.095C6.62516 17.3775 7.93722 16.6231 9.27464 15.9194C9.44626 15.8079 9.65322 15.7638 9.85553 15.7957C10.0578 15.8275 10.2411 15.9331 10.3699 16.0919C11.8596 17.5914 13.4091 19.0311 14.9402 20.4892C15.1063 20.6479 15.2999 20.7767 15.579 20.9998C15.1293 18.3526 14.6981 15.8113 14.2531 13.1803L15.1016 13.0078C19.914 12.0326 24.7195 11.0115 29.5435 10.0985C31.8609 9.65919 34.2129 9.40851 36.5534 9.09343C37.9992 8.90484 39.4496 8.76455 40.9023 8.63346C42.7009 8.46557 44.5018 8.27698 46.3051 8.17349C48.3296 8.0608 50.3565 8.0378 52.3834 7.9711C54.1036 7.91361 55.8238 7.79631 57.544 7.79631C59.2642 7.79631 61.0259 7.88371 62.7645 7.9757C65.9928 8.14819 69.221 8.27238 72.4493 8.56906C75.7214 8.86805 78.9911 9.29122 82.2425 9.78108C84.5737 10.1353 86.8865 10.6481 89.1901 11.161C91.7773 11.7429 94.3738 12.3109 96.9195 13.0699C99.9494 13.9645 102.938 15.0109 105.924 16.0597C107.822 16.7197 109.703 17.4396 111.555 18.2238C113.128 18.8839 114.65 19.6681 116.284 20.2638C115.881 19.9947 115.493 19.6911 115.067 19.4635C113.829 18.7965 112.579 18.1502 111.324 17.5132C109.886 16.7841 108.456 16.0367 106.989 15.3697C105.278 14.5878 103.551 13.8334 101.792 13.1642C99.6474 12.3477 97.4867 11.5543 95.2938 10.8919C92.2869 9.97197 89.2601 9.12333 86.2132 8.34598C84.1379 7.81931 82.0465 7.38234 79.9389 7.06266C75.5331 6.39417 71.118 5.78854 66.6938 5.24578C64.6738 4.99969 62.5985 4.9652 60.5232 4.864C59.0413 4.78274 57.5571 4.71835 56.0705 4.67082C54.5579 4.62175 53.0452 4.59109 51.5325 4.57882C49.8123 4.56272 48.0921 4.53513 46.3765 4.57882C44.8293 4.62482 43.2843 4.78351 41.7371 4.8594C40.0653 4.9445 38.3866 4.9468 36.7148 5.06409C35.1606 5.17448 33.6157 5.40446 32.0638 5.55855C30.1592 5.74944 28.2522 5.91734 26.3475 6.09442C26.2968 6.09442 26.2437 6.11282 26.193 6.11972L20.8618 7.00516C18.3714 7.41224 15.881 7.81471 13.3653 8.22179C13.3492 8.22179 12.918 6.02542 12.8765 5.82534L12.3853 3.4151C12.3761 3.31697 12.3576 3.21994 12.33 3.12532L12.2677 2.82404C12.2285 2.62395 12.187 2.42386 12.1455 2.22377C12.0602 1.8098 11.9725 1.39583 11.8918 0.979557C11.8889 0.949904 11.8786 0.921446 11.8619 0.896759C11.8019 0.816264 11.7281 0.839263 11.6635 0.896759" fill="white"/>
</svg>
