<svg width="8" height="8" viewBox="0 0 8 8" fill="none" xmlns="http://www.w3.org/2000/svg">
<path d="M7.96339 6.15987L6.88884 5.89769C6.36079 5.7712 5.83273 5.6447 5.30468 5.51131C5.27068 5.49827 5.23294 5.4989 5.19939 5.51305C5.16584 5.52721 5.13912 5.5538 5.12483 5.58721C4.67595 6.32776 4.22399 7.06602 3.76896 7.80197C3.7459 7.84107 3.72054 7.87556 3.67442 7.94456C3.65367 7.68008 3.63522 7.45469 3.61677 7.22701C3.56605 6.55545 3.51608 5.88389 3.46689 5.21234C3.47074 5.16936 3.45737 5.12661 3.42972 5.09343C3.40206 5.06025 3.36237 5.03933 3.3193 5.03525C2.50994 4.84666 1.70518 4.65347 0.898113 4.46028C0.822614 4.44692 0.750519 4.41878 0.685974 4.37749L1.29934 4.11991C1.92423 3.86462 2.54683 3.60704 3.17403 3.35635C3.19841 3.3508 3.22138 3.34031 3.24152 3.32551C3.26165 3.31072 3.27853 3.29195 3.29107 3.27038C3.30362 3.24881 3.31157 3.22489 3.31445 3.20011C3.31732 3.17533 3.31505 3.15023 3.30778 3.12637C3.23399 2.28922 3.16942 1.44978 3.10024 0.610335C3.09726 0.555104 3.1043 0.499787 3.121 0.447044C3.15559 0.481542 3.19249 0.518339 3.22477 0.557436C3.77357 1.20139 4.32699 1.84535 4.86888 2.49391C4.88153 2.51519 4.89845 2.53363 4.91858 2.54808C4.93872 2.56252 4.96165 2.57265 4.9859 2.57783C5.01016 2.58302 5.03522 2.58314 5.05952 2.5782C5.08383 2.57326 5.10685 2.56335 5.12713 2.54911C5.92497 2.21333 6.72742 1.88445 7.52757 1.55327L7.64286 1.50957C7.60366 1.58087 7.5806 1.62227 7.55524 1.66137C7.09406 2.39042 6.65824 3.11947 6.20168 3.84392C6.1747 3.87769 6.16201 3.92063 6.16632 3.96359C6.17063 4.00655 6.1916 4.04614 6.22474 4.07391C6.77124 4.70407 7.31312 5.33653 7.85731 5.96899C7.90112 6.01959 7.94263 6.07248 7.98644 6.12538L7.97031 6.14838" fill="white"/>
</svg>
