<svg width="8" height="9" viewBox="0 0 8 9" fill="none" xmlns="http://www.w3.org/2000/svg">
<path d="M7.52719 6.24975L6.45264 5.98987L4.86848 5.60349C4.85171 5.59641 4.83369 5.59277 4.81548 5.59277C4.79726 5.59277 4.77923 5.59641 4.76246 5.60349C4.74569 5.61056 4.73051 5.62093 4.71783 5.63397C4.70515 5.647 4.69521 5.66245 4.68863 5.67938C4.22745 6.41764 3.78471 7.15589 3.33276 7.89414C3.3097 7.93094 3.28434 7.96544 3.23822 8.03444C3.21516 7.76995 3.19902 7.54456 3.18058 7.31918C3.12985 6.64532 3.0768 5.97607 3.03069 5.30221C3.03454 5.25924 3.02117 5.21649 2.99352 5.1833C2.96586 5.15012 2.92617 5.12921 2.88311 5.12513C2.07374 4.93654 1.26898 4.74335 0.461914 4.55016C0.385791 4.53646 0.313002 4.50835 0.247467 4.46737L0.863138 4.21209C1.48804 3.9545 2.11063 3.69692 2.73783 3.44623C2.76097 3.44114 2.78283 3.43142 2.8021 3.41766C2.82136 3.4039 2.83763 3.38639 2.84992 3.36618C2.86221 3.34597 2.87025 3.32349 2.87358 3.30009C2.8769 3.27669 2.87544 3.25286 2.86927 3.23005C2.79779 2.3906 2.73091 1.55116 2.66404 0.711713C2.65721 0.654762 2.66114 0.597036 2.67558 0.541519C2.71248 0.578317 2.74936 0.612817 2.78165 0.651915C3.33045 1.29587 3.88156 1.93983 4.42575 2.58839C4.4384 2.60967 4.45534 2.62811 4.47548 2.64255C4.49562 2.657 4.51852 2.66713 4.54278 2.67231C4.56703 2.6775 4.59211 2.67762 4.61641 2.67268C4.64072 2.66773 4.66373 2.65783 4.68401 2.64359C5.48185 2.30781 6.28431 1.97893 7.08446 1.64775L7.19975 1.60405C7.15825 1.67534 7.13749 1.71674 7.11213 1.75584C6.65095 2.48489 6.21513 3.21395 5.75857 3.9384C5.73215 3.97239 5.71981 4.01519 5.7241 4.05798C5.72839 4.10077 5.74897 4.14029 5.78162 4.16839C6.32812 4.79625 6.87001 5.4287 7.4142 6.06116L7.54333 6.21756L7.52719 6.24055" fill="white"/>
</svg>
