<svg width="31" height="30" viewBox="0 0 31 30" fill="none" xmlns="http://www.w3.org/2000/svg">
    <path fill-rule="evenodd" clip-rule="evenodd" d="M15.5 2.5C8.59648 2.5 3.00002 8.09641 3.00002 15C3.00002 21.9035 8.59648 27.5 15.5 27.5C22.4036 27.5 28 21.9036 28 15C28 8.09641 22.4036 2.5 15.5 2.5ZM15.5 25C9.98603 25 5.50003 20.514 5.50003 15C5.50003 9.48596 9.98597 5.00002 15.5 5.00002C21.0141 5.00002 25.5 9.48596 25.5 15C25.5 20.514 21.0141 25 15.5 25ZM17.0653 10C17.0653 10.9063 16.4054 11.5625 15.5127 11.5625C14.5839 11.5625 13.9402 10.9063 13.9402 9.98266C13.9402 9.09496 14.6013 8.43754 15.5127 8.43754C16.4054 8.43754 17.0653 9.09496 17.0653 10ZM14.2528 13.75H16.7527V21.25H14.2528V13.75Z" fill="black"/>
    </svg>
    