<svg width="36" height="14" viewBox="0 0 36 14" fill="none" xmlns="http://www.w3.org/2000/svg">
<path d="M23.0738 6.51742H21.8313V4.03242C21.8313 3.34867 22.39 2.78992 23.0738 2.78992V6.51742Z" fill="url(#paint0_radial_42_1156)"/>
<path d="M33.015 6.51746H21.8313V10.2462H33.015V6.51746Z" fill="#EE3124"/>
<path d="M33.015 6.51746H14.375V10.2462H33.015V6.51746Z" fill="#EE3124"/>
<path d="M33.015 6.51746H14.375V10.2462H33.015V6.51746Z" fill="url(#paint1_radial_42_1156)"/>
<path d="M15.6175 5.2749C12.35 5.2749 9.13 6.03365 6.19875 7.4999L0.706253 10.2462H19.345V6.5174L18.1025 5.2749H15.6175Z" fill="url(#paint2_linear_42_1156)"/>
<path fill-rule="evenodd" clip-rule="evenodd" d="M18.1075 10.2462V5.27869L19.345 6.51744V10.2462H18.1075Z" fill="url(#paint3_linear_42_1156)"/>
<path d="M33.015 7.76117H5.6775L3.19125 9.00242H33.015V7.76117Z" fill="url(#paint4_linear_42_1156)"/>
<path d="M33.015 7.76117H5.6775L3.19125 9.00242H33.015V7.76117Z" fill="url(#paint5_linear_42_1156)"/>
<path d="M30.53 9.59618H35.5V1.51868H30.53V9.59618Z" fill="url(#paint6_radial_42_1156)"/>
<path d="M30.53 4.03242H35.5V2.78992H30.53V4.03242Z" fill="url(#paint7_linear_42_1156)"/>
<path d="M30.53 4.03242H35.5V2.78992H30.53V4.03242Z" fill="url(#paint8_linear_42_1156)"/>
<path d="M30.53 1.54743H35.5V0.304932H30.53V1.54743Z" fill="url(#paint9_linear_42_1156)"/>
<path d="M30.53 1.54743H35.5V0.304932H30.53V1.54743Z" fill="url(#paint10_linear_42_1156)"/>
<path d="M30.53 1.54743H35.5V0.304932H30.53V1.54743Z" fill="url(#paint11_linear_42_1156)"/>
<path d="M33.015 10.2462H20.5875V12.7312H33.0125L33.015 10.2462Z" fill="#A0393E"/>
<path d="M33.015 10.2462H20.5875V12.7312H33.0125L33.015 10.2462Z" fill="url(#paint12_radial_42_1156)"/>
<path d="M33.015 10.2462H20.5875V12.7312H33.0125L33.015 10.2462Z" fill="url(#paint13_linear_42_1156)"/>
<path d="M22.76 10.2462H0.706253V12.7312H22.76V10.2462Z" fill="url(#paint14_linear_42_1156)"/>
<path d="M22.76 10.2462H0.706253V12.7312H22.76V10.2462Z" fill="url(#paint15_linear_42_1156)"/>
<path d="M22.76 10.2462H0.706253V12.7312H22.76V10.2462Z" fill="url(#paint16_linear_42_1156)"/>
<path d="M22.76 10.2462H0.706253V12.7312H22.76V10.2462Z" fill="url(#paint17_radial_42_1156)"/>
<path d="M22.76 10.2462H0.706253V12.7312H22.76V10.2462Z" fill="url(#paint18_linear_42_1156)"/>
<path d="M30.53 6.51742H23.0738V2.78992C25.46 2.78992 27.7463 3.73367 29.4363 5.42367L30.53 6.51742Z" fill="url(#paint19_radial_42_1156)"/>
<path d="M23.695 12.7312H20.5887V9.00244H23.695C23.9399 9.00228 24.1824 9.05041 24.4087 9.1441C24.635 9.23778 24.8406 9.37517 25.0137 9.5484C25.1868 9.72163 25.324 9.9273 25.4176 10.1536C25.5111 10.38 25.5591 10.6225 25.5587 10.8674C25.5587 11.1121 25.5105 11.3544 25.4169 11.5805C25.3232 11.8065 25.1859 12.0119 25.0128 12.1849C24.8397 12.3578 24.6342 12.495 24.4081 12.5885C24.182 12.6821 23.9397 12.7301 23.695 12.7299" fill="url(#paint20_radial_42_1156)"/>
<path d="M23.695 12.7312H20.5887V9.00244H23.695C23.9399 9.00228 24.1824 9.05041 24.4087 9.1441C24.635 9.23778 24.8406 9.37517 25.0137 9.5484C25.1868 9.72163 25.324 9.9273 25.4176 10.1536C25.5111 10.38 25.5591 10.6225 25.5587 10.8674C25.5587 11.1121 25.5105 11.3544 25.4169 11.5805C25.3232 11.8065 25.1859 12.0119 25.0128 12.1849C24.8397 12.3578 24.6342 12.495 24.4081 12.5885C24.182 12.6821 23.9397 12.7301 23.695 12.7299" fill="url(#paint21_radial_42_1156)"/>
<path d="M23.695 12.7312H20.5887V9.00244H23.695C23.9399 9.00228 24.1824 9.05041 24.4087 9.1441C24.635 9.23778 24.8406 9.37517 25.0137 9.5484C25.1868 9.72163 25.324 9.9273 25.4176 10.1536C25.5111 10.38 25.5591 10.6225 25.5587 10.8674C25.5587 11.1121 25.5105 11.3544 25.4169 11.5805C25.3232 11.8065 25.1859 12.0119 25.0128 12.1849C24.8397 12.3578 24.6342 12.495 24.4081 12.5885C24.182 12.6821 23.9397 12.7301 23.695 12.7299" fill="url(#paint22_linear_42_1156)"/>
<path d="M20.5875 9.00366H19.345V12.7312H20.5887L20.5875 9.00366Z" fill="url(#paint23_linear_42_1156)"/>
<path d="M20.5875 9.00366H19.345V12.7312H20.5887L20.5875 9.00366Z" fill="url(#paint24_linear_42_1156)"/>
<g filter="url(#filter0_ii_42_1156)">
<path d="M8.78376 13.9737C9.36113 13.9835 9.93467 13.8782 10.4709 13.664C11.0072 13.4498 11.4955 13.131 11.9072 12.7262C12.319 12.3213 12.646 11.8385 12.8693 11.306C13.0925 10.7734 13.2075 10.2017 13.2075 9.62429C13.2075 9.04684 13.0925 8.47516 12.8693 7.9426C12.646 7.41004 12.319 6.92726 11.9072 6.52242C11.4955 6.11757 11.0072 5.79876 10.4709 5.58458C9.93467 5.3704 9.36113 5.26513 8.78376 5.27492C7.643 5.29426 6.5555 5.761 5.75562 6.57456C4.95573 7.38812 4.50749 8.48337 4.50749 9.62429C4.50749 10.7652 4.95573 11.8605 5.75562 12.674C6.5555 13.4876 7.643 13.9543 8.78376 13.9737Z" fill="url(#paint25_linear_42_1156)"/>
<path d="M8.78376 13.9737C9.36113 13.9835 9.93467 13.8782 10.4709 13.664C11.0072 13.4498 11.4955 13.131 11.9072 12.7262C12.319 12.3213 12.646 11.8385 12.8693 11.306C13.0925 10.7734 13.2075 10.2017 13.2075 9.62429C13.2075 9.04684 13.0925 8.47516 12.8693 7.9426C12.646 7.41004 12.319 6.92726 11.9072 6.52242C11.4955 6.11757 11.0072 5.79876 10.4709 5.58458C9.93467 5.3704 9.36113 5.26513 8.78376 5.27492C7.643 5.29426 6.5555 5.761 5.75562 6.57456C4.95573 7.38812 4.50749 8.48337 4.50749 9.62429C4.50749 10.7652 4.95573 11.8605 5.75562 12.674C6.5555 13.4876 7.643 13.9543 8.78376 13.9737Z" fill="url(#paint26_radial_42_1156)"/>
<path d="M8.78376 13.9737C9.36113 13.9835 9.93467 13.8782 10.4709 13.664C11.0072 13.4498 11.4955 13.131 11.9072 12.7262C12.319 12.3213 12.646 11.8385 12.8693 11.306C13.0925 10.7734 13.2075 10.2017 13.2075 9.62429C13.2075 9.04684 13.0925 8.47516 12.8693 7.9426C12.646 7.41004 12.319 6.92726 11.9072 6.52242C11.4955 6.11757 11.0072 5.79876 10.4709 5.58458C9.93467 5.3704 9.36113 5.26513 8.78376 5.27492C7.643 5.29426 6.5555 5.761 5.75562 6.57456C4.95573 7.38812 4.50749 8.48337 4.50749 9.62429C4.50749 10.7652 4.95573 11.8605 5.75562 12.674C6.5555 13.4876 7.643 13.9543 8.78376 13.9737Z" fill="url(#paint27_radial_42_1156)"/>
</g>
<g filter="url(#filter1_ii_42_1156)">
<path d="M8.78375 11.2312C8.99854 11.2371 9.21235 11.2 9.41254 11.122C9.61273 11.0439 9.79524 10.9265 9.94928 10.7767C10.1033 10.6269 10.2258 10.4477 10.3094 10.2498C10.393 10.0518 10.4361 9.83916 10.4361 9.62428C10.4361 9.40941 10.393 9.19672 10.3094 8.99878C10.2258 8.80084 10.1033 8.62168 9.94928 8.47187C9.79524 8.32207 9.61273 8.20467 9.41254 8.12661C9.21235 8.04855 8.99854 8.01142 8.78375 8.01741C8.36534 8.02908 7.96798 8.20349 7.67616 8.50357C7.38434 8.80364 7.22107 9.20571 7.22107 9.62428C7.22107 10.0429 7.38434 10.4449 7.67616 10.745C7.96798 11.0451 8.36534 11.2195 8.78375 11.2312Z" fill="#D9D2E8"/>
</g>
<path fill-rule="evenodd" clip-rule="evenodd" d="M27.1 3.73993L24.3175 6.51743H30.53L29.4363 5.42368C28.7525 4.74056 27.9633 4.17203 27.0988 3.73993" fill="url(#paint28_radial_42_1156)"/>
<path fill-rule="evenodd" clip-rule="evenodd" d="M27.1 3.73993L24.3175 6.51743H30.53L29.4363 5.42368C28.7525 4.74056 27.9633 4.17203 27.0988 3.73993" fill="url(#paint29_radial_42_1156)"/>
<g filter="url(#filter2_ii_42_1156)">
<path d="M31.15 13.9737C31.7274 13.9835 32.3009 13.8782 32.8372 13.664C33.3735 13.4498 33.8617 13.131 34.2735 12.7262C34.6853 12.3213 35.0123 11.8385 35.2355 11.306C35.4588 10.7734 35.5737 10.2017 35.5737 9.62429C35.5737 9.04684 35.4588 8.47516 35.2355 7.9426C35.0123 7.41004 34.6853 6.92726 34.2735 6.52242C33.8617 6.11757 33.3735 5.79876 32.8372 5.58458C32.3009 5.3704 31.7274 5.26513 31.15 5.27492C30.0093 5.29426 28.9218 5.761 28.1219 6.57456C27.322 7.38812 26.8737 8.48337 26.8737 9.62429C26.8737 10.7652 27.322 11.8605 28.1219 12.674C28.9218 13.4876 30.0093 13.9543 31.15 13.9737Z" fill="url(#paint30_linear_42_1156)"/>
<path d="M31.15 13.9737C31.7274 13.9835 32.3009 13.8782 32.8372 13.664C33.3735 13.4498 33.8617 13.131 34.2735 12.7262C34.6853 12.3213 35.0123 11.8385 35.2355 11.306C35.4588 10.7734 35.5737 10.2017 35.5737 9.62429C35.5737 9.04684 35.4588 8.47516 35.2355 7.9426C35.0123 7.41004 34.6853 6.92726 34.2735 6.52242C33.8617 6.11757 33.3735 5.79876 32.8372 5.58458C32.3009 5.3704 31.7274 5.26513 31.15 5.27492C30.0093 5.29426 28.9218 5.761 28.1219 6.57456C27.322 7.38812 26.8737 8.48337 26.8737 9.62429C26.8737 10.7652 27.322 11.8605 28.1219 12.674C28.9218 13.4876 30.0093 13.9543 31.15 13.9737Z" fill="url(#paint31_radial_42_1156)"/>
<path d="M31.15 13.9737C31.7274 13.9835 32.3009 13.8782 32.8372 13.664C33.3735 13.4498 33.8617 13.131 34.2735 12.7262C34.6853 12.3213 35.0123 11.8385 35.2355 11.306C35.4588 10.7734 35.5737 10.2017 35.5737 9.62429C35.5737 9.04684 35.4588 8.47516 35.2355 7.9426C35.0123 7.41004 34.6853 6.92726 34.2735 6.52242C33.8617 6.11757 33.3735 5.79876 32.8372 5.58458C32.3009 5.3704 31.7274 5.26513 31.15 5.27492C30.0093 5.29426 28.9218 5.761 28.1219 6.57456C27.322 7.38812 26.8737 8.48337 26.8737 9.62429C26.8737 10.7652 27.322 11.8605 28.1219 12.674C28.9218 13.4876 30.0093 13.9543 31.15 13.9737Z" fill="url(#paint32_radial_42_1156)"/>
</g>
<g filter="url(#filter3_ii_42_1156)">
<path d="M31.15 11.2312C31.3648 11.2371 31.5786 11.2 31.7788 11.122C31.979 11.0439 32.1615 10.9265 32.3155 10.7767C32.4696 10.6269 32.592 10.4477 32.6756 10.2498C32.7592 10.0518 32.8023 9.83916 32.8023 9.62428C32.8023 9.40941 32.7592 9.19672 32.6756 8.99878C32.592 8.80084 32.4696 8.62168 32.3155 8.47187C32.1615 8.32207 31.979 8.20467 31.7788 8.12661C31.5786 8.04855 31.3648 8.01142 31.15 8.01741C30.7316 8.02908 30.3342 8.20349 30.0424 8.50357C29.7506 8.80364 29.5873 9.20571 29.5873 9.62428C29.5873 10.0429 29.7506 10.4449 30.0424 10.745C30.3342 11.0451 30.7316 11.2195 31.15 11.2312Z" fill="#D2CBE1"/>
</g>
<g filter="url(#filter4_f_42_1156)">
<path d="M9.15375 12.3537C10.765 12.3537 12.0713 11.0475 12.0713 9.43618C12.0713 7.82489 10.765 6.51868 9.15375 6.51868C7.54246 6.51868 6.23625 7.82489 6.23625 9.43618C6.23625 11.0475 7.54246 12.3537 9.15375 12.3537Z" stroke="url(#paint33_linear_42_1156)" stroke-width="0.5"/>
</g>
<g filter="url(#filter5_f_42_1156)">
<path d="M31.4975 12.3537C33.1088 12.3537 34.415 11.0475 34.415 9.43618C34.415 7.82489 33.1088 6.51868 31.4975 6.51868C29.8862 6.51868 28.58 7.82489 28.58 9.43618C28.58 11.0475 29.8862 12.3537 31.4975 12.3537Z" stroke="url(#paint34_linear_42_1156)" stroke-width="0.5"/>
</g>
<defs>
<filter id="filter0_ii_42_1156" x="4.50749" y="5.27429" width="8.7" height="8.77501" filterUnits="userSpaceOnUse" color-interpolation-filters="sRGB">
<feFlood flood-opacity="0" result="BackgroundImageFix"/>
<feBlend mode="normal" in="SourceGraphic" in2="BackgroundImageFix" result="shape"/>
<feColorMatrix in="SourceAlpha" type="matrix" values="0 0 0 0 0 0 0 0 0 0 0 0 0 0 0 0 0 0 127 0" result="hardAlpha"/>
<feOffset/>
<feGaussianBlur stdDeviation="0.25"/>
<feComposite in2="hardAlpha" operator="arithmetic" k2="-1" k3="1"/>
<feColorMatrix type="matrix" values="0 0 0 0 0.145098 0 0 0 0 0.0823529 0 0 0 0 0.215686 0 0 0 1 0"/>
<feBlend mode="normal" in2="shape" result="effect1_innerShadow_42_1156"/>
<feColorMatrix in="SourceAlpha" type="matrix" values="0 0 0 0 0 0 0 0 0 0 0 0 0 0 0 0 0 0 127 0" result="hardAlpha"/>
<feOffset dy="0.075"/>
<feGaussianBlur stdDeviation="0.0625"/>
<feComposite in2="hardAlpha" operator="arithmetic" k2="-1" k3="1"/>
<feColorMatrix type="matrix" values="0 0 0 0 0.207843 0 0 0 0 0.0313726 0 0 0 0 0.235294 0 0 0 1 0"/>
<feBlend mode="normal" in2="effect1_innerShadow_42_1156" result="effect2_innerShadow_42_1156"/>
</filter>
<filter id="filter1_ii_42_1156" x="7.19607" y="7.99178" width="3.265" height="3.26503" filterUnits="userSpaceOnUse" color-interpolation-filters="sRGB">
<feFlood flood-opacity="0" result="BackgroundImageFix"/>
<feBlend mode="normal" in="SourceGraphic" in2="BackgroundImageFix" result="shape"/>
<feColorMatrix in="SourceAlpha" type="matrix" values="0 0 0 0 0 0 0 0 0 0 0 0 0 0 0 0 0 0 127 0" result="hardAlpha"/>
<feOffset dx="0.025" dy="-0.025"/>
<feGaussianBlur stdDeviation="0.025"/>
<feComposite in2="hardAlpha" operator="arithmetic" k2="-1" k3="1"/>
<feColorMatrix type="matrix" values="0 0 0 0 0.478431 0 0 0 0 0.364706 0 0 0 0 0.584314 0 0 0 1 0"/>
<feBlend mode="normal" in2="shape" result="effect1_innerShadow_42_1156"/>
<feColorMatrix in="SourceAlpha" type="matrix" values="0 0 0 0 0 0 0 0 0 0 0 0 0 0 0 0 0 0 127 0" result="hardAlpha"/>
<feOffset dx="-0.025" dy="0.025"/>
<feGaussianBlur stdDeviation="0.025"/>
<feComposite in2="hardAlpha" operator="arithmetic" k2="-1" k3="1"/>
<feColorMatrix type="matrix" values="0 0 0 0 0.807843 0 0 0 0 0.764706 0 0 0 0 0.858824 0 0 0 1 0"/>
<feBlend mode="normal" in2="effect1_innerShadow_42_1156" result="effect2_innerShadow_42_1156"/>
</filter>
<filter id="filter2_ii_42_1156" x="26.8737" y="5.27429" width="8.7" height="8.77501" filterUnits="userSpaceOnUse" color-interpolation-filters="sRGB">
<feFlood flood-opacity="0" result="BackgroundImageFix"/>
<feBlend mode="normal" in="SourceGraphic" in2="BackgroundImageFix" result="shape"/>
<feColorMatrix in="SourceAlpha" type="matrix" values="0 0 0 0 0 0 0 0 0 0 0 0 0 0 0 0 0 0 127 0" result="hardAlpha"/>
<feOffset/>
<feGaussianBlur stdDeviation="0.25"/>
<feComposite in2="hardAlpha" operator="arithmetic" k2="-1" k3="1"/>
<feColorMatrix type="matrix" values="0 0 0 0 0.145098 0 0 0 0 0.0823529 0 0 0 0 0.215686 0 0 0 1 0"/>
<feBlend mode="normal" in2="shape" result="effect1_innerShadow_42_1156"/>
<feColorMatrix in="SourceAlpha" type="matrix" values="0 0 0 0 0 0 0 0 0 0 0 0 0 0 0 0 0 0 127 0" result="hardAlpha"/>
<feOffset dy="0.075"/>
<feGaussianBlur stdDeviation="0.0625"/>
<feComposite in2="hardAlpha" operator="arithmetic" k2="-1" k3="1"/>
<feColorMatrix type="matrix" values="0 0 0 0 0.207843 0 0 0 0 0.0313726 0 0 0 0 0.235294 0 0 0 1 0"/>
<feBlend mode="normal" in2="effect1_innerShadow_42_1156" result="effect2_innerShadow_42_1156"/>
</filter>
<filter id="filter3_ii_42_1156" x="29.5623" y="7.99178" width="3.265" height="3.26503" filterUnits="userSpaceOnUse" color-interpolation-filters="sRGB">
<feFlood flood-opacity="0" result="BackgroundImageFix"/>
<feBlend mode="normal" in="SourceGraphic" in2="BackgroundImageFix" result="shape"/>
<feColorMatrix in="SourceAlpha" type="matrix" values="0 0 0 0 0 0 0 0 0 0 0 0 0 0 0 0 0 0 127 0" result="hardAlpha"/>
<feOffset dx="0.025" dy="-0.025"/>
<feGaussianBlur stdDeviation="0.025"/>
<feComposite in2="hardAlpha" operator="arithmetic" k2="-1" k3="1"/>
<feColorMatrix type="matrix" values="0 0 0 0 0.478431 0 0 0 0 0.364706 0 0 0 0 0.584314 0 0 0 1 0"/>
<feBlend mode="normal" in2="shape" result="effect1_innerShadow_42_1156"/>
<feColorMatrix in="SourceAlpha" type="matrix" values="0 0 0 0 0 0 0 0 0 0 0 0 0 0 0 0 0 0 127 0" result="hardAlpha"/>
<feOffset dx="-0.025" dy="0.025"/>
<feGaussianBlur stdDeviation="0.025"/>
<feComposite in2="hardAlpha" operator="arithmetic" k2="-1" k3="1"/>
<feColorMatrix type="matrix" values="0 0 0 0 0.807843 0 0 0 0 0.764706 0 0 0 0 0.858824 0 0 0 1 0"/>
<feBlend mode="normal" in2="effect1_innerShadow_42_1156" result="effect2_innerShadow_42_1156"/>
</filter>
<filter id="filter4_f_42_1156" x="5.61125" y="5.89368" width="7.08501" height="7.08502" filterUnits="userSpaceOnUse" color-interpolation-filters="sRGB">
<feFlood flood-opacity="0" result="BackgroundImageFix"/>
<feBlend mode="normal" in="SourceGraphic" in2="BackgroundImageFix" result="shape"/>
<feGaussianBlur stdDeviation="0.1875" result="effect1_foregroundBlur_42_1156"/>
</filter>
<filter id="filter5_f_42_1156" x="27.955" y="5.89368" width="7.085" height="7.08502" filterUnits="userSpaceOnUse" color-interpolation-filters="sRGB">
<feFlood flood-opacity="0" result="BackgroundImageFix"/>
<feBlend mode="normal" in="SourceGraphic" in2="BackgroundImageFix" result="shape"/>
<feGaussianBlur stdDeviation="0.1875" result="effect1_foregroundBlur_42_1156"/>
</filter>
<radialGradient id="paint0_radial_42_1156" cx="0" cy="0" r="1" gradientUnits="userSpaceOnUse" gradientTransform="translate(22.9574 3.68342) rotate(90) scale(3.33985 2.80641)">
<stop stop-color="#727273"/>
<stop offset="1" stop-color="#4E2A2A"/>
</radialGradient>
<radialGradient id="paint1_radial_42_1156" cx="0" cy="0" r="1" gradientUnits="userSpaceOnUse" gradientTransform="translate(27.2125 10.2462) rotate(180) scale(1.32812 2.7263)">
<stop offset="0.155" stop-color="#AA2E30"/>
<stop offset="1" stop-color="#AA2E30" stop-opacity="0"/>
</radialGradient>
<linearGradient id="paint2_linear_42_1156" x1="3.0675" y1="10.2462" x2="19.345" y2="10.2462" gradientUnits="userSpaceOnUse">
<stop stop-color="#C03131"/>
<stop offset="1" stop-color="#FC443F"/>
</linearGradient>
<linearGradient id="paint3_linear_42_1156" x1="18.7262" y1="5.89244" x2="18.7262" y2="10.2462" gradientUnits="userSpaceOnUse">
<stop stop-color="#FF5752"/>
<stop offset="1" stop-color="#FF5752" stop-opacity="0"/>
</linearGradient>
<linearGradient id="paint4_linear_42_1156" x1="8.405" y1="8.38742" x2="21.4" y2="8.38742" gradientUnits="userSpaceOnUse">
<stop stop-color="#C5C5C7"/>
<stop offset="1" stop-color="#F0EBED"/>
</linearGradient>
<linearGradient id="paint5_linear_42_1156" x1="27.565" y1="8.68242" x2="25.5338" y2="8.68242" gradientUnits="userSpaceOnUse">
<stop stop-color="#B9B3BA"/>
<stop offset="1" stop-color="#B9B3BA" stop-opacity="0"/>
</linearGradient>
<radialGradient id="paint6_radial_42_1156" cx="0" cy="0" r="1" gradientUnits="userSpaceOnUse" gradientTransform="translate(33.015 5.55743) rotate(-88.2109) scale(5.98634 14.9652)">
<stop stop-color="#ED4C48"/>
<stop offset="1" stop-color="#B5312D"/>
</radialGradient>
<linearGradient id="paint7_linear_42_1156" x1="30.5262" y1="3.41742" x2="35.4962" y2="3.41742" gradientUnits="userSpaceOnUse">
<stop stop-color="#E4AA2D"/>
<stop offset="1" stop-color="#F38320"/>
</linearGradient>
<linearGradient id="paint8_linear_42_1156" x1="30.1312" y1="3.64117" x2="31.4687" y2="3.64117" gradientUnits="userSpaceOnUse">
<stop stop-color="#B58B2C"/>
<stop offset="1" stop-color="#B58B2C" stop-opacity="0"/>
</linearGradient>
<linearGradient id="paint9_linear_42_1156" x1="30.53" y1="0.926181" x2="35.5" y2="0.926181" gradientUnits="userSpaceOnUse">
<stop stop-color="#B9AAB5"/>
<stop offset="0.693" stop-color="#D8D4E0"/>
<stop offset="1" stop-color="#C7C5CC"/>
</linearGradient>
<linearGradient id="paint10_linear_42_1156" x1="30.3975" y1="1.54743" x2="31.5587" y2="1.54743" gradientUnits="userSpaceOnUse">
<stop stop-color="#94858A"/>
<stop offset="1" stop-color="#94858A" stop-opacity="0"/>
</linearGradient>
<linearGradient id="paint11_linear_42_1156" x1="35.67" y1="1.54743" x2="35.3187" y2="1.54743" gradientUnits="userSpaceOnUse">
<stop stop-color="#94858A"/>
<stop offset="1" stop-color="#94858A" stop-opacity="0"/>
</linearGradient>
<radialGradient id="paint12_radial_42_1156" cx="0" cy="0" r="1" gradientUnits="userSpaceOnUse" gradientTransform="translate(28.4625 11.4887) rotate(180) scale(2.53906 3.47551)">
<stop offset="0.429" stop-color="#620B25"/>
<stop offset="1" stop-color="#620B25" stop-opacity="0"/>
</radialGradient>
<linearGradient id="paint13_linear_42_1156" x1="27.9087" y1="10.2462" x2="27.9087" y2="10.3612" gradientUnits="userSpaceOnUse">
<stop stop-color="#B11B27"/>
<stop offset="1" stop-color="#B11B27" stop-opacity="0"/>
</linearGradient>
<linearGradient id="paint14_linear_42_1156" x1="2.25125" y1="12.7312" x2="23.535" y2="12.7312" gradientUnits="userSpaceOnUse">
<stop stop-color="#AB3138"/>
<stop offset="1" stop-color="#C8494E"/>
</linearGradient>
<linearGradient id="paint15_linear_42_1156" x1="19.01" y1="13.2524" x2="16.9175" y2="12.5337" gradientUnits="userSpaceOnUse">
<stop stop-color="#722026"/>
<stop offset="1" stop-color="#722026" stop-opacity="0"/>
</linearGradient>
<linearGradient id="paint16_linear_42_1156" x1="16.9788" y1="13.3299" x2="16.9788" y2="11.7287" gradientUnits="userSpaceOnUse">
<stop stop-color="#722026"/>
<stop offset="1" stop-color="#722026" stop-opacity="0"/>
</linearGradient>
<radialGradient id="paint17_radial_42_1156" cx="0" cy="0" r="1" gradientUnits="userSpaceOnUse" gradientTransform="translate(7.0175 11.4887) rotate(170.73) scale(3.91836 2.77699)">
<stop stop-color="#722026"/>
<stop offset="1" stop-color="#722026" stop-opacity="0"/>
</radialGradient>
<linearGradient id="paint18_linear_42_1156" x1="13.6975" y1="10.2462" x2="13.6975" y2="10.3612" gradientUnits="userSpaceOnUse">
<stop stop-color="#BF212E"/>
<stop offset="1" stop-color="#BF212E" stop-opacity="0"/>
</linearGradient>
<radialGradient id="paint19_radial_42_1156" cx="0" cy="0" r="1" gradientUnits="userSpaceOnUse" gradientTransform="translate(23.8148 6.51787) rotate(-68.122) scale(4.40283 9.40546)">
<stop stop-color="#FF5A56"/>
<stop offset="1" stop-color="#FF4940"/>
</radialGradient>
<radialGradient id="paint20_radial_42_1156" cx="0" cy="0" r="1" gradientUnits="userSpaceOnUse" gradientTransform="translate(21.0412 9.30744) scale(4.51738 3.04687)">
<stop stop-color="#FFE042"/>
<stop offset="1" stop-color="#DC8B38"/>
</radialGradient>
<radialGradient id="paint21_radial_42_1156" cx="0" cy="0" r="1" gradientUnits="userSpaceOnUse" gradientTransform="translate(20.5875 10.8674) scale(4.67194 3.89546)">
<stop offset="0.749" stop-color="#E57A14" stop-opacity="0"/>
<stop offset="1" stop-color="#E57A14"/>
</radialGradient>
<linearGradient id="paint22_linear_42_1156" x1="21.8225" y1="13.9162" x2="21.8225" y2="11.6899" gradientUnits="userSpaceOnUse">
<stop stop-color="#97594D"/>
<stop offset="0.93" stop-color="#97594D" stop-opacity="0"/>
</linearGradient>
<linearGradient id="paint23_linear_42_1156" x1="19.9675" y1="9.00241" x2="19.9675" y2="10.8674" gradientUnits="userSpaceOnUse">
<stop stop-color="#626162"/>
<stop offset="1" stop-color="#646367"/>
</linearGradient>
<linearGradient id="paint24_linear_42_1156" x1="20.5887" y1="12.7312" x2="20.5887" y2="10.0299" gradientUnits="userSpaceOnUse">
<stop stop-color="#2B1B41"/>
<stop offset="1" stop-color="#2B1B41" stop-opacity="0"/>
</linearGradient>
<linearGradient id="paint25_linear_42_1156" x1="6.77751" y1="8.53117" x2="13.31" y2="8.53117" gradientUnits="userSpaceOnUse">
<stop offset="0.239" stop-color="#34214F"/>
<stop offset="1" stop-color="#241337"/>
</linearGradient>
<radialGradient id="paint26_radial_42_1156" cx="0" cy="0" r="1" gradientUnits="userSpaceOnUse" gradientTransform="translate(8.78376 9.23617) rotate(-65.5366) scale(2.37306 2.47859)">
<stop offset="0.523" stop-color="#2D114D"/>
<stop offset="1" stop-color="#2B1249" stop-opacity="0"/>
</radialGradient>
<radialGradient id="paint27_radial_42_1156" cx="0" cy="0" r="1" gradientUnits="userSpaceOnUse" gradientTransform="translate(9.97001 9.92492) rotate(33.4863) scale(0.962959 1.08205)">
<stop stop-color="#392A49"/>
<stop offset="1" stop-color="#392A49" stop-opacity="0"/>
</radialGradient>
<radialGradient id="paint28_radial_42_1156" cx="0" cy="0" r="1" gradientUnits="userSpaceOnUse" gradientTransform="translate(25.5925 4.71743) rotate(28.0725) scale(2.65625 1.7245)">
<stop stop-color="#F8F2F5"/>
<stop offset="1" stop-color="#F2DEE2"/>
</radialGradient>
<radialGradient id="paint29_radial_42_1156" cx="0" cy="0" r="1" gradientUnits="userSpaceOnUse" gradientTransform="translate(26.9986 7.11987) rotate(-52.409) scale(3.10571 5.48625)">
<stop offset="0.688" stop-color="#C8BBBA" stop-opacity="0"/>
<stop offset="1" stop-color="#C8BBBA"/>
</radialGradient>
<linearGradient id="paint30_linear_42_1156" x1="29.145" y1="8.53117" x2="35.6775" y2="8.53117" gradientUnits="userSpaceOnUse">
<stop offset="0.239" stop-color="#34214F"/>
<stop offset="1" stop-color="#241337"/>
</linearGradient>
<radialGradient id="paint31_radial_42_1156" cx="0" cy="0" r="1" gradientUnits="userSpaceOnUse" gradientTransform="translate(31.15 9.23617) rotate(-65.5366) scale(2.37306 2.47859)">
<stop offset="0.523" stop-color="#2D114D"/>
<stop offset="1" stop-color="#2B1249" stop-opacity="0"/>
</radialGradient>
<radialGradient id="paint32_radial_42_1156" cx="0" cy="0" r="1" gradientUnits="userSpaceOnUse" gradientTransform="translate(32.3375 9.92492) rotate(33.4863) scale(0.962959 1.08205)">
<stop stop-color="#392A49"/>
<stop offset="1" stop-color="#392A49" stop-opacity="0"/>
</radialGradient>
<linearGradient id="paint33_linear_42_1156" x1="11.3325" y1="6.51743" x2="6.93125" y2="11.7124" gradientUnits="userSpaceOnUse">
<stop offset="0.083" stop-color="#615B6B"/>
<stop offset="0.391" stop-color="#615B6B" stop-opacity="0"/>
<stop offset="0.692" stop-color="#615B6B" stop-opacity="0"/>
<stop offset="0.935" stop-color="#615B6B"/>
</linearGradient>
<linearGradient id="paint34_linear_42_1156" x1="33.6763" y1="6.51743" x2="29.275" y2="11.7124" gradientUnits="userSpaceOnUse">
<stop offset="0.083" stop-color="#615B6B"/>
<stop offset="0.391" stop-color="#615B6B" stop-opacity="0"/>
<stop offset="0.692" stop-color="#615B6B" stop-opacity="0"/>
<stop offset="0.935" stop-color="#615B6B"/>
</linearGradient>
</defs>
</svg>
