<svg width="36" height="27" viewBox="0 0 36 27" fill="none" xmlns="http://www.w3.org/2000/svg">
<path d="M6.60375 1.49798C7.37 1.03673 8.11125 0.777983 8.30375 0.745483L9.28 1.66423L8.1375 14.3005C8.1375 14.138 7.97125 13.793 7.3075 13.7142C6.4775 13.6167 3.9575 13.2167 2.24875 10.7755C1.10375 9.21798 0.692496 7.38423 0.636246 6.04298C0.617496 5.54923 0.893746 5.10173 1.31125 4.83673C3.1425 3.67548 5.9275 1.90548 6.60375 1.49798Z" fill="url(#paint0_radial_42_1108)"/>
<path d="M6.60375 1.49798C7.37 1.03673 8.11125 0.777983 8.30375 0.745483L9.28 1.66423L8.1375 14.3005C8.1375 14.138 7.97125 13.793 7.3075 13.7142C6.4775 13.6167 3.9575 13.2167 2.24875 10.7755C1.10375 9.21798 0.692496 7.38423 0.636246 6.04298C0.617496 5.54923 0.893746 5.10173 1.31125 4.83673C3.1425 3.67548 5.9275 1.90548 6.60375 1.49798Z" fill="url(#paint1_linear_42_1108)"/>
<path d="M6.60375 1.49798C7.37 1.03673 8.11125 0.777983 8.30375 0.745483L9.28 1.66423L8.1375 14.3005C8.1375 14.138 7.97125 13.793 7.3075 13.7142C6.4775 13.6167 3.9575 13.2167 2.24875 10.7755C1.10375 9.21798 0.692496 7.38423 0.636246 6.04298C0.617496 5.54923 0.893746 5.10173 1.31125 4.83673C3.1425 3.67548 5.9275 1.90548 6.60375 1.49798Z" fill="url(#paint2_linear_42_1108)"/>
<g filter="url(#filter0_i_42_1108)">
<path d="M29.3963 1.48297C28.63 1.02172 27.8888 0.764219 27.6963 0.730469L26.72 1.64922L27.8625 14.2867C27.8625 14.123 28.0288 13.778 28.6925 13.6992C29.5225 13.6017 32.0425 13.2017 33.7513 10.7605C34.8963 9.20297 35.3075 7.36922 35.3638 6.02922C35.3838 5.53422 35.1063 5.08672 34.6888 4.82172C32.8575 3.66172 30.0725 1.89047 29.3963 1.48297Z" fill="url(#paint3_linear_42_1108)"/>
</g>
<path d="M29.3963 1.48297C28.63 1.02172 27.8888 0.764219 27.6963 0.730469L26.72 1.64922L27.8625 14.2867C27.8625 14.123 28.0288 13.778 28.6925 13.6992C29.5225 13.6017 32.0425 13.2017 33.7513 10.7605C34.8963 9.20297 35.3075 7.36922 35.3638 6.02922C35.3838 5.53422 35.1063 5.08672 34.6888 4.82172C32.8575 3.66172 30.0725 1.89047 29.3963 1.48297Z" fill="url(#paint4_radial_42_1108)"/>
<g filter="url(#filter1_i_42_1108)">
<path d="M8.1275 0.812952L8.18 24.2717C8.1825 24.918 8.59375 25.4967 9.2175 25.6705C14.885 27.1117 21.2525 27.0142 26.88 25.6642C27.505 25.4955 27.9175 24.918 27.9175 24.2717L27.9712 0.812952C27.7175 0.666702 26.315 0.471703 25.5 0.666703C23.5662 1.19795 20.1787 1.7992 18.05 1.7992C15.9212 1.7992 12.5325 1.19795 10.6 0.666703C9.78375 0.471703 8.38125 0.666702 8.1275 0.812952Z" fill="url(#paint5_linear_42_1108)"/>
</g>
<path d="M8.1275 0.812952L8.18 24.2717C8.1825 24.918 8.59375 25.4967 9.2175 25.6705C14.885 27.1117 21.2525 27.0142 26.88 25.6642C27.505 25.4955 27.9175 24.918 27.9175 24.2717L27.9712 0.812952C27.7175 0.666702 26.315 0.471703 25.5 0.666703C23.5662 1.19795 20.1787 1.7992 18.05 1.7992C15.9212 1.7992 12.5325 1.19795 10.6 0.666703C9.78375 0.471703 8.38125 0.666702 8.1275 0.812952Z" fill="url(#paint6_radial_42_1108)"/>
<path d="M8.1275 0.812952L8.18 24.2717C8.1825 24.918 8.59375 25.4967 9.2175 25.6705C14.885 27.1117 21.2525 27.0142 26.88 25.6642C27.505 25.4955 27.9175 24.918 27.9175 24.2717L27.9712 0.812952C27.7175 0.666702 26.315 0.471703 25.5 0.666703C23.5662 1.19795 20.1787 1.7992 18.05 1.7992C15.9212 1.7992 12.5325 1.19795 10.6 0.666703C9.78375 0.471703 8.38125 0.666702 8.1275 0.812952Z" fill="url(#paint7_radial_42_1108)"/>
<path d="M10.5325 0.651733L18.03 8.60673L25.1337 0.764234C23.1625 1.26798 20.05 1.79923 18.05 1.79923C15.9212 1.79923 12.5325 1.19798 10.6 0.666734L10.5325 0.651733Z" fill="url(#paint8_radial_42_1108)"/>
<path d="M10.5325 0.651733L18.03 8.60673L25.1337 0.764234C23.1625 1.26798 20.05 1.79923 18.05 1.79923C15.9212 1.79923 12.5325 1.19798 10.6 0.666734L10.5325 0.651733Z" fill="url(#paint9_radial_42_1108)"/>
<g filter="url(#filter2_ii_42_1108)">
<path d="M16.07 7.41421C16.7075 8.13671 17.29 8.79796 17.7725 9.33546C17.8073 9.37445 17.85 9.40564 17.8977 9.42699C17.9454 9.44835 17.9971 9.45939 18.0494 9.45939C18.1016 9.45939 18.1533 9.44835 18.201 9.42699C18.2488 9.40564 18.2914 9.37445 18.3262 9.33546C18.81 8.79796 19.3925 8.13546 20.0287 7.41421C22.1187 5.04046 24.7912 2.07296 26.4287 0.58421C25.9337 0.58421 25.4625 0.44296 25.1475 0.37296C25.0482 0.348605 24.9446 0.347554 24.8449 0.36989C24.7451 0.392226 24.6519 0.437343 24.5725 0.50171C23.2425 1.63921 21.655 3.45171 20.28 5.02296C19.455 5.96671 18.705 6.82296 18.1362 7.38921C18.1129 7.41174 18.0818 7.42433 18.0494 7.42433C18.017 7.42433 17.9858 7.41174 17.9625 7.38921C17.3937 6.82171 16.645 5.96671 15.8187 5.02296C14.4437 3.45296 12.8562 1.63796 11.525 0.50171C11.4457 0.437532 11.3527 0.392524 11.2532 0.370192C11.1537 0.34786 11.0503 0.348807 10.9512 0.37296C10.6362 0.44296 10.165 0.58546 9.67 0.58546C11.3087 2.07296 13.98 5.04046 16.07 7.41421Z" fill="url(#paint10_linear_42_1108)"/>
</g>
<g filter="url(#filter3_f_42_1108)">
<path d="M27.19 1.38044C27.3725 1.37419 27.8937 1.45919 28.5187 1.84919C29.1437 2.24044 32.6462 4.48669 34.3187 5.56044" stroke="#FF8EE2" stroke-width="0.25" stroke-linecap="round"/>
</g>
<g filter="url(#filter4_f_42_1108)">
<path d="M13.2837 1.75171C14.755 2.18796 18.7212 2.79796 22.815 1.75171" stroke="url(#paint11_radial_42_1108)" stroke-width="0.125" stroke-linecap="round"/>
</g>
<defs>
<filter id="filter0_i_42_1108" x="26.72" y="0.480469" width="8.76976" height="13.8063" filterUnits="userSpaceOnUse" color-interpolation-filters="sRGB">
<feFlood flood-opacity="0" result="BackgroundImageFix"/>
<feBlend mode="normal" in="SourceGraphic" in2="BackgroundImageFix" result="shape"/>
<feColorMatrix in="SourceAlpha" type="matrix" values="0 0 0 0 0 0 0 0 0 0 0 0 0 0 0 0 0 0 127 0" result="hardAlpha"/>
<feOffset dx="0.125" dy="-0.25"/>
<feGaussianBlur stdDeviation="0.25"/>
<feComposite in2="hardAlpha" operator="arithmetic" k2="-1" k3="1"/>
<feColorMatrix type="matrix" values="0 0 0 0 0.960784 0 0 0 0 0.305882 0 0 0 0 0.764706 0 0 0 1 0"/>
<feBlend mode="normal" in2="shape" result="effect1_innerShadow_42_1108"/>
</filter>
<filter id="filter1_i_42_1108" x="8.1275" y="0.334656" width="20.0937" height="26.3798" filterUnits="userSpaceOnUse" color-interpolation-filters="sRGB">
<feFlood flood-opacity="0" result="BackgroundImageFix"/>
<feBlend mode="normal" in="SourceGraphic" in2="BackgroundImageFix" result="shape"/>
<feColorMatrix in="SourceAlpha" type="matrix" values="0 0 0 0 0 0 0 0 0 0 0 0 0 0 0 0 0 0 127 0" result="hardAlpha"/>
<feOffset dx="0.25" dy="-0.25"/>
<feGaussianBlur stdDeviation="0.375"/>
<feComposite in2="hardAlpha" operator="arithmetic" k2="-1" k3="1"/>
<feColorMatrix type="matrix" values="0 0 0 0 0.909804 0 0 0 0 0.223529 0 0 0 0 0.717647 0 0 0 1 0"/>
<feBlend mode="normal" in2="shape" result="effect1_innerShadow_42_1108"/>
</filter>
<filter id="filter2_ii_42_1108" x="9.62" y="0.303882" width="16.8588" height="9.20553" filterUnits="userSpaceOnUse" color-interpolation-filters="sRGB">
<feFlood flood-opacity="0" result="BackgroundImageFix"/>
<feBlend mode="normal" in="SourceGraphic" in2="BackgroundImageFix" result="shape"/>
<feColorMatrix in="SourceAlpha" type="matrix" values="0 0 0 0 0 0 0 0 0 0 0 0 0 0 0 0 0 0 127 0" result="hardAlpha"/>
<feOffset dx="-0.05" dy="0.05"/>
<feGaussianBlur stdDeviation="0.0375"/>
<feComposite in2="hardAlpha" operator="arithmetic" k2="-1" k3="1"/>
<feColorMatrix type="matrix" values="0 0 0 0 0.913725 0 0 0 0 0.411765 0 0 0 0 0.662745 0 0 0 1 0"/>
<feBlend mode="normal" in2="shape" result="effect1_innerShadow_42_1108"/>
<feColorMatrix in="SourceAlpha" type="matrix" values="0 0 0 0 0 0 0 0 0 0 0 0 0 0 0 0 0 0 127 0" result="hardAlpha"/>
<feOffset dx="0.05" dy="-0.05"/>
<feGaussianBlur stdDeviation="0.0375"/>
<feComposite in2="hardAlpha" operator="arithmetic" k2="-1" k3="1"/>
<feColorMatrix type="matrix" values="0 0 0 0 0.898039 0 0 0 0 0.247059 0 0 0 0 0.615686 0 0 0 1 0"/>
<feBlend mode="normal" in2="effect1_innerShadow_42_1108" result="effect2_innerShadow_42_1108"/>
</filter>
<filter id="filter3_f_42_1108" x="26.69" y="0.880127" width="8.12877" height="5.18036" filterUnits="userSpaceOnUse" color-interpolation-filters="sRGB">
<feFlood flood-opacity="0" result="BackgroundImageFix"/>
<feBlend mode="normal" in="SourceGraphic" in2="BackgroundImageFix" result="shape"/>
<feGaussianBlur stdDeviation="0.1875" result="effect1_foregroundBlur_42_1108"/>
</filter>
<filter id="filter4_f_42_1108" x="13.0962" y="1.56421" width="9.90628" height="0.952759" filterUnits="userSpaceOnUse" color-interpolation-filters="sRGB">
<feFlood flood-opacity="0" result="BackgroundImageFix"/>
<feBlend mode="normal" in="SourceGraphic" in2="BackgroundImageFix" result="shape"/>
<feGaussianBlur stdDeviation="0.0625" result="effect1_foregroundBlur_42_1108"/>
</filter>
<radialGradient id="paint0_radial_42_1108" cx="0" cy="0" r="1" gradientUnits="userSpaceOnUse" gradientTransform="translate(9.68375 5.46798) rotate(141.499) scale(9.87473 12.8729)">
<stop offset="0.335" stop-color="#F96ACF"/>
<stop offset="1" stop-color="#E44CBA"/>
</radialGradient>
<linearGradient id="paint1_linear_42_1108" x1="8.855" y1="15.1742" x2="5.45125" y2="14.0242" gradientUnits="userSpaceOnUse">
<stop stop-color="#DE47B0"/>
<stop offset="1" stop-color="#DE47B0" stop-opacity="0"/>
</linearGradient>
<linearGradient id="paint2_linear_42_1108" x1="2.9325" y1="3.25548" x2="4.065" y2="4.66173" gradientUnits="userSpaceOnUse">
<stop offset="0.082" stop-color="#E665B5"/>
<stop offset="1" stop-color="#E665B5" stop-opacity="0"/>
</linearGradient>
<linearGradient id="paint3_linear_42_1108" x1="28.2838" y1="1.57547" x2="31.76" y2="13.0605" gradientUnits="userSpaceOnUse">
<stop offset="0.457" stop-color="#FF6ED9"/>
<stop offset="1" stop-color="#FA5BCA"/>
</linearGradient>
<radialGradient id="paint4_radial_42_1108" cx="0" cy="0" r="1" gradientUnits="userSpaceOnUse" gradientTransform="translate(28.1275 6.06797) rotate(90) scale(5.42969 0.898438)">
<stop stop-color="#FF81D9"/>
<stop offset="1" stop-color="#FF81D9" stop-opacity="0"/>
</radialGradient>
<linearGradient id="paint5_linear_42_1108" x1="18.05" y1="8.3342" x2="18.05" y2="26.7142" gradientUnits="userSpaceOnUse">
<stop stop-color="#F972CA"/>
<stop offset="1" stop-color="#F949C4"/>
</linearGradient>
<radialGradient id="paint6_radial_42_1108" cx="0" cy="0" r="1" gradientUnits="userSpaceOnUse" gradientTransform="translate(7.7375 2.00545) rotate(90) scale(14.0625 6.76592)">
<stop offset="0.355" stop-color="#F76AC8"/>
<stop offset="1" stop-color="#F360C4" stop-opacity="0"/>
</radialGradient>
<radialGradient id="paint7_radial_42_1108" cx="0" cy="0" r="1" gradientUnits="userSpaceOnUse" gradientTransform="translate(27.9712 7.9042) rotate(90) scale(12.8516 1.75804)">
<stop offset="0.077" stop-color="#FF83DA"/>
<stop offset="1" stop-color="#FF83DA" stop-opacity="0"/>
</radialGradient>
<radialGradient id="paint8_radial_42_1108" cx="0" cy="0" r="1" gradientUnits="userSpaceOnUse" gradientTransform="translate(17.8337 1.34173) rotate(90) scale(6.79688 10.6513)">
<stop offset="0.247" stop-color="#CE59A3"/>
<stop offset="1" stop-color="#B8387F"/>
</radialGradient>
<radialGradient id="paint9_radial_42_1108" cx="0" cy="0" r="1" gradientUnits="userSpaceOnUse" gradientTransform="translate(22.1517 4.62843) rotate(146.867) scale(7.27698 2.19231)">
<stop stop-color="#BA3A82"/>
<stop offset="1" stop-color="#BA3A82" stop-opacity="0"/>
</radialGradient>
<linearGradient id="paint10_linear_42_1108" x1="25.5887" y1="0.95046" x2="16.9562" y2="8.88046" gradientUnits="userSpaceOnUse">
<stop stop-color="#DD53A4"/>
<stop offset="1" stop-color="#E24B9B"/>
</linearGradient>
<radialGradient id="paint11_radial_42_1108" cx="0" cy="0" r="1" gradientUnits="userSpaceOnUse" gradientTransform="translate(18.05 2.04046) rotate(90) scale(1.1563 6.28906)">
<stop stop-color="#D463A8"/>
<stop offset="1" stop-color="#D463A8" stop-opacity="0"/>
</radialGradient>
</defs>
</svg>
