<svg width="28" height="18" viewBox="0 0 28 18" fill="none" xmlns="http://www.w3.org/2000/svg">
<path fill-rule="evenodd" clip-rule="evenodd" d="M13.5139 1.34318C13.2745 2.31207 13.9838 4.16305 14.8277 4.07521C15.1938 4.03154 15.2318 3.8898 15.1487 2.76362C14.9446 0.085848 13.7026 0.563278 13.5139 1.34318ZM19.1656 5.19704C18.701 5.87263 19.5821 6.25052 20.4 5.73036C21.2325 5.19384 22.2058 4.32035 22.7668 3.70095C23.3579 3.12003 22.6579 2.55772 21.8445 2.94744C20.883 3.39874 19.4843 4.72543 19.1656 5.19704ZM6.2989 1.13164C5.64975 1.21089 6.96196 4.17544 7.75063 4.40702C8.6716 4.67405 8.8029 4.48642 8.39075 3.45437C7.74427 1.82275 7.04322 1.03737 6.2989 1.13164ZM14.2419 7.01733C13.7986 7.27327 13.2537 7.64378 13.0323 7.82752C11.1007 9.5178 11.0768 9.53163 10.5728 8.88008C9.40184 7.39152 7.1923 5.99938 7.15332 8.03473C7.13735 9.26604 7.44206 11.6062 7.48148 12.3662C7.57361 14.3658 7.80442 14.7517 8.90967 14.7845C11.6564 14.8521 15.3467 15.8206 17.8235 17.1223C18.435 17.4482 18.4931 17.3828 18.9112 16.087C19.7549 13.4672 21.9795 11.2883 22.2023 10.4568C22.4529 9.5213 20.4986 9.74708 17.5946 10.9844L17.2983 11.1075L17.0119 10.7776C16.4229 10.1033 15.9626 10.385 16.1537 11.2971C16.3097 12.0377 16.5255 12.3285 17.3468 12.1738C17.8157 12.0868 18.4934 11.8633 19.4605 11.5046C19.8425 11.3639 20.1501 11.2742 20.1425 11.3025C20.1071 11.4348 18.8673 13.7561 18.8648 13.7655L17.4614 13.2578C16.3307 12.9042 16.0364 13.4735 17.1694 13.9695C17.2872 14.0214 18.4562 14.4966 18.4562 14.4966C18.4562 14.4966 18.2672 15.0131 18.0539 15.2801C17.8311 15.5445 17.5746 15.5567 17.2226 15.3207C14.4578 13.5063 9.18922 13.401 9.17977 13.3985C8.99264 13.3787 8.51062 8.60098 8.67836 8.50413C8.70232 8.4903 8.86784 8.66631 9.04905 8.89716C11.111 11.4448 11.3908 11.459 13.8089 9.20029L14.9444 8.13732L15.1322 8.68389C15.6772 10.2782 17.1219 10.0272 16.6696 8.84264C16.5125 8.44608 16.2378 7.84585 15.7909 6.90575C15.5917 6.47764 15.1165 6.51236 14.2419 7.01733ZM26.5734 10.1696C26.18 10.2769 23.9478 11.5018 23.6538 11.7673C23.0198 12.357 23.9028 12.7658 24.916 12.3486C26.0987 11.8654 27.8321 10.9525 27.8777 10.7824C27.9783 10.4448 27.1073 10.0291 26.5734 10.1696ZM1.95471 8.42425C3.24316 9.13408 4.01411 9.43181 4.37151 9.34527C4.9552 9.20797 4.77213 8.94624 3.64365 8.31977C3.53785 8.26104 2.50639 7.65045 1.741 7.44536C1.19294 7.29851 -0.107035 7.27427 1.95471 8.42425Z" fill="black"/>
</svg>
