<svg width="27" height="19" viewBox="0 0 27 19" fill="none" xmlns="http://www.w3.org/2000/svg">
<path fill-rule="evenodd" clip-rule="evenodd" d="M13.5451 2.20486C13.1622 3.12648 13.5836 5.06335 14.4311 5.104C14.7997 5.11615 14.8586 4.98178 14.9466 3.85596C15.1494 1.17809 13.8495 1.46242 13.5451 2.20486ZM18.5497 6.86827C17.9884 7.46593 18.8023 7.97259 19.6895 7.58197C20.5934 7.17735 21.6876 6.46094 22.3356 5.93339C23.0078 5.44843 22.4007 4.78682 21.5378 5.0492C20.5191 5.35006 18.9361 6.45024 18.5497 6.86827ZM6.44489 0.905791C5.79121 0.886068 6.64052 4.01483 7.38516 4.3629C8.25521 4.76599 8.41335 4.60035 8.16184 3.51788C7.76927 1.80733 7.19491 0.925054 6.44489 0.905791ZM13.4076 7.92386C12.9307 8.1099 12.3361 8.39384 12.0895 8.54202C9.92472 9.92111 9.89894 9.93116 9.49918 9.21096C8.56656 7.56258 6.59268 5.85264 6.24667 7.85874C6.04487 9.0735 5.99257 11.4328 5.91672 12.19C5.70572 14.1806 5.87558 14.597 6.96318 14.7964C9.66821 15.2781 13.1698 16.793 15.4216 18.454C15.9768 18.8685 16.0441 18.8126 16.6531 17.5949C17.883 15.1326 20.4111 13.3147 20.757 12.5264C21.1461 11.6395 19.1801 11.5675 16.1225 12.3519L15.811 12.4288L15.5778 12.0595C15.0974 11.3039 14.5998 11.5129 14.6509 12.4433C14.6932 13.199 14.8626 13.519 15.6979 13.4902C16.1746 13.475 16.8782 13.3564 17.8884 13.148C18.2873 13.0666 18.605 13.0244 18.5932 13.0513C18.5381 13.1767 16.9619 15.284 16.958 15.293L15.6474 14.5791C14.5831 14.0587 14.2062 14.577 15.2513 15.2385C15.3599 15.3076 16.4437 15.954 16.4437 15.954C16.4437 15.954 16.1788 16.436 15.9276 16.6676C15.6674 16.8953 15.412 16.8688 15.0998 16.5822C12.6408 14.371 7.44853 13.471 7.43957 13.4671C7.25757 13.4193 7.50285 8.62353 7.68329 8.55314C7.70907 8.54308 7.8461 8.74208 7.99035 8.99765C9.64378 11.8276 9.9182 11.8839 12.6498 10.0164L13.9328 9.13713L14.0359 9.70579C14.3338 11.3641 15.7998 11.3343 15.5316 10.095C15.4363 9.67924 15.2555 9.0444 14.9557 8.04758C14.8234 7.59428 14.3484 7.55682 13.4076 7.92386ZM25.1213 12.9029C24.7163 12.9495 22.3246 13.8231 21.9939 14.0412C21.2781 14.5284 22.0892 15.0658 23.1538 14.8065C24.3959 14.5075 26.2473 13.8669 26.3181 13.7057C26.4685 13.3871 25.6703 12.8446 25.1213 12.9029ZM1.04888 7.45844C2.2153 8.35477 2.93243 8.76555 3.2988 8.734C3.89653 8.68645 3.75511 8.40006 2.73422 7.61031C2.63851 7.53627 1.71113 6.77686 0.9855 6.45851C0.465917 6.23054 -0.81548 6.0102 1.04888 7.45844Z" fill="black"/>
</svg>
