<svg width="34" height="34" viewBox="0 0 34 34" fill="none" xmlns="http://www.w3.org/2000/svg">
<g clip-path="url(#clip0_42_1056)">
<path fill-rule="evenodd" clip-rule="evenodd" d="M15.5139 9.34318C15.2745 10.3121 15.9838 12.1631 16.8277 12.0752C17.1938 12.0315 17.2318 11.8898 17.1487 10.7636C16.9446 8.08585 15.7026 8.56328 15.5139 9.34318ZM21.1656 13.197C20.701 13.8726 21.5821 14.2505 22.4 13.7304C23.2325 13.1938 24.2058 12.3204 24.7668 11.701C25.3579 11.12 24.6579 10.5577 23.8445 10.9474C22.883 11.3987 21.4843 12.7254 21.1656 13.197ZM8.2989 9.13164C7.64975 9.21089 8.96196 12.1754 9.75063 12.407C10.6716 12.6741 10.8029 12.4864 10.3907 11.4544C9.74427 9.82275 9.04322 9.03737 8.2989 9.13164ZM16.2419 15.0173C15.7986 15.2733 15.2537 15.6438 15.0323 15.8275C13.1007 17.5178 13.0768 17.5316 12.5728 16.8801C11.4018 15.3915 9.1923 13.9994 9.15332 16.0347C9.13735 17.266 9.44206 19.6062 9.48148 20.3662C9.57361 22.3658 9.80442 22.7517 10.9097 22.7845C13.6564 22.8521 17.3467 23.8206 19.8235 25.1223C20.435 25.4482 20.4931 25.3828 20.9112 24.087C21.7549 21.4672 23.9795 19.2883 24.2023 18.4568C24.4529 17.5213 22.4986 17.7471 19.5946 18.9844L19.2983 19.1075L19.0119 18.7776C18.4229 18.1033 17.9626 18.385 18.1537 19.2971C18.3097 20.0377 18.5255 20.3285 19.3468 20.1738C19.8157 20.0868 20.4934 19.8633 21.4605 19.5046C21.8425 19.3639 22.1501 19.2742 22.1425 19.3025C22.1071 19.4348 20.8673 21.7561 20.8648 21.7655L19.4614 21.2578C18.3307 20.9042 18.0364 21.4735 19.1694 21.9695C19.2872 22.0214 20.4562 22.4966 20.4562 22.4966C20.4562 22.4966 20.2672 23.0131 20.0539 23.2801C19.8311 23.5445 19.5746 23.5567 19.2226 23.3207C16.4578 21.5063 11.1892 21.401 11.1798 21.3985C10.9926 21.3787 10.5106 16.601 10.6784 16.5041C10.7023 16.4903 10.8678 16.6663 11.049 16.8972C13.111 19.4448 13.3908 19.459 15.8089 17.2003L16.9444 16.1373L17.1322 16.6839C17.6772 18.2782 19.1219 18.0272 18.6696 16.8426C18.5125 16.4461 18.2378 15.8458 17.7909 14.9058C17.5917 14.4776 17.1165 14.5124 16.2419 15.0173ZM28.5734 18.1696C28.18 18.2769 25.9478 19.5018 25.6538 19.7673C25.0198 20.357 25.9028 20.7658 26.916 20.3486C28.0987 19.8654 29.8321 18.9525 29.8777 18.7824C29.9783 18.4448 29.1073 18.0291 28.5734 18.1696ZM3.95471 16.4242C5.24316 17.1341 6.01411 17.4318 6.37151 17.3453C6.9552 17.208 6.77213 16.9462 5.64365 16.3198C5.53785 16.261 4.50639 15.6504 3.741 15.4454C3.19294 15.2985 1.89296 15.2743 3.95471 16.4242Z" fill="black"/>
</g>
<defs>
<clipPath id="clip0_42_1056">
<rect width="27" height="27" fill="white" transform="translate(6.98812) rotate(15)"/>
</clipPath>
</defs>
</svg>
