<svg width="40" height="60" viewBox="0 0 40 60" fill="none" xmlns="http://www.w3.org/2000/svg">
    <rect width="40" height="40" rx="3" fill="#5D5C66" fill-opacity="0.15"/>
    <path d="M29.3762 36.755L9.6725 25.3888L7.5 20L31.25 5.625L35 9.375V33.5075C35 36.3937 31.8762 38.1975 29.3762 36.755Z" fill="url(#paint0_radial_42_1089)"/>
    <path d="M29.3762 36.755L9.6725 25.3888L7.5 20L31.25 5.625L35 9.375V33.5075C35 36.3937 31.8762 38.1975 29.3762 36.755Z" fill="url(#paint1_linear_42_1089)"/>
    <path d="M29.3762 36.755L9.6725 25.3888L7.5 20L31.25 5.625L35 9.375V33.5075C35 36.3937 31.8762 38.1975 29.3762 36.755Z" fill="url(#paint2_linear_42_1089)"/>
    <path d="M35 10.025C24.1975 10.4688 14.8688 16.6238 9.95375 25.55L5.80375 23.1563C3.98875 22.1088 3.37125 19.7613 4.61875 18.0763C12.98 6.795 25.0763 3.35875 31.1763 2.32C33.26 1.965 35 3.6225 35 5.7375V10.025Z" fill="url(#paint3_radial_42_1089)"/>
    <path d="M35 10.025C24.1975 10.4688 14.8688 16.6238 9.95375 25.55L5.80375 23.1563C3.98875 22.1088 3.37125 19.7613 4.61875 18.0763C12.98 6.795 25.0763 3.35875 31.1763 2.32C33.26 1.965 35 3.6225 35 5.7375V10.025Z" fill="url(#paint4_linear_42_1089)"/>
    <path d="M35 10.025C24.1975 10.4688 14.8688 16.6238 9.95375 25.55L5.80375 23.1563C3.98875 22.1088 3.37125 19.7613 4.61875 18.0763C12.98 6.795 25.0763 3.35875 31.1763 2.32C33.26 1.965 35 3.6225 35 5.7375V10.025Z" fill="url(#paint5_radial_42_1089)"/>
    <path d="M32.5 18.125C32.5 19.2853 32.0391 20.3981 31.2186 21.2186C30.3981 22.0391 29.2853 22.5 28.125 22.5C26.9647 22.5 25.8519 22.0391 25.0314 21.2186C24.2109 20.3981 23.75 19.2853 23.75 18.125C23.75 16.9647 24.2109 15.8519 25.0314 15.0314C25.8519 14.2109 26.9647 13.75 28.125 13.75C29.2853 13.75 30.3981 14.2109 31.2186 15.0314C32.0391 15.8519 32.5 16.9647 32.5 18.125Z" fill="url(#paint6_radial_42_1089)"/>
    <path d="M32.5 18.125C32.5 19.2853 32.0391 20.3981 31.2186 21.2186C30.3981 22.0391 29.2853 22.5 28.125 22.5C26.9647 22.5 25.8519 22.0391 25.0314 21.2186C24.2109 20.3981 23.75 19.2853 23.75 18.125C23.75 16.9647 24.2109 15.8519 25.0314 15.0314C25.8519 14.2109 26.9647 13.75 28.125 13.75C29.2853 13.75 30.3981 14.2109 31.2186 15.0314C32.0391 15.8519 32.5 16.9647 32.5 18.125Z" fill="url(#paint7_radial_42_1089)"/>
    <path d="M28.75 31.25C29.413 31.25 30.0489 30.9866 30.5178 30.5178C30.9866 30.0489 31.25 29.413 31.25 28.75C31.25 28.087 30.9866 27.4511 30.5178 26.9822C30.0489 26.5134 29.413 26.25 28.75 26.25C28.087 26.25 27.4511 26.5134 26.9822 26.9822C26.5134 27.4511 26.25 28.087 26.25 28.75C26.25 29.413 26.5134 30.0489 26.9822 30.5178C27.4511 30.9866 28.087 31.25 28.75 31.25Z" fill="url(#paint8_radial_42_1089)"/>
    <path d="M28.75 31.25C29.413 31.25 30.0489 30.9866 30.5178 30.5178C30.9866 30.0489 31.25 29.413 31.25 28.75C31.25 28.087 30.9866 27.4511 30.5178 26.9822C30.0489 26.5134 29.413 26.25 28.75 26.25C28.087 26.25 27.4511 26.5134 26.9822 26.9822C26.5134 27.4511 26.25 28.087 26.25 28.75C26.25 29.413 26.5134 30.0489 26.9822 30.5178C27.4511 30.9866 28.087 31.25 28.75 31.25Z" fill="url(#paint9_radial_42_1089)"/>
    <path d="M22.5 25.625C22.5 26.4538 22.1708 27.2487 21.5847 27.8347C20.9987 28.4208 20.2038 28.75 19.375 28.75C18.5462 28.75 17.7513 28.4208 17.1653 27.8347C16.5792 27.2487 16.25 26.4538 16.25 25.625C16.25 24.7962 16.5792 24.0013 17.1653 23.4153C17.7513 22.8292 18.5462 22.5 19.375 22.5C20.2038 22.5 20.9987 22.8292 21.5847 23.4153C22.1708 24.0013 22.5 24.7962 22.5 25.625Z" fill="#FF3478"/>
    <path d="M22.5 25.625C22.5 26.4538 22.1708 27.2487 21.5847 27.8347C20.9987 28.4208 20.2038 28.75 19.375 28.75C18.5462 28.75 17.7513 28.4208 17.1653 27.8347C16.5792 27.2487 16.25 26.4538 16.25 25.625C16.25 24.7962 16.5792 24.0013 17.1653 23.4153C17.7513 22.8292 18.5462 22.5 19.375 22.5C20.2038 22.5 20.9987 22.8292 21.5847 23.4153C22.1708 24.0013 22.5 24.7962 22.5 25.625Z" fill="url(#paint10_radial_42_1089)"/>
    <path d="M22.5 25.625C22.5 26.4538 22.1708 27.2487 21.5847 27.8347C20.9987 28.4208 20.2038 28.75 19.375 28.75C18.5462 28.75 17.7513 28.4208 17.1653 27.8347C16.5792 27.2487 16.25 26.4538 16.25 25.625C16.25 24.7962 16.5792 24.0013 17.1653 23.4153C17.7513 22.8292 18.5462 22.5 19.375 22.5C20.2038 22.5 20.9987 22.8292 21.5847 23.4153C22.1708 24.0013 22.5 24.7962 22.5 25.625Z" fill="url(#paint11_radial_42_1089)"/>
    <path d="M7.122 56V47.816H11.61V48.773H8.145V51.611H11.445V52.546H8.145V56H7.122ZM15.6213 56.132C13.9273 56.132 12.6513 54.823 12.6513 53.03C12.6513 51.237 13.9273 49.917 15.6213 49.917C17.3043 49.917 18.5693 51.237 18.5693 53.03C18.5693 54.812 17.3043 56.132 15.6213 56.132ZM15.6213 55.186C16.6113 55.186 17.5573 54.394 17.5573 53.03C17.5573 51.655 16.6113 50.863 15.6213 50.863C14.6203 50.863 13.6743 51.655 13.6743 53.03C13.6743 54.405 14.6203 55.186 15.6213 55.186ZM22.6252 56.132C20.9312 56.132 19.6552 54.823 19.6552 53.03C19.6552 51.237 20.9312 49.917 22.6252 49.917C24.3082 49.917 25.5732 51.237 25.5732 53.03C25.5732 54.812 24.3082 56.132 22.6252 56.132ZM22.6252 55.186C23.6152 55.186 24.5612 54.394 24.5612 53.03C24.5612 51.655 23.6152 50.863 22.6252 50.863C21.6242 50.863 20.6782 51.655 20.6782 53.03C20.6782 54.405 21.6242 55.186 22.6252 55.186ZM29.3761 56.132C27.9791 56.132 26.6701 54.922 26.6701 53.03C26.6701 51.116 27.9681 49.917 29.3761 49.917C30.2011 49.917 31.0261 50.335 31.4331 51.083V47.2H32.4451V56H31.6201L31.4991 54.911C31.0481 55.714 30.2231 56.132 29.3761 56.132ZM29.5851 55.186C30.6301 55.186 31.4551 54.306 31.4551 53.019C31.4551 51.743 30.6301 50.863 29.5851 50.863C28.5181 50.863 27.6821 51.743 27.6821 53.03C27.6821 54.306 28.5181 55.186 29.5851 55.186Z" fill="black"/>
    <defs>
    <radialGradient id="paint0_radial_42_1089" cx="0" cy="0" r="1" gradientUnits="userSpaceOnUse" gradientTransform="translate(31.6413 19.6875) rotate(128.873) scale(19.6683 17.096)">
    <stop stop-color="#FFE657"/>
    <stop offset="1" stop-color="#FFC547"/>
    </radialGradient>
    <linearGradient id="paint1_linear_42_1089" x1="16.25" y1="30.4687" x2="19.2975" y2="25.625" gradientUnits="userSpaceOnUse">
    <stop offset="0.231" stop-color="#EA9352"/>
    <stop offset="0.787" stop-color="#EA9353" stop-opacity="0"/>
    </linearGradient>
    <linearGradient id="paint2_linear_42_1089" x1="35" y1="19.1413" x2="33.36" y2="19.1413" gradientUnits="userSpaceOnUse">
    <stop offset="0.238" stop-color="#F5C344"/>
    <stop offset="0.81" stop-color="#FFD059" stop-opacity="0"/>
    </linearGradient>
    <radialGradient id="paint3_radial_42_1089" cx="0" cy="0" r="1" gradientUnits="userSpaceOnUse" gradientTransform="translate(24.8437 18.9065) rotate(145.566) scale(43.383 22.8755)">
    <stop offset="0.278" stop-color="#FFA060"/>
    <stop offset="0.39" stop-color="#FFC48A"/>
    <stop offset="0.455" stop-color="#FFC888"/>
    <stop offset="0.623" stop-color="#E4AF7C"/>
    </radialGradient>
    <linearGradient id="paint4_linear_42_1089" x1="6.25" y1="23.75" x2="10.1563" y2="18.4375" gradientUnits="userSpaceOnUse">
    <stop stop-color="#E79786"/>
    <stop offset="0.783" stop-color="#EA8F85" stop-opacity="0"/>
    </linearGradient>
    <radialGradient id="paint5_radial_42_1089" cx="0" cy="0" r="1" gradientUnits="userSpaceOnUse" gradientTransform="translate(33.5938 5.5475) rotate(81.0851) scale(4.0331 7.85936)">
    <stop stop-color="#FFE498"/>
    <stop offset="1" stop-color="#FFE398" stop-opacity="0"/>
    </radialGradient>
    <radialGradient id="paint6_radial_42_1089" cx="0" cy="0" r="1" gradientUnits="userSpaceOnUse" gradientTransform="translate(30.3123 17.1106) rotate(137.626) scale(6.02779)">
    <stop stop-color="#FF8DA2"/>
    <stop offset="1" stop-color="#FF2B43"/>
    </radialGradient>
    <radialGradient id="paint7_radial_42_1089" cx="0" cy="0" r="1" gradientUnits="userSpaceOnUse" gradientTransform="translate(27.4996 21.0163) rotate(101.611) scale(5.82228)">
    <stop offset="0.393" stop-color="#F63080"/>
    <stop offset="1" stop-color="#F73184" stop-opacity="0"/>
    </radialGradient>
    <radialGradient id="paint8_radial_42_1089" cx="0" cy="0" r="1" gradientUnits="userSpaceOnUse" gradientTransform="translate(29.9997 28.1717) rotate(137.626) scale(3.44445)">
    <stop stop-color="#FF8DA2"/>
    <stop offset="1" stop-color="#FF2B43"/>
    </radialGradient>
    <radialGradient id="paint9_radial_42_1089" cx="0" cy="0" r="1" gradientUnits="userSpaceOnUse" gradientTransform="translate(28.3933 30.4025) rotate(101.611) scale(3.32701)">
    <stop offset="0.393" stop-color="#F63080"/>
    <stop offset="1" stop-color="#F73184" stop-opacity="0"/>
    </radialGradient>
    <radialGradient id="paint10_radial_42_1089" cx="0" cy="0" r="1" gradientUnits="userSpaceOnUse" gradientTransform="translate(20.9365 24.8997) rotate(137.626) scale(4.30556)">
    <stop stop-color="#FF8DA2"/>
    <stop offset="1" stop-color="#FF2B43"/>
    </radialGradient>
    <radialGradient id="paint11_radial_42_1089" cx="0" cy="0" r="1" gradientUnits="userSpaceOnUse" gradientTransform="translate(18.9289 27.69) rotate(101.611) scale(4.15877)">
    <stop offset="0.393" stop-color="#F63080"/>
    <stop offset="1" stop-color="#F73184" stop-opacity="0"/>
    </radialGradient>
    </defs>
    </svg>
    