<svg width="22" height="21" viewBox="0 0 22 21" fill="none" xmlns="http://www.w3.org/2000/svg">
<path d="M21.184 8.39819H20.3428V8.35485H10.9436V12.5323H16.8457C15.9847 14.9641 13.6709 16.7097 10.9436 16.7097C7.48308 16.7097 4.67742 13.904 4.67742 10.4436C4.67742 6.98308 7.48308 4.17742 10.9436 4.17742C12.5409 4.17742 13.9941 4.78002 15.1006 5.76432L18.0546 2.81036C16.1894 1.07203 13.6944 0 10.9436 0C5.1761 0 0.5 4.6761 0.5 10.4436C0.5 16.211 5.1761 20.8871 10.9436 20.8871C16.711 20.8871 21.3871 16.211 21.3871 10.4436C21.3871 9.74332 21.3151 9.05979 21.184 8.39819Z" fill="#FFC107"/>
<path d="M1.70414 5.5826L5.13537 8.09898C6.0638 5.80035 8.3123 4.17742 10.9436 4.17742C12.5409 4.17742 13.9941 4.78002 15.1006 5.76432L18.0546 2.81036C16.1894 1.07203 13.6944 0 10.9436 0C6.93219 0 3.45344 2.26469 1.70414 5.5826Z" fill="#FF3D00"/>
<path d="M10.9436 20.8871C13.6411 20.8871 16.0922 19.8548 17.9454 18.176L14.7132 15.4408C13.6646 16.235 12.3613 16.7097 10.9436 16.7097C8.22719 16.7097 5.92073 14.9776 5.05182 12.5605L1.64618 15.1844C3.37459 18.5665 6.88467 20.8871 10.9436 20.8871Z" fill="#4CAF50"/>
<path d="M21.184 8.39818H20.3428V8.35484H10.9436V12.5323H16.8457C16.4322 13.7004 15.6808 14.7077 14.7116 15.4413C14.7121 15.4408 14.7126 15.4408 14.7132 15.4403L17.9454 18.1754C17.7167 18.3833 21.3871 15.6653 21.3871 10.4436C21.3871 9.74331 21.3151 9.05978 21.184 8.39818Z" fill="#1976D2"/>
</svg>
