<svg width="36" height="36" viewBox="0 0 36 36" fill="none" xmlns="http://www.w3.org/2000/svg">
<path fill-rule="evenodd" clip-rule="evenodd" d="M14.0925 6.27498C14.025 7.06748 13.0675 7.46498 12.4588 6.94998C11.6638 6.27498 10.82 5.61623 10.1925 5.26498C8.49001 4.30873 7.46876 4.12123 5.82126 5.72748L5.77751 5.77248L5.75251 5.79748L5.73251 5.81748C4.12751 7.46498 4.31251 8.48498 5.27001 10.1875C5.62501 10.8225 6.29501 11.6775 6.97751 12.4812C7.49376 13.0887 7.09626 14.05 6.30126 14.115C5.25126 14.2012 4.17376 14.3325 3.47376 14.5275C1.59376 15.0562 0.740007 15.6462 0.710007 17.9462V18.0737C0.740007 20.3737 1.59376 20.9637 3.47251 21.4912C4.16251 21.685 5.22001 21.815 6.25501 21.9012C7.04876 21.9675 7.44626 22.9262 6.93126 23.5337C6.26626 24.3212 5.61751 25.1537 5.26876 25.7725C4.31251 27.475 4.12751 28.4962 5.73251 30.1437L5.75251 30.165L5.77751 30.19L5.82126 30.2337C7.46876 31.8387 8.49001 31.6525 10.1925 30.6962C10.8275 30.34 11.685 29.6675 12.49 28.9837C13.0988 28.4687 14.0588 28.8662 14.1238 29.6612C14.2113 30.7112 14.3413 31.7912 14.5388 32.4925C15.0663 34.3725 15.6563 35.2262 17.9563 35.255H18.0825C20.3825 35.225 20.9738 34.3725 21.5013 32.4925C21.6925 31.81 21.8213 30.7687 21.9075 29.745C21.975 28.9512 22.9325 28.555 23.5413 29.07C24.3363 29.7437 25.18 30.4025 25.8075 30.755C27.51 31.7112 28.53 31.8975 30.1788 30.2925L30.2225 30.2475L30.2375 30.2325L30.2475 30.2225L30.2675 30.2025C31.8725 28.555 31.6875 27.5337 30.73 25.8312C30.375 25.1975 29.705 24.3412 29.0225 23.5387C28.5063 22.93 28.9038 21.97 29.6988 21.905C30.7488 21.8175 31.8263 21.6875 32.5263 21.4912C34.4063 20.9637 35.26 20.3737 35.29 18.0737V17.9462C35.26 15.6462 34.4063 15.0562 32.5275 14.5287C31.8375 14.335 30.78 14.205 29.745 14.1187C28.9513 14.0525 28.5538 13.0937 29.0688 12.4862C29.7338 11.6987 30.3825 10.8662 30.7313 10.2462C31.6875 8.54373 31.8725 7.52373 30.2675 5.87623L30.2475 5.85498L30.2225 5.82998L30.1788 5.78623C28.53 4.17998 27.51 4.36623 25.8075 5.32373C25.1725 5.67998 24.315 6.35248 23.51 7.03623C22.9013 7.55123 21.9413 7.15373 21.875 6.35873C21.7888 5.30873 21.6588 4.22748 21.4625 3.52748C20.935 1.64748 20.3438 0.793733 18.0438 0.763733H17.9175C15.6175 0.793733 15.0263 1.64748 14.4988 3.52623C14.3075 4.20873 14.1788 5.25248 14.0925 6.27498ZM17.995 24.7662C19.7872 24.7662 21.506 24.0543 22.7733 22.787C24.0406 21.5197 24.7525 19.8009 24.7525 18.0087C24.7525 16.2165 24.0406 14.4977 22.7733 13.2305C21.506 11.9632 19.7872 11.2512 17.995 11.2512C16.2028 11.2512 14.484 11.9632 13.2167 13.2305C11.9495 14.4977 11.2375 16.2165 11.2375 18.0087C11.2375 19.8009 11.9495 21.5197 13.2167 22.787C14.484 24.0543 16.2028 24.7662 17.995 24.7662Z" fill="url(#paint0_linear_42_1070)"/>
<g filter="url(#filter0_iii_42_1070)">
<path fill-rule="evenodd" clip-rule="evenodd" d="M14.0925 6.27498C14.025 7.06748 13.0675 7.46498 12.4588 6.94998C11.6638 6.27498 10.82 5.61623 10.1925 5.26498C8.49001 4.30873 7.46876 4.12123 5.82126 5.72748L5.77751 5.77248L5.75251 5.79748L5.73251 5.81748C4.12751 7.46498 4.31251 8.48498 5.27001 10.1875C5.62501 10.8225 6.29501 11.6775 6.97751 12.4812C7.49376 13.0887 7.09626 14.05 6.30126 14.115C5.25126 14.2012 4.17376 14.3325 3.47376 14.5275C1.59376 15.0562 0.740007 15.6462 0.710007 17.9462V18.0737C0.740007 20.3737 1.59376 20.9637 3.47251 21.4912C4.16251 21.685 5.22001 21.815 6.25501 21.9012C7.04876 21.9675 7.44626 22.9262 6.93126 23.5337C6.26626 24.3212 5.61751 25.1537 5.26876 25.7725C4.31251 27.475 4.12751 28.4962 5.73251 30.1437L5.75251 30.165L5.77751 30.19L5.82126 30.2337C7.46876 31.8387 8.49001 31.6525 10.1925 30.6962C10.8275 30.34 11.685 29.6675 12.49 28.9837C13.0988 28.4687 14.0588 28.8662 14.1238 29.6612C14.2113 30.7112 14.3413 31.7912 14.5388 32.4925C15.0663 34.3725 15.6563 35.2262 17.9563 35.255H18.0825C20.3825 35.225 20.9738 34.3725 21.5013 32.4925C21.6925 31.81 21.8213 30.7687 21.9075 29.745C21.975 28.9512 22.9325 28.555 23.5413 29.07C24.3363 29.7437 25.18 30.4025 25.8075 30.755C27.51 31.7112 28.53 31.8975 30.1788 30.2925L30.2225 30.2475L30.2375 30.2325L30.2475 30.2225L30.2675 30.2025C31.8725 28.555 31.6875 27.5337 30.73 25.8312C30.375 25.1975 29.705 24.3412 29.0225 23.5387C28.5063 22.93 28.9038 21.97 29.6988 21.905C30.7488 21.8175 31.8263 21.6875 32.5263 21.4912C34.4063 20.9637 35.26 20.3737 35.29 18.0737V17.9462C35.26 15.6462 34.4063 15.0562 32.5275 14.5287C31.8375 14.335 30.78 14.205 29.745 14.1187C28.9513 14.0525 28.5538 13.0937 29.0688 12.4862C29.7338 11.6987 30.3825 10.8662 30.7313 10.2462C31.6875 8.54373 31.8725 7.52373 30.2675 5.87623L30.2475 5.85498L30.2225 5.82998L30.1788 5.78623C28.53 4.17998 27.51 4.36623 25.8075 5.32373C25.1725 5.67998 24.315 6.35248 23.51 7.03623C22.9013 7.55123 21.9413 7.15373 21.875 6.35873C21.7888 5.30873 21.6588 4.22748 21.4625 3.52748C20.935 1.64748 20.3438 0.793733 18.0438 0.763733H17.9175C15.6175 0.793733 15.0263 1.64748 14.4988 3.52623C14.3075 4.20873 14.1788 5.25248 14.0925 6.27498ZM17.995 24.7662C19.7872 24.7662 21.506 24.0543 22.7733 22.787C24.0406 21.5197 24.7525 19.8009 24.7525 18.0087C24.7525 16.2165 24.0406 14.4977 22.7733 13.2305C21.506 11.9632 19.7872 11.2512 17.995 11.2512C16.2028 11.2512 14.484 11.9632 13.2167 13.2305C11.9495 14.4977 11.2375 16.2165 11.2375 18.0087C11.2375 19.8009 11.9495 21.5197 13.2167 22.787C14.484 24.0543 16.2028 24.7662 17.995 24.7662Z" fill="url(#paint1_linear_42_1070)"/>
</g>
<g filter="url(#filter1_f_42_1070)">
<path fill-rule="evenodd" clip-rule="evenodd" d="M18 28.185C20.6986 28.185 23.2866 27.113 25.1948 25.2048C27.103 23.2966 28.175 20.7085 28.175 18.01C28.175 15.3114 27.103 12.7233 25.1948 10.8151C23.2866 8.90697 20.6986 7.83496 18 7.83496C15.3014 7.83496 12.7134 8.90697 10.8052 10.8151C8.89702 12.7233 7.82501 15.3114 7.82501 18.01C7.82501 20.7085 8.89702 23.2966 10.8052 25.2048C12.7134 27.113 15.3014 28.185 18 28.185ZM18 24.2637C19.6586 24.2637 21.2493 23.6048 22.4221 22.432C23.5949 21.2592 24.2538 19.6686 24.2538 18.01C24.2538 16.3514 23.5949 14.7607 22.4221 13.5879C21.2493 12.4151 19.6586 11.7562 18 11.7562C16.3414 11.7562 14.7507 12.4151 13.5779 13.5879C12.4051 14.7607 11.7463 16.3514 11.7463 18.01C11.7463 19.6686 12.4051 21.2592 13.5779 22.432C14.7507 23.6048 16.3414 24.2637 18 24.2637Z" fill="url(#paint2_linear_42_1070)"/>
<path fill-rule="evenodd" clip-rule="evenodd" d="M18 28.185C20.6986 28.185 23.2866 27.113 25.1948 25.2048C27.103 23.2966 28.175 20.7085 28.175 18.01C28.175 15.3114 27.103 12.7233 25.1948 10.8151C23.2866 8.90697 20.6986 7.83496 18 7.83496C15.3014 7.83496 12.7134 8.90697 10.8052 10.8151C8.89702 12.7233 7.82501 15.3114 7.82501 18.01C7.82501 20.7085 8.89702 23.2966 10.8052 25.2048C12.7134 27.113 15.3014 28.185 18 28.185ZM18 24.2637C19.6586 24.2637 21.2493 23.6048 22.4221 22.432C23.5949 21.2592 24.2538 19.6686 24.2538 18.01C24.2538 16.3514 23.5949 14.7607 22.4221 13.5879C21.2493 12.4151 19.6586 11.7562 18 11.7562C16.3414 11.7562 14.7507 12.4151 13.5779 13.5879C12.4051 14.7607 11.7463 16.3514 11.7463 18.01C11.7463 19.6686 12.4051 21.2592 13.5779 22.432C14.7507 23.6048 16.3414 24.2637 18 24.2637Z" fill="url(#paint3_radial_42_1070)"/>
</g>
<g filter="url(#filter2_i_42_1070)">
<path fill-rule="evenodd" clip-rule="evenodd" d="M18 27.8775C19.3053 27.8922 20.6004 27.6478 21.8106 27.1585C23.0207 26.6691 24.1218 25.9446 25.05 25.0268C25.9781 24.109 26.715 23.0162 27.2179 21.8116C27.7209 20.6071 27.9798 19.3147 27.9798 18.0094C27.9798 16.704 27.7209 15.4117 27.2179 14.2071C26.715 13.0026 25.9781 11.9098 25.05 10.992C24.1218 10.0742 23.0207 9.34962 21.8106 8.86029C20.6004 8.37096 19.3053 8.12656 18 8.14125C15.3827 8.14125 12.8725 9.18099 11.0217 11.0317C9.171 12.8825 8.13126 15.3926 8.13126 18.01C8.13126 20.6274 9.171 23.1375 11.0217 24.9883C12.8725 26.839 15.3827 27.8775 18 27.8775ZM18 24.075C18.8037 24.0865 19.6017 23.9382 20.3476 23.6386C21.0935 23.339 21.7723 22.8942 22.3448 22.3299C22.9172 21.7656 23.3718 21.0932 23.682 20.3517C23.9923 19.6102 24.1521 18.8144 24.1521 18.0106C24.1521 17.2068 23.9923 16.4111 23.682 15.6696C23.3718 14.9281 22.9172 14.2556 22.3448 13.6913C21.7723 13.1271 21.0935 12.6822 20.3476 12.3826C19.6017 12.083 18.8037 11.9347 18 11.9462C16.4067 11.9691 14.8864 12.6181 13.7678 13.7529C12.6492 14.8877 12.0221 16.4172 12.0221 18.0106C12.0221 19.6041 12.6492 21.1335 13.7678 22.2683C14.8864 23.4031 16.4067 24.0521 18 24.075Z" fill="url(#paint4_radial_42_1070)"/>
</g>
<g filter="url(#filter3_f_42_1070)">
<path fill-rule="evenodd" clip-rule="evenodd" d="M18 24.895C18.9042 24.895 19.7995 24.7169 20.6348 24.3709C21.4701 24.0249 22.2291 23.5178 22.8684 22.8784C23.5078 22.2391 24.0149 21.4801 24.3609 20.6448C24.7069 19.8094 24.885 18.9142 24.885 18.01C24.885 17.1058 24.7069 16.2106 24.3609 15.3752C24.0149 14.5399 23.5078 13.7809 22.8684 13.1416C22.2291 12.5022 21.4701 11.9951 20.6348 11.6491C19.7995 11.3031 18.9042 11.125 18 11.125C16.174 11.125 14.4228 11.8504 13.1316 13.1416C11.8404 14.4328 11.115 16.184 11.115 18.01C11.115 19.836 11.8404 21.5872 13.1316 22.8784C14.4228 24.1696 16.174 24.895 18 24.895ZM24.065 18.01C24.065 18.8065 23.9081 19.5951 23.6033 20.331C23.2985 21.0668 22.8518 21.7354 22.2886 22.2986C21.7254 22.8618 21.0568 23.3085 20.321 23.6133C19.5851 23.9181 18.7965 24.075 18 24.075C17.2035 24.075 16.4149 23.9181 15.679 23.6133C14.9432 23.3085 14.2746 22.8618 13.7114 22.2986C13.1482 21.7354 12.7015 21.0668 12.3967 20.331C12.0919 19.5951 11.935 18.8065 11.935 18.01C11.935 16.4015 12.574 14.8588 13.7114 13.7214C14.8488 12.584 16.3915 11.945 18 11.945C19.6085 11.945 21.1512 12.584 22.2886 13.7214C23.426 14.8588 24.065 16.4015 24.065 18.01Z" fill="url(#paint5_linear_42_1070)"/>
</g>
<path fill-rule="evenodd" clip-rule="evenodd" d="M18 24.8462C19.8131 24.8462 21.5519 24.126 22.834 22.8439C24.116 21.5619 24.8363 19.823 24.8363 18.01C24.8363 16.1969 24.116 14.458 22.834 13.176C21.5519 11.894 19.8131 11.1737 18 11.1737C16.1869 11.1737 14.4481 11.894 13.166 13.176C11.884 14.458 11.1638 16.1969 11.1638 18.01C11.1638 19.823 11.884 21.5619 13.166 22.8439C14.4481 24.126 16.1869 24.8462 18 24.8462ZM18 23.42C19.4348 23.42 20.8109 22.85 21.8255 21.8354C22.84 20.8208 23.41 19.4448 23.41 18.01C23.41 16.5751 22.84 15.1991 21.8255 14.1845C20.8109 13.1699 19.4348 12.6 18 12.6C16.5652 12.6 15.1891 13.1699 14.1746 14.1845C13.16 15.1991 12.59 16.5751 12.59 18.01C12.59 19.4448 13.16 20.8208 14.1746 21.8354C15.1891 22.85 16.5652 23.42 18 23.42Z" fill="url(#paint6_radial_42_1070)"/>
<path fill-rule="evenodd" clip-rule="evenodd" d="M18 24.8462C19.8131 24.8462 21.5519 24.126 22.834 22.8439C24.116 21.5619 24.8363 19.823 24.8363 18.01C24.8363 16.1969 24.116 14.458 22.834 13.176C21.5519 11.894 19.8131 11.1737 18 11.1737C16.1869 11.1737 14.4481 11.894 13.166 13.176C11.884 14.458 11.1638 16.1969 11.1638 18.01C11.1638 19.823 11.884 21.5619 13.166 22.8439C14.4481 24.126 16.1869 24.8462 18 24.8462ZM18 23.42C19.4348 23.42 20.8109 22.85 21.8255 21.8354C22.84 20.8208 23.41 19.4448 23.41 18.01C23.41 16.5751 22.84 15.1991 21.8255 14.1845C20.8109 13.1699 19.4348 12.6 18 12.6C16.5652 12.6 15.1891 13.1699 14.1746 14.1845C13.16 15.1991 12.59 16.5751 12.59 18.01C12.59 19.4448 13.16 20.8208 14.1746 21.8354C15.1891 22.85 16.5652 23.42 18 23.42Z" fill="url(#paint7_radial_42_1070)"/>
<path fill-rule="evenodd" clip-rule="evenodd" d="M18 24.1812C18.8179 24.1929 19.63 24.0418 20.389 23.7369C21.148 23.4319 21.8388 22.9792 22.4213 22.4049C23.0038 21.8306 23.4663 21.1463 23.7821 20.3917C24.0978 19.6371 24.2603 18.8273 24.2603 18.0094C24.2603 17.1914 24.0978 16.3816 23.7821 15.627C23.4663 14.8724 23.0038 14.1881 22.4213 13.6138C21.8388 13.0395 21.148 12.5868 20.389 12.2818C19.63 11.9769 18.8179 11.8258 18 11.8375C16.3783 11.8606 14.8309 12.521 13.6923 13.6759C12.5537 14.8308 11.9153 16.3875 11.9153 18.0094C11.9153 19.6312 12.5537 21.1879 13.6923 22.3428C14.8309 23.4977 16.3783 24.1581 18 24.1812ZM23.41 18.01C23.41 19.4448 22.84 20.8209 21.8255 21.8354C20.8109 22.85 19.4348 23.42 18 23.42C16.5652 23.42 15.1891 22.85 14.1746 21.8354C13.16 20.8209 12.59 19.4448 12.59 18.01C12.59 16.5752 13.16 15.1991 14.1746 14.1845C15.1891 13.17 16.5652 12.6 18 12.6C19.4348 12.6 20.8109 13.17 21.8255 14.1845C22.84 15.1991 23.41 16.5752 23.41 18.01Z" fill="url(#paint8_radial_42_1070)"/>
<path fill-rule="evenodd" clip-rule="evenodd" d="M18 24.1812C18.8179 24.1929 19.63 24.0418 20.389 23.7369C21.148 23.4319 21.8388 22.9792 22.4213 22.4049C23.0038 21.8306 23.4663 21.1463 23.7821 20.3917C24.0978 19.6371 24.2603 18.8273 24.2603 18.0094C24.2603 17.1914 24.0978 16.3816 23.7821 15.627C23.4663 14.8724 23.0038 14.1881 22.4213 13.6138C21.8388 13.0395 21.148 12.5868 20.389 12.2818C19.63 11.9769 18.8179 11.8258 18 11.8375C16.3783 11.8606 14.8309 12.521 13.6923 13.6759C12.5537 14.8308 11.9153 16.3875 11.9153 18.0094C11.9153 19.6312 12.5537 21.1879 13.6923 22.3428C14.8309 23.4977 16.3783 24.1581 18 24.1812ZM23.41 18.01C23.41 19.4448 22.84 20.8209 21.8255 21.8354C20.8109 22.85 19.4348 23.42 18 23.42C16.5652 23.42 15.1891 22.85 14.1746 21.8354C13.16 20.8209 12.59 19.4448 12.59 18.01C12.59 16.5752 13.16 15.1991 14.1746 14.1845C15.1891 13.17 16.5652 12.6 18 12.6C19.4348 12.6 20.8109 13.17 21.8255 14.1845C22.84 15.1991 23.41 16.5752 23.41 18.01Z" fill="url(#paint9_radial_42_1070)"/>
<path fill-rule="evenodd" clip-rule="evenodd" d="M18 24.1812C18.8179 24.1929 19.63 24.0418 20.389 23.7369C21.148 23.4319 21.8388 22.9792 22.4213 22.4049C23.0038 21.8306 23.4663 21.1463 23.7821 20.3917C24.0978 19.6371 24.2603 18.8273 24.2603 18.0094C24.2603 17.1914 24.0978 16.3816 23.7821 15.627C23.4663 14.8724 23.0038 14.1881 22.4213 13.6138C21.8388 13.0395 21.148 12.5868 20.389 12.2818C19.63 11.9769 18.8179 11.8258 18 11.8375C16.3783 11.8606 14.8309 12.521 13.6923 13.6759C12.5537 14.8308 11.9153 16.3875 11.9153 18.0094C11.9153 19.6312 12.5537 21.1879 13.6923 22.3428C14.8309 23.4977 16.3783 24.1581 18 24.1812ZM23.41 18.01C23.41 19.4448 22.84 20.8209 21.8255 21.8354C20.8109 22.85 19.4348 23.42 18 23.42C16.5652 23.42 15.1891 22.85 14.1746 21.8354C13.16 20.8209 12.59 19.4448 12.59 18.01C12.59 16.5752 13.16 15.1991 14.1746 14.1845C15.1891 13.17 16.5652 12.6 18 12.6C19.4348 12.6 20.8109 13.17 21.8255 14.1845C22.84 15.1991 23.41 16.5752 23.41 18.01Z" fill="url(#paint10_radial_42_1070)"/>
<g filter="url(#filter4_f_42_1070)">
<path d="M18 24.1812C18.8179 24.1929 19.63 24.0418 20.389 23.7369C21.148 23.4319 21.8388 22.9792 22.4213 22.4049C23.0038 21.8306 23.4663 21.1463 23.7821 20.3917C24.0978 19.6371 24.2603 18.8273 24.2603 18.0094C24.2603 17.1914 24.0978 16.3816 23.7821 15.627C23.4663 14.8724 23.0038 14.1881 22.4213 13.6138C21.8388 13.0395 21.148 12.5868 20.389 12.2818C19.63 11.9769 18.8179 11.8258 18 11.8375C16.3783 11.8606 14.8309 12.521 13.6923 13.6759C12.5537 14.8308 11.9153 16.3875 11.9153 18.0094C11.9153 19.6312 12.5537 21.1879 13.6923 22.3428C14.8309 23.4977 16.3783 24.1581 18 24.1812Z" stroke="url(#paint11_radial_42_1070)" stroke-width="0.178125"/>
</g>
<defs>
<filter id="filter0_iii_42_1070" x="0.353757" y="0.407483" width="35.2925" height="35.2038" filterUnits="userSpaceOnUse" color-interpolation-filters="sRGB">
<feFlood flood-opacity="0" result="BackgroundImageFix"/>
<feBlend mode="normal" in="SourceGraphic" in2="BackgroundImageFix" result="shape"/>
<feColorMatrix in="SourceAlpha" type="matrix" values="0 0 0 0 0 0 0 0 0 0 0 0 0 0 0 0 0 0 127 0" result="hardAlpha"/>
<feOffset dx="0.35625" dy="-0.35625"/>
<feGaussianBlur stdDeviation="0.35625"/>
<feComposite in2="hardAlpha" operator="arithmetic" k2="-1" k3="1"/>
<feColorMatrix type="matrix" values="0 0 0 0 0.615686 0 0 0 0 0.533333 0 0 0 0 0.717647 0 0 0 1 0"/>
<feBlend mode="normal" in2="shape" result="effect1_innerShadow_42_1070"/>
<feColorMatrix in="SourceAlpha" type="matrix" values="0 0 0 0 0 0 0 0 0 0 0 0 0 0 0 0 0 0 127 0" result="hardAlpha"/>
<feOffset dx="-0.35625" dy="0.35625"/>
<feGaussianBlur stdDeviation="0.35625"/>
<feComposite in2="hardAlpha" operator="arithmetic" k2="-1" k3="1"/>
<feColorMatrix type="matrix" values="0 0 0 0 0.941176 0 0 0 0 0.941176 0 0 0 0 0.960784 0 0 0 1 0"/>
<feBlend mode="normal" in2="effect1_innerShadow_42_1070" result="effect2_innerShadow_42_1070"/>
<feColorMatrix in="SourceAlpha" type="matrix" values="0 0 0 0 0 0 0 0 0 0 0 0 0 0 0 0 0 0 127 0" result="hardAlpha"/>
<feOffset dx="0.35625" dy="0.178125"/>
<feGaussianBlur stdDeviation="0.35625"/>
<feComposite in2="hardAlpha" operator="arithmetic" k2="-1" k3="1"/>
<feColorMatrix type="matrix" values="0 0 0 0 0.607843 0 0 0 0 0.6 0 0 0 0 0.631373 0 0 0 1 0"/>
<feBlend mode="normal" in2="effect2_innerShadow_42_1070" result="effect3_innerShadow_42_1070"/>
</filter>
<filter id="filter1_f_42_1070" x="6.93439" y="6.94434" width="22.1313" height="22.1312" filterUnits="userSpaceOnUse" color-interpolation-filters="sRGB">
<feFlood flood-opacity="0" result="BackgroundImageFix"/>
<feBlend mode="normal" in="SourceGraphic" in2="BackgroundImageFix" result="shape"/>
<feGaussianBlur stdDeviation="0.445312" result="effect1_foregroundBlur_42_1070"/>
</filter>
<filter id="filter2_i_42_1070" x="8.13126" y="7.69531" width="20.2939" height="20.1828" filterUnits="userSpaceOnUse" color-interpolation-filters="sRGB">
<feFlood flood-opacity="0" result="BackgroundImageFix"/>
<feBlend mode="normal" in="SourceGraphic" in2="BackgroundImageFix" result="shape"/>
<feColorMatrix in="SourceAlpha" type="matrix" values="0 0 0 0 0 0 0 0 0 0 0 0 0 0 0 0 0 0 127 0" result="hardAlpha"/>
<feOffset dx="0.445312" dy="-0.445312"/>
<feGaussianBlur stdDeviation="0.445312"/>
<feComposite in2="hardAlpha" operator="arithmetic" k2="-1" k3="1"/>
<feColorMatrix type="matrix" values="0 0 0 0 0.596078 0 0 0 0 0.521569 0 0 0 0 0.682353 0 0 0 1 0"/>
<feBlend mode="normal" in2="shape" result="effect1_innerShadow_42_1070"/>
</filter>
<filter id="filter3_f_42_1070" x="10.9369" y="10.9469" width="14.1263" height="14.1263" filterUnits="userSpaceOnUse" color-interpolation-filters="sRGB">
<feFlood flood-opacity="0" result="BackgroundImageFix"/>
<feBlend mode="normal" in="SourceGraphic" in2="BackgroundImageFix" result="shape"/>
<feGaussianBlur stdDeviation="0.0890625" result="effect1_foregroundBlur_42_1070"/>
</filter>
<filter id="filter4_f_42_1070" x="11.6482" y="11.5697" width="12.8794" height="12.8794" filterUnits="userSpaceOnUse" color-interpolation-filters="sRGB">
<feFlood flood-opacity="0" result="BackgroundImageFix"/>
<feBlend mode="normal" in="SourceGraphic" in2="BackgroundImageFix" result="shape"/>
<feGaussianBlur stdDeviation="0.0890625" result="effect1_foregroundBlur_42_1070"/>
</filter>
<linearGradient id="paint0_linear_42_1070" x1="30.2663" y1="5.57873" x2="5.65626" y2="30.11" gradientUnits="userSpaceOnUse">
<stop stop-color="#DED7EB"/>
<stop offset="1" stop-color="#C1B4D6"/>
</linearGradient>
<linearGradient id="paint1_linear_42_1070" x1="30.2663" y1="5.57873" x2="5.65626" y2="30.11" gradientUnits="userSpaceOnUse">
<stop stop-color="#DED7EB"/>
<stop offset="1" stop-color="#C1B4D6"/>
</linearGradient>
<linearGradient id="paint2_linear_42_1070" x1="24.25" y1="9.80621" x2="14.9925" y2="27.9225" gradientUnits="userSpaceOnUse">
<stop stop-color="#D0CCD9"/>
<stop offset="0.837" stop-color="#A38EBE"/>
</linearGradient>
<radialGradient id="paint3_radial_42_1070" cx="0" cy="0" r="1" gradientUnits="userSpaceOnUse" gradientTransform="translate(9.64084 12.5312) rotate(26.764) scale(5.03119 13.9295)">
<stop stop-color="#908B9A"/>
<stop offset="1" stop-color="#908B9A" stop-opacity="0"/>
</radialGradient>
<radialGradient id="paint4_radial_42_1070" cx="0" cy="0" r="1" gradientUnits="userSpaceOnUse" gradientTransform="translate(24.2116 11.945) rotate(133.81) scale(18.6209 24.2929)">
<stop offset="0.033" stop-color="#E5DFF0"/>
<stop offset="1" stop-color="#9B8BAE"/>
</radialGradient>
<linearGradient id="paint5_linear_42_1070" x1="21.6325" y1="11.75" x2="18" y2="24.895" gradientUnits="userSpaceOnUse">
<stop stop-color="#AEA9B7"/>
<stop offset="1" stop-color="#9888AC"/>
</linearGradient>
<radialGradient id="paint6_radial_42_1070" cx="0" cy="0" r="1" gradientUnits="userSpaceOnUse" gradientTransform="translate(23.5459 13.9782) rotate(128.71) scale(13.929)">
<stop stop-color="#E6E0F1"/>
<stop offset="1" stop-color="#A89ABA"/>
</radialGradient>
<radialGradient id="paint7_radial_42_1070" cx="0" cy="0" r="1" gradientUnits="userSpaceOnUse" gradientTransform="translate(11.985 14.2112) rotate(32.5741) scale(6.675 13.4561)">
<stop stop-color="#90899A"/>
<stop offset="1" stop-color="#90899A" stop-opacity="0"/>
</radialGradient>
<radialGradient id="paint8_radial_42_1070" cx="0" cy="0" r="1" gradientUnits="userSpaceOnUse" gradientTransform="translate(22.4908 14.1715) rotate(136.338) scale(11.8252 11.7555)">
<stop offset="0.246" stop-color="#C9BFD7"/>
<stop offset="1" stop-color="#ADA4BB"/>
</radialGradient>
<radialGradient id="paint9_radial_42_1070" cx="0" cy="0" r="1" gradientUnits="userSpaceOnUse" gradientTransform="translate(13.0788 22.61) rotate(-45.5162) scale(6.13219 9.7482)">
<stop offset="0.343" stop-color="#BCB6C4"/>
<stop offset="1" stop-color="#BCB6C4" stop-opacity="0"/>
</radialGradient>
<radialGradient id="paint10_radial_42_1070" cx="0" cy="0" r="1" gradientUnits="userSpaceOnUse" gradientTransform="translate(13.975 12.57) rotate(49.259) scale(5.20719 9.24424)">
<stop offset="0.194" stop-color="#A294B3"/>
<stop offset="1" stop-color="#A294B3" stop-opacity="0"/>
</radialGradient>
<radialGradient id="paint11_radial_42_1070" cx="0" cy="0" r="1" gradientUnits="userSpaceOnUse" gradientTransform="translate(24.3769 17.3961) rotate(152.789) scale(8.5743 8.49715)">
<stop offset="0.588" stop-color="#CCC3DA"/>
<stop offset="1" stop-color="#A197AF"/>
</radialGradient>
</defs>
</svg>
