<svg width="18" height="18" viewBox="0 0 18 18" fill="none" xmlns="http://www.w3.org/2000/svg">
<path d="M8.99163 0.666748C4.39163 0.666748 0.666626 4.40008 0.666626 9.00008C0.666626 13.6001 4.39163 17.3334 8.99163 17.3334C13.6 17.3334 17.3333 13.6001 17.3333 9.00008C17.3333 4.40008 13.6 0.666748 8.99163 0.666748ZM11.6833 13.4917L8.99996 11.8751L6.31663 13.4917C6.24642 13.5343 6.16523 13.5553 6.08318 13.5521C6.00113 13.5489 5.92184 13.5216 5.85521 13.4736C5.78857 13.4256 5.73752 13.3591 5.70843 13.2823C5.67935 13.2055 5.6735 13.1218 5.69163 13.0417L6.39996 9.99175L4.04163 7.95008C3.98037 7.89551 3.93639 7.82423 3.91511 7.745C3.89383 7.66577 3.89617 7.58204 3.92185 7.50412C3.94753 7.42621 3.99542 7.35749 4.05964 7.30644C4.12385 7.25538 4.20159 7.2242 4.28329 7.21675L7.39996 6.95008L8.61663 4.07508C8.75829 3.73341 9.24163 3.73341 9.38329 4.07508L10.6 6.94175L13.7166 7.20842C13.7987 7.21546 13.8768 7.24666 13.9411 7.29806C14.0054 7.34946 14.053 7.41876 14.078 7.49722C14.103 7.57567 14.1041 7.65977 14.0813 7.73889C14.0586 7.818 14.0128 7.88859 13.95 7.94175L11.5916 9.98341L12.3 13.0417C12.3833 13.4001 12 13.6834 11.6833 13.4917Z" fill="#FFC107"/>
</svg>
