<svg width="24" height="25" viewBox="0 0 24 25" fill="none" xmlns="http://www.w3.org/2000/svg">
<path d="M11.6427 7.68281C11.2891 7.25854 10.6585 7.20121 10.2343 7.55478C9.80998 7.90834 9.75265 8.5389 10.1062 8.96318L11.6427 7.68281ZM14.189 12.3005L14.9572 12.9407C15.2663 12.5698 15.2663 12.0312 14.9572 11.6603L14.189 12.3005ZM10.1062 15.6378C9.75265 16.0621 9.80998 16.6927 10.2343 17.0462C10.6585 17.3998 11.2891 17.3425 11.6427 16.9182L10.1062 15.6378ZM10.1062 8.96318L13.4208 12.9407L14.9572 11.6603L11.6427 7.68281L10.1062 8.96318ZM13.4208 11.6603L10.1062 15.6378L11.6427 16.9182L14.9572 12.9407L13.4208 11.6603ZM12 4.5C16.4183 4.5 20 8.08172 20 12.5L22 12.5C22 6.97715 17.5228 2.5 12 2.5L12 4.5ZM20 12.5C20 16.9183 16.4183 20.5 12 20.5L12 22.5C17.5228 22.5 22 18.0228 22 12.5L20 12.5ZM12 20.5C7.58172 20.5 4 16.9183 4 12.5L2 12.5C2 18.0228 6.47715 22.5 12 22.5L12 20.5ZM4 12.5C4 8.08172 7.58172 4.5 12 4.5L12 2.5C6.47715 2.5 2 6.97715 2 12.5L4 12.5Z" fill="black"/>
</svg>
