<svg width="20" height="20" viewBox="0 0 20 20" fill="none" xmlns="http://www.w3.org/2000/svg">
<g clip-path="url(#clip0_84_6306)">
<path d="M9.99997 18.3333C11.0945 18.3346 12.1785 18.1197 13.1898 17.7008C14.201 17.282 15.1195 16.6674 15.8925 15.8925C16.6674 15.1195 17.282 14.201 17.7008 13.1898C18.1197 12.1785 18.3346 11.0945 18.3333 9.99997C18.3346 8.90542 18.1197 7.82139 17.7008 6.81017C17.282 5.79895 16.6674 4.88045 15.8925 4.10747C15.1195 3.33253 14.201 2.71797 13.1898 2.2991C12.1785 1.88022 11.0945 1.66528 9.99997 1.66663C8.90542 1.66528 7.82139 1.88022 6.81017 2.2991C5.79895 2.71797 4.88045 3.33253 4.10747 4.10747C3.33253 4.88045 2.71797 5.79895 2.2991 6.81017C1.88022 7.82139 1.66528 8.90542 1.66663 9.99997C1.66528 11.0945 1.88022 12.1785 2.2991 13.1898C2.71797 14.201 3.33253 15.1195 4.10747 15.8925C4.88045 16.6674 5.79895 17.282 6.81017 17.7008C7.82139 18.1197 8.90542 18.3346 9.99997 18.3333Z" stroke="black" stroke-width="1.66667" stroke-linejoin="round"/>
<path d="M10 11.927V10.2604C10.4945 10.2604 10.9778 10.1138 11.3889 9.83905C11.8 9.56435 12.1205 9.1739 12.3097 8.71709C12.4989 8.26027 12.5484 7.7576 12.452 7.27265C12.3555 6.7877 12.1174 6.34224 11.7678 5.99261C11.4181 5.64298 10.9727 5.40488 10.4877 5.30841C10.0028 5.21195 9.50011 5.26146 9.04329 5.45068C8.58648 5.6399 8.19603 5.96033 7.92133 6.37145C7.64662 6.78257 7.5 7.26592 7.5 7.76038" stroke="black" stroke-width="1.66667" stroke-linecap="round" stroke-linejoin="round"/>
<path fill-rule="evenodd" clip-rule="evenodd" d="M9.99992 15.6771C10.2762 15.6771 10.5411 15.5673 10.7365 15.372C10.9318 15.1766 11.0416 14.9117 11.0416 14.6354C11.0416 14.3591 10.9318 14.0942 10.7365 13.8988C10.5411 13.7035 10.2762 13.5938 9.99992 13.5938C9.72365 13.5938 9.4587 13.7035 9.26335 13.8988C9.068 14.0942 8.95825 14.3591 8.95825 14.6354C8.95825 14.9117 9.068 15.1766 9.26335 15.372C9.4587 15.5673 9.72365 15.6771 9.99992 15.6771Z" fill="black"/>
</g>
<defs>
<clipPath id="clip0_84_6306">
<rect width="20" height="20" fill="white"/>
</clipPath>
</defs>
</svg>
