<svg width="18" height="18" viewBox="0 0 18 18" fill="none" xmlns="http://www.w3.org/2000/svg">
<path d="M5.66667 9.83325C5.66667 8.65409 5.66667 8.06492 6.03334 7.69992C6.39917 7.33325 6.98834 7.33325 8.16667 7.33325H9.83334C11.0125 7.33325 11.6017 7.33325 11.9667 7.69992C12.3333 8.06575 12.3333 8.65492 12.3333 9.83325V17.3333V14.8333C12.3333 13.6541 12.3333 13.0649 12.7 12.6999C13.0658 12.3333 13.6542 12.3333 14.8333 12.3333C16.0125 12.3333 16.6017 12.3333 16.9667 12.6999C17.3333 13.0658 17.3333 13.6549 17.3333 14.8333V17.3333M5.66667 13.1666V17.3333C5.66667 16.1549 5.66667 15.5658 5.3 15.1999C4.935 14.8333 4.34584 14.8333 3.16667 14.8333C1.98751 14.8333 1.39917 14.8333 1.03334 15.1999C0.666672 15.5649 0.666672 16.1541 0.666672 17.3333" stroke="black" stroke-width="1.25" stroke-linecap="round"/>
<path d="M8.28834 1.51913C8.605 0.949959 8.76334 0.666626 9 0.666626C9.23667 0.666626 9.395 0.949959 9.71167 1.51913L9.79334 1.66579C9.88334 1.82746 9.92834 1.90746 9.99834 1.96079C10.0692 2.01413 10.1567 2.03413 10.3317 2.07329L10.49 2.10996C11.105 2.24913 11.4125 2.31829 11.4858 2.55329C11.5592 2.78829 11.3492 3.03413 10.93 3.52413L10.8217 3.65079C10.7025 3.78996 10.6425 3.85913 10.6158 3.94579C10.5892 4.03246 10.5983 4.12496 10.6158 4.31079L10.6325 4.47996C10.6958 5.13413 10.7275 5.46163 10.5367 5.60663C10.345 5.75246 10.0567 5.61913 9.48084 5.35413L9.3325 5.28579C9.16834 5.21079 9.08667 5.17246 9 5.17246C8.91334 5.17246 8.83167 5.21079 8.6675 5.28579L8.51917 5.35413C7.94334 5.61913 7.655 5.75246 7.46334 5.60663C7.27167 5.46163 7.30417 5.13413 7.3675 4.47996L7.38417 4.31079C7.40167 4.12496 7.41084 4.03246 7.38417 3.94579C7.3575 3.85913 7.2975 3.78996 7.17834 3.65079L7.07 3.52413C6.65084 3.03413 6.44084 2.78913 6.51417 2.55329C6.5875 2.31829 6.895 2.24913 7.51 2.10996L7.66834 2.07329C7.84334 2.03413 7.93084 2.01496 8.00167 1.96079C8.07167 1.90746 8.11667 1.82746 8.20667 1.66579L8.28834 1.51913Z" stroke="black" stroke-width="1.25"/>
</svg>
<svg width="18" height="18" viewBox="0 0 18 18" fill="none" xmlns="http://www.w3.org/2000/svg">
<path d="M5.66667 9.83325C5.66667 8.65409 5.66667 8.06492 6.03334 7.69992C6.39917 7.33325 6.98834 7.33325 8.16667 7.33325H9.83334C11.0125 7.33325 11.6017 7.33325 11.9667 7.69992C12.3333 8.06575 12.3333 8.65492 12.3333 9.83325V17.3333V14.8333C12.3333 13.6541 12.3333 13.0649 12.7 12.6999C13.0658 12.3333 13.6542 12.3333 14.8333 12.3333C16.0125 12.3333 16.6017 12.3333 16.9667 12.6999C17.3333 13.0658 17.3333 13.6549 17.3333 14.8333V17.3333M5.66667 13.1666V17.3333C5.66667 16.1549 5.66667 15.5658 5.3 15.1999C4.935 14.8333 4.34584 14.8333 3.16667 14.8333C1.98751 14.8333 1.39917 14.8333 1.03334 15.1999C0.666672 15.5649 0.666672 16.1541 0.666672 17.3333" stroke="black" stroke-width="1.25" stroke-linecap="round"/>
<path d="M8.28834 1.51913C8.605 0.949959 8.76334 0.666626 9 0.666626C9.23667 0.666626 9.395 0.949959 9.71167 1.51913L9.79334 1.66579C9.88334 1.82746 9.92834 1.90746 9.99834 1.96079C10.0692 2.01413 10.1567 2.03413 10.3317 2.07329L10.49 2.10996C11.105 2.24913 11.4125 2.31829 11.4858 2.55329C11.5592 2.78829 11.3492 3.03413 10.93 3.52413L10.8217 3.65079C10.7025 3.78996 10.6425 3.85913 10.6158 3.94579C10.5892 4.03246 10.5983 4.12496 10.6158 4.31079L10.6325 4.47996C10.6958 5.13413 10.7275 5.46163 10.5367 5.60663C10.345 5.75246 10.0567 5.61913 9.48084 5.35413L9.3325 5.28579C9.16834 5.21079 9.08667 5.17246 9 5.17246C8.91334 5.17246 8.83167 5.21079 8.6675 5.28579L8.51917 5.35413C7.94334 5.61913 7.655 5.75246 7.46334 5.60663C7.27167 5.46163 7.30417 5.13413 7.3675 4.47996L7.38417 4.31079C7.40167 4.12496 7.41084 4.03246 7.38417 3.94579C7.3575 3.85913 7.2975 3.78996 7.17834 3.65079L7.07 3.52413C6.65084 3.03413 6.44084 2.78913 6.51417 2.55329C6.5875 2.31829 6.895 2.24913 7.51 2.10996L7.66834 2.07329C7.84334 2.03413 7.93084 2.01496 8.00167 1.96079C8.07167 1.90746 8.11667 1.82746 8.20667 1.66579L8.28834 1.51913Z" stroke="black" stroke-width="1.25"/>
</svg>
