<svg width="30" height="30" viewBox="0 0 30 30" fill="none" xmlns="http://www.w3.org/2000/svg">
    <path fill-rule="evenodd" clip-rule="evenodd" d="M1.754 15C1.754 11.487 3.14955 8.1178 5.63366 5.63369C8.11777 3.14959 11.4869 1.75403 15 1.75403C18.5131 1.75403 21.8822 3.14959 24.3663 5.63369C26.8504 8.1178 28.246 11.487 28.246 15C28.246 18.5131 26.8504 21.8823 24.3663 24.3664C21.8822 26.8505 18.5131 28.246 15 28.246C11.4869 28.246 8.11777 26.8505 5.63366 24.3664C3.14955 21.8823 1.754 18.5131 1.754 15ZM15 3.65403C12.8008 3.6541 10.6491 4.29329 8.80652 5.49384C6.96396 6.69438 5.51 8.40453 4.62154 10.4162C3.73307 12.4279 3.44839 14.6545 3.80213 16.825C4.15586 18.9956 5.13277 21.0165 6.614 22.642C7.51311 21.2334 8.75286 20.0742 10.2186 19.2715C11.6844 18.4689 13.3289 18.0488 15 18.05C16.6711 18.0488 18.3156 18.4689 19.7814 19.2715C21.2471 20.0742 22.4869 21.2334 23.386 22.642C24.8672 21.0165 25.8441 18.9956 26.1979 16.825C26.5516 14.6545 26.2669 12.4279 25.3785 10.4162C24.49 8.40453 23.036 6.69438 21.1935 5.49384C19.3509 4.29329 17.1992 3.6541 15 3.65403ZM21.964 23.958C21.2567 22.7379 20.2409 21.7252 19.0186 21.0217C17.7962 20.3182 16.4103 19.9486 15 19.95C13.5897 19.9486 12.2038 20.3182 10.9814 21.0217C9.75906 21.7252 8.74327 22.7379 8.036 23.958C10.0257 25.5091 12.4772 26.3497 15 26.346C17.624 26.346 20.04 25.454 21.964 23.958ZM10.3 13.01C10.3 11.7635 10.7952 10.568 11.6766 9.68663C12.558 8.80521 13.7535 8.31003 15 8.31003C16.2465 8.31003 17.442 8.80521 18.3234 9.68663C19.2048 10.568 19.7 11.7635 19.7 13.01C19.7 14.2565 19.2048 15.452 18.3234 16.3334C17.442 17.2149 16.2465 17.71 15 17.71C13.7535 17.71 12.558 17.2149 11.6766 16.3334C10.7952 15.452 10.3 14.2565 10.3 13.01ZM15 10.21C14.6323 10.21 14.2682 10.2825 13.9285 10.4232C13.5888 10.5639 13.2801 10.7701 13.0201 11.0301C12.7601 11.2901 12.5538 11.5988 12.4131 11.9385C12.2724 12.2782 12.2 12.6423 12.2 13.01C12.2 13.3777 12.2724 13.7418 12.4131 14.0815C12.5538 14.4213 12.7601 14.7299 13.0201 14.9899C13.2801 15.2499 13.5888 15.4562 13.9285 15.5969C14.2682 15.7376 14.6323 15.81 15 15.81C15.7426 15.81 16.4548 15.515 16.9799 14.9899C17.505 14.4648 17.8 13.7526 17.8 13.01C17.8 12.2674 17.505 11.5552 16.9799 11.0301C16.4548 10.505 15.7426 10.21 15 10.21Z" fill="black"/>
    </svg>
    