<svg width="20" height="20" viewBox="0 0 20 20" fill="none" xmlns="http://www.w3.org/2000/svg">
<path d="M4.7 3.75V5.34167H1.875V6.9C1.875 9.50833 2.65 10.9625 4.5125 11.8667C5.20491 12.2389 5.844 12.7028 6.4125 13.2458C6.86961 13.733 7.42683 14.1154 8.04583 14.3667L8.75 14.5833V16.4708H7.675C6.375 16.4708 5.9375 16.7667 5.9375 17.6458V18.2375H14.0625V17.7083C14.0625 16.8458 13.5292 16.4583 12.2958 16.4583H11.25V14.5833L11.9667 14.3708C12.5867 14.1195 13.1442 13.7355 13.6 13.2458C14.1932 12.6807 14.8571 12.1948 15.575 11.8C16.1325 11.5317 16.6305 11.154 17.0392 10.6895C17.4479 10.225 17.759 9.68301 17.9542 9.09583C18.0867 8.36881 18.1481 7.6306 18.1375 6.89167V5.34583H15.3V3.75H4.7ZM10 6.40417L10.8542 8.17083H12.9125L11.3 9.65833L11.7625 11.5583L10 10.6125L8.2375 11.5708L8.7 9.67083L7.08333 8.18333H9.14583L10 6.40417ZM3.35833 6.93333H4.675V10.2167C4.5375 10.3 4.10833 9.8 3.79583 9.22917C3.61836 8.79216 3.5047 8.33189 3.45833 7.8625L3.35833 6.93333ZM15.325 6.93333H16.7583L16.6375 7.85C16.6091 8.61308 16.3023 9.33935 15.775 9.89167C15.6508 10.0606 15.4934 10.2023 15.3125 10.3083L15.325 6.93333Z" stroke="black" stroke-width="0.416667" stroke-linecap="round" stroke-linejoin="round"/>
</svg>
