<svg width="21" height="17" viewBox="0 0 21 17" fill="none" xmlns="http://www.w3.org/2000/svg">
<path d="M13.4167 4.33341L14.6667 5.58341L7.58333 12.6667L6.33333 11.4167L13.4167 4.33341ZM2.16666 0.166748H18.8333C19.9896 0.166748 20.9167 1.09383 20.9167 2.25008V6.41675C20.3641 6.41675 19.8342 6.63624 19.4435 7.02694C19.0528 7.41764 18.8333 7.94755 18.8333 8.50008C18.8333 9.05262 19.0528 9.58252 19.4435 9.97322C19.8342 10.3639 20.3641 10.5834 20.9167 10.5834V14.7501C20.9167 15.9063 19.9896 16.8334 18.8333 16.8334H2.16666C1.61413 16.8334 1.08422 16.6139 0.693522 16.2232C0.302822 15.8325 0.0833282 15.3026 0.0833282 14.7501V10.5834C1.23958 10.5834 2.16666 9.65633 2.16666 8.50008C2.16666 7.94755 1.94717 7.41764 1.55647 7.02694C1.16577 6.63624 0.635863 6.41675 0.0833282 6.41675V2.25008C0.0833282 1.69755 0.302822 1.16764 0.693522 0.776942C1.08422 0.386241 1.61413 0.166748 2.16666 0.166748ZM2.16666 2.25008V4.89591C2.79966 5.26091 3.32537 5.78619 3.69089 6.41888C4.05641 7.05158 4.24885 7.76939 4.24885 8.50008C4.24885 9.23077 4.05641 9.94858 3.69089 10.5813C3.32537 11.214 2.79966 11.7392 2.16666 12.1042V14.7501H18.8333V12.1042C18.2003 11.7392 17.6746 11.214 17.3091 10.5813C16.9436 9.94858 16.7511 9.23077 16.7511 8.50008C16.7511 7.76939 16.9436 7.05158 17.3091 6.41888C17.6746 5.78619 18.2003 5.26091 18.8333 4.89591V2.25008H2.16666ZM7.89583 4.33341C8.76041 4.33341 9.45833 5.03133 9.45833 5.89591C9.45833 6.7605 8.76041 7.45841 7.89583 7.45841C7.03124 7.45841 6.33333 6.7605 6.33333 5.89591C6.33333 5.03133 7.03124 4.33341 7.89583 4.33341ZM13.1042 9.54175C13.9687 9.54175 14.6667 10.2397 14.6667 11.1042C14.6667 11.9688 13.9687 12.6667 13.1042 12.6667C12.2396 12.6667 11.5417 11.9688 11.5417 11.1042C11.5417 10.2397 12.2396 9.54175 13.1042 9.54175Z" fill="black"/>
</svg>
