<svg width="36" height="29" viewBox="0 0 36 29" fill="none" xmlns="http://www.w3.org/2000/svg">
<g filter="url(#filter0_i_60_3110)">
<path d="M2.47253 3.98175C1.61003 3.98175 0.910034 4.68175 0.910034 5.54425V26.0317C0.910034 26.8955 1.61003 27.5942 2.47253 27.5942H16.2288C16.4306 27.9569 16.7256 28.2591 17.0834 28.4695C17.4412 28.6799 17.8487 28.7908 18.2638 28.7908C18.6788 28.7908 19.0864 28.6799 19.4441 28.4695C19.8019 28.2591 20.097 27.9569 20.2988 27.5942H34.055C34.9175 27.5942 35.6175 26.8955 35.6175 26.0317V5.54425C35.6175 4.68175 34.9175 3.98175 34.055 3.98175H2.47253Z" fill="#3E6ACA"/>
</g>
<g filter="url(#filter1_ii_60_3110)">
<path d="M2.47253 2.77173C1.61003 2.77173 0.910034 3.47173 0.910034 4.33423V24.8217C0.910034 25.6842 1.61003 26.3842 2.47253 26.3842H16.2288C16.4306 26.7469 16.7256 27.0491 17.0834 27.2595C17.4412 27.4699 17.8487 27.5808 18.2638 27.5808C18.6788 27.5808 19.0864 27.4699 19.4441 27.2595C19.8019 27.0491 20.097 26.7469 20.2988 26.3842H34.055C34.9175 26.3842 35.6175 25.6842 35.6175 24.8217V4.33423C35.6175 3.47173 34.9175 2.77173 34.055 2.77173H2.47253Z" fill="url(#paint0_linear_60_3110)"/>
</g>
<g filter="url(#filter2_f_60_3110)">
<path d="M4.01251 1.56049L2.05626 3.98674C1.88379 4.19967 1.78939 4.46522 1.78876 4.73924V22.6055C1.78876 23.4455 2.48876 24.1267 3.35126 24.1267H32.65C33.5125 24.1267 34.2125 23.4455 34.2125 22.6055V4.73924C34.2119 4.46522 34.1175 4.19967 33.945 3.98674L31.9875 1.56049L29.685 19.868H6.31501L4.01251 1.56049Z" fill="#3F9BEA"/>
</g>
<path d="M16.4663 22.3218H20.06V24.2943C20.0663 24.5342 20.0245 24.773 19.9371 24.9966C19.8496 25.2201 19.7183 25.4239 19.5508 25.5958C19.3833 25.7678 19.1831 25.9045 18.9619 25.9978C18.7408 26.0911 18.5032 26.1392 18.2631 26.1392C18.0231 26.1392 17.7855 26.0911 17.5643 25.9978C17.3432 25.9045 17.1429 25.7678 16.9755 25.5958C16.808 25.4239 16.6766 25.2201 16.5892 24.9966C16.5017 24.773 16.4599 24.5342 16.4663 24.2943V22.3218Z" fill="url(#paint1_radial_60_3110)"/>
<path d="M16.4663 22.3218H20.06V24.2943C20.0663 24.5342 20.0245 24.773 19.9371 24.9966C19.8496 25.2201 19.7183 25.4239 19.5508 25.5958C19.3833 25.7678 19.1831 25.9045 18.9619 25.9978C18.7408 26.0911 18.5032 26.1392 18.2631 26.1392C18.0231 26.1392 17.7855 26.0911 17.5643 25.9978C17.3432 25.9045 17.1429 25.7678 16.9755 25.5958C16.808 25.4239 16.6766 25.2201 16.5892 24.9966C16.5017 24.773 16.4599 24.5342 16.4663 24.2943V22.3218Z" fill="url(#paint2_linear_60_3110)"/>
<g filter="url(#filter3_i_60_3110)">
<path d="M2.28001 3.26176L4.23751 0.768005L6.54001 19.568H18.225V23.943H3.57501C2.71251 23.943 2.01251 23.243 2.01251 22.3805V4.033C2.01286 3.75323 2.10705 3.48166 2.28001 3.26176Z" fill="url(#paint3_linear_60_3110)"/>
</g>
<g filter="url(#filter4_i_60_3110)">
<path d="M34.1688 3.26176L32.2113 0.768005L29.91 19.568H18.225V23.943H32.8725C33.735 23.943 34.435 23.243 34.435 22.3805V4.033C34.4351 3.75338 34.3413 3.48182 34.1688 3.26176Z" fill="url(#paint4_linear_60_3110)"/>
<path d="M34.1688 3.26176L32.2113 0.768005L29.91 19.568H18.225V23.943H32.8725C33.735 23.943 34.435 23.243 34.435 22.3805V4.033C34.4351 3.75338 34.3413 3.48182 34.1688 3.26176Z" fill="url(#paint5_linear_60_3110)"/>
</g>
<path d="M34.1688 3.26176L32.2113 0.768005L29.91 19.568H18.225V23.943H32.8725C33.735 23.943 34.435 23.243 34.435 22.3805V4.033C34.4351 3.75338 34.3413 3.48182 34.1688 3.26176Z" fill="url(#paint6_linear_60_3110)"/>
<g filter="url(#filter5_ii_60_3110)">
<path d="M4.00625 1.48175C4.00625 1.15023 4.13795 0.832288 4.37237 0.597867C4.60679 0.363447 4.92473 0.23175 5.25625 0.23175H15.1C15.9288 0.23175 16.7237 0.560991 17.3097 1.14704C17.8958 1.73309 18.225 2.52795 18.225 3.35675V23.933C18.225 22.558 16.8088 21.443 15.1675 21.443H5.5675C4.705 21.443 4.005 20.743 4.005 19.8805L4.00625 1.48175Z" fill="url(#paint7_linear_60_3110)"/>
<path d="M4.00625 1.48175C4.00625 1.15023 4.13795 0.832288 4.37237 0.597867C4.60679 0.363447 4.92473 0.23175 5.25625 0.23175H15.1C15.9288 0.23175 16.7237 0.560991 17.3097 1.14704C17.8958 1.73309 18.225 2.52795 18.225 3.35675V23.933C18.225 22.558 16.8088 21.443 15.1675 21.443H5.5675C4.705 21.443 4.005 20.743 4.005 19.8805L4.00625 1.48175Z" fill="url(#paint8_linear_60_3110)"/>
<path d="M4.00625 1.48175C4.00625 1.15023 4.13795 0.832288 4.37237 0.597867C4.60679 0.363447 4.92473 0.23175 5.25625 0.23175H15.1C15.9288 0.23175 16.7237 0.560991 17.3097 1.14704C17.8958 1.73309 18.225 2.52795 18.225 3.35675V23.933C18.225 22.558 16.8088 21.443 15.1675 21.443H5.5675C4.705 21.443 4.005 20.743 4.005 19.8805L4.00625 1.48175Z" fill="url(#paint9_linear_60_3110)"/>
</g>
<g filter="url(#filter6_ii_60_3110)">
<path d="M32.4438 1.48175C32.4438 1.15023 32.3121 0.832288 32.0777 0.597867C31.8432 0.363447 31.5253 0.23175 31.1938 0.23175H21.35C20.5212 0.23175 19.7264 0.560991 19.1403 1.14704C18.5543 1.73309 18.225 2.52795 18.225 3.35675V23.933C18.225 22.558 19.6413 21.443 21.2813 21.443H30.8813C31.7438 21.443 32.4438 20.743 32.4438 19.8805V1.48175Z" fill="url(#paint10_linear_60_3110)"/>
<path d="M32.4438 1.48175C32.4438 1.15023 32.3121 0.832288 32.0777 0.597867C31.8432 0.363447 31.5253 0.23175 31.1938 0.23175H21.35C20.5212 0.23175 19.7264 0.560991 19.1403 1.14704C18.5543 1.73309 18.225 2.52795 18.225 3.35675V23.933C18.225 22.558 19.6413 21.443 21.2813 21.443H30.8813C31.7438 21.443 32.4438 20.743 32.4438 19.8805V1.48175Z" fill="url(#paint11_linear_60_3110)"/>
<path d="M32.4438 1.48175C32.4438 1.15023 32.3121 0.832288 32.0777 0.597867C31.8432 0.363447 31.5253 0.23175 31.1938 0.23175H21.35C20.5212 0.23175 19.7264 0.560991 19.1403 1.14704C18.5543 1.73309 18.225 2.52795 18.225 3.35675V23.933C18.225 22.558 19.6413 21.443 21.2813 21.443H30.8813C31.7438 21.443 32.4438 20.743 32.4438 19.8805V1.48175Z" fill="url(#paint12_linear_60_3110)"/>
</g>
<defs>
<filter id="filter0_i_60_3110" x="0.910034" y="3.90675" width="34.7825" height="24.8841" filterUnits="userSpaceOnUse" color-interpolation-filters="sRGB">
<feFlood flood-opacity="0" result="BackgroundImageFix"/>
<feBlend mode="normal" in="SourceGraphic" in2="BackgroundImageFix" result="shape"/>
<feColorMatrix in="SourceAlpha" type="matrix" values="0 0 0 0 0 0 0 0 0 0 0 0 0 0 0 0 0 0 127 0" result="hardAlpha"/>
<feOffset dx="0.075" dy="-0.075"/>
<feGaussianBlur stdDeviation="0.125"/>
<feComposite in2="hardAlpha" operator="arithmetic" k2="-1" k3="1"/>
<feColorMatrix type="matrix" values="0 0 0 0 0.305882 0 0 0 0 0.541176 0 0 0 0 0.780392 0 0 0 1 0"/>
<feBlend mode="normal" in2="shape" result="effect1_innerShadow_60_3110"/>
</filter>
<filter id="filter1_ii_60_3110" x="0.860034" y="2.72173" width="34.8075" height="24.8591" filterUnits="userSpaceOnUse" color-interpolation-filters="sRGB">
<feFlood flood-opacity="0" result="BackgroundImageFix"/>
<feBlend mode="normal" in="SourceGraphic" in2="BackgroundImageFix" result="shape"/>
<feColorMatrix in="SourceAlpha" type="matrix" values="0 0 0 0 0 0 0 0 0 0 0 0 0 0 0 0 0 0 127 0" result="hardAlpha"/>
<feOffset dx="-0.05"/>
<feGaussianBlur stdDeviation="0.075"/>
<feComposite in2="hardAlpha" operator="arithmetic" k2="-1" k3="1"/>
<feColorMatrix type="matrix" values="0 0 0 0 0.45098 0 0 0 0 0.941176 0 0 0 0 1 0 0 0 1 0"/>
<feBlend mode="normal" in2="shape" result="effect1_innerShadow_60_3110"/>
<feColorMatrix in="SourceAlpha" type="matrix" values="0 0 0 0 0 0 0 0 0 0 0 0 0 0 0 0 0 0 127 0" result="hardAlpha"/>
<feOffset dx="0.05" dy="-0.05"/>
<feGaussianBlur stdDeviation="0.075"/>
<feComposite in2="hardAlpha" operator="arithmetic" k2="-1" k3="1"/>
<feColorMatrix type="matrix" values="0 0 0 0 0.286275 0 0 0 0 0.666667 0 0 0 0 0.901961 0 0 0 1 0"/>
<feBlend mode="normal" in2="effect1_innerShadow_60_3110" result="effect2_innerShadow_60_3110"/>
</filter>
<filter id="filter2_f_60_3110" x="1.53876" y="1.31049" width="32.9238" height="23.0662" filterUnits="userSpaceOnUse" color-interpolation-filters="sRGB">
<feFlood flood-opacity="0" result="BackgroundImageFix"/>
<feBlend mode="normal" in="SourceGraphic" in2="BackgroundImageFix" result="shape"/>
<feGaussianBlur stdDeviation="0.125" result="effect1_foregroundBlur_60_3110"/>
</filter>
<filter id="filter3_i_60_3110" x="2.01251" y="0.768005" width="16.2625" height="23.225" filterUnits="userSpaceOnUse" color-interpolation-filters="sRGB">
<feFlood flood-opacity="0" result="BackgroundImageFix"/>
<feBlend mode="normal" in="SourceGraphic" in2="BackgroundImageFix" result="shape"/>
<feColorMatrix in="SourceAlpha" type="matrix" values="0 0 0 0 0 0 0 0 0 0 0 0 0 0 0 0 0 0 127 0" result="hardAlpha"/>
<feOffset dx="0.05" dy="0.05"/>
<feGaussianBlur stdDeviation="0.075"/>
<feComposite in2="hardAlpha" operator="arithmetic" k2="-1" k3="1"/>
<feColorMatrix type="matrix" values="0 0 0 0 0.694118 0 0 0 0 0.705882 0 0 0 0 0.733333 0 0 0 1 0"/>
<feBlend mode="normal" in2="shape" result="effect1_innerShadow_60_3110"/>
</filter>
<filter id="filter4_i_60_3110" x="18.225" y="0.768005" width="16.26" height="23.225" filterUnits="userSpaceOnUse" color-interpolation-filters="sRGB">
<feFlood flood-opacity="0" result="BackgroundImageFix"/>
<feBlend mode="normal" in="SourceGraphic" in2="BackgroundImageFix" result="shape"/>
<feColorMatrix in="SourceAlpha" type="matrix" values="0 0 0 0 0 0 0 0 0 0 0 0 0 0 0 0 0 0 127 0" result="hardAlpha"/>
<feOffset dx="0.05" dy="0.05"/>
<feGaussianBlur stdDeviation="0.075"/>
<feComposite in2="hardAlpha" operator="arithmetic" k2="-1" k3="1"/>
<feColorMatrix type="matrix" values="0 0 0 0 0.831373 0 0 0 0 0.835294 0 0 0 0 0.854902 0 0 0 1 0"/>
<feBlend mode="normal" in2="shape" result="effect1_innerShadow_60_3110"/>
</filter>
<filter id="filter5_ii_60_3110" x="4.005" y="0.23175" width="14.27" height="23.7262" filterUnits="userSpaceOnUse" color-interpolation-filters="sRGB">
<feFlood flood-opacity="0" result="BackgroundImageFix"/>
<feBlend mode="normal" in="SourceGraphic" in2="BackgroundImageFix" result="shape"/>
<feColorMatrix in="SourceAlpha" type="matrix" values="0 0 0 0 0 0 0 0 0 0 0 0 0 0 0 0 0 0 127 0" result="hardAlpha"/>
<feOffset dy="0.025"/>
<feGaussianBlur stdDeviation="0.075"/>
<feComposite in2="hardAlpha" operator="arithmetic" k2="-1" k3="1"/>
<feColorMatrix type="matrix" values="0 0 0 0 0.827451 0 0 0 0 0.819608 0 0 0 0 0.854902 0 0 0 1 0"/>
<feBlend mode="normal" in2="shape" result="effect1_innerShadow_60_3110"/>
<feColorMatrix in="SourceAlpha" type="matrix" values="0 0 0 0 0 0 0 0 0 0 0 0 0 0 0 0 0 0 127 0" result="hardAlpha"/>
<feOffset dx="0.05"/>
<feGaussianBlur stdDeviation="0.075"/>
<feComposite in2="hardAlpha" operator="arithmetic" k2="-1" k3="1"/>
<feColorMatrix type="matrix" values="0 0 0 0 0.980392 0 0 0 0 0.976471 0 0 0 0 1 0 0 0 1 0"/>
<feBlend mode="normal" in2="effect1_innerShadow_60_3110" result="effect2_innerShadow_60_3110"/>
</filter>
<filter id="filter6_ii_60_3110" x="18.175" y="0.23175" width="14.2688" height="23.7262" filterUnits="userSpaceOnUse" color-interpolation-filters="sRGB">
<feFlood flood-opacity="0" result="BackgroundImageFix"/>
<feBlend mode="normal" in="SourceGraphic" in2="BackgroundImageFix" result="shape"/>
<feColorMatrix in="SourceAlpha" type="matrix" values="0 0 0 0 0 0 0 0 0 0 0 0 0 0 0 0 0 0 127 0" result="hardAlpha"/>
<feOffset dx="-0.05"/>
<feGaussianBlur stdDeviation="0.075"/>
<feComposite in2="hardAlpha" operator="arithmetic" k2="-1" k3="1"/>
<feColorMatrix type="matrix" values="0 0 0 0 0.980392 0 0 0 0 0.976471 0 0 0 0 1 0 0 0 1 0"/>
<feBlend mode="normal" in2="shape" result="effect1_innerShadow_60_3110"/>
<feColorMatrix in="SourceAlpha" type="matrix" values="0 0 0 0 0 0 0 0 0 0 0 0 0 0 0 0 0 0 127 0" result="hardAlpha"/>
<feOffset dy="0.025"/>
<feGaussianBlur stdDeviation="0.075"/>
<feComposite in2="hardAlpha" operator="arithmetic" k2="-1" k3="1"/>
<feColorMatrix type="matrix" values="0 0 0 0 0.827451 0 0 0 0 0.819608 0 0 0 0 0.854902 0 0 0 1 0"/>
<feBlend mode="normal" in2="effect1_innerShadow_60_3110" result="effect2_innerShadow_60_3110"/>
</filter>
<linearGradient id="paint0_linear_60_3110" x1="18.2638" y1="8.24048" x2="18.2638" y2="27.5805" gradientUnits="userSpaceOnUse">
<stop stop-color="#5DD8FB"/>
<stop offset="1" stop-color="#41AEF2"/>
</linearGradient>
<radialGradient id="paint1_radial_60_3110" cx="0" cy="0" r="1" gradientUnits="userSpaceOnUse" gradientTransform="translate(17.2188 25.8568) rotate(-26.5651) scale(2.79509 3.92185)">
<stop offset="0.232" stop-color="#306AB3"/>
<stop offset="1" stop-color="#1A4CA8"/>
</radialGradient>
<linearGradient id="paint2_linear_60_3110" x1="18.2638" y1="23.6693" x2="18.2638" y2="24.6068" gradientUnits="userSpaceOnUse">
<stop stop-color="#1748A6"/>
<stop offset="1" stop-color="#1748A6" stop-opacity="0"/>
</linearGradient>
<linearGradient id="paint3_linear_60_3110" x1="13.645" y1="26.013" x2="4.58251" y2="17.6155" gradientUnits="userSpaceOnUse">
<stop offset="0.75" stop-color="#B3A9CF"/>
<stop offset="0.932" stop-color="#B6BAC5"/>
</linearGradient>
<linearGradient id="paint4_linear_60_3110" x1="22.805" y1="26.013" x2="31.8675" y2="17.6155" gradientUnits="userSpaceOnUse">
<stop offset="0.717" stop-color="#BBB3D9"/>
<stop offset="0.913" stop-color="#DCDDE8"/>
</linearGradient>
<linearGradient id="paint5_linear_60_3110" x1="32.97" y1="1.30051" x2="32.97" y2="6.85176" gradientUnits="userSpaceOnUse">
<stop stop-color="#D8DAE2"/>
<stop offset="1" stop-color="#D8DAE2" stop-opacity="0"/>
</linearGradient>
<linearGradient id="paint6_linear_60_3110" x1="18.225" y1="23.943" x2="20.2463" y2="21.5605" gradientUnits="userSpaceOnUse">
<stop stop-color="#A699C9"/>
<stop offset="1" stop-color="#A699C9" stop-opacity="0"/>
</linearGradient>
<linearGradient id="paint7_linear_60_3110" x1="4.00625" y1="12.083" x2="17.16" y2="12.083" gradientUnits="userSpaceOnUse">
<stop stop-color="#F3F1FA"/>
<stop offset="1" stop-color="#F0EBF9"/>
</linearGradient>
<linearGradient id="paint8_linear_60_3110" x1="18.225" y1="22.303" x2="14.8163" y2="22.303" gradientUnits="userSpaceOnUse">
<stop stop-color="#D5CCE8"/>
<stop offset="1" stop-color="#F2EBFF" stop-opacity="0"/>
</linearGradient>
<linearGradient id="paint9_linear_60_3110" x1="18.2925" y1="22.5755" x2="18.02" y2="22.5755" gradientUnits="userSpaceOnUse">
<stop offset="0.179" stop-color="#BFB3D1"/>
<stop offset="1" stop-color="#BFB3D1" stop-opacity="0"/>
</linearGradient>
<linearGradient id="paint10_linear_60_3110" x1="18.225" y1="12.083" x2="31.3788" y2="12.083" gradientUnits="userSpaceOnUse">
<stop stop-color="#F3F1FA"/>
<stop offset="1" stop-color="#F0EBF9"/>
</linearGradient>
<linearGradient id="paint11_linear_60_3110" x1="18.225" y1="22.303" x2="21.73" y2="22.303" gradientUnits="userSpaceOnUse">
<stop stop-color="#D5CCE8"/>
<stop offset="1" stop-color="#F2EBFF" stop-opacity="0"/>
</linearGradient>
<linearGradient id="paint12_linear_60_3110" x1="18.19" y1="22.5755" x2="18.4488" y2="22.5755" gradientUnits="userSpaceOnUse">
<stop stop-color="#BFB3D1"/>
<stop offset="1" stop-color="#BFB3D1" stop-opacity="0"/>
</linearGradient>
</defs>
</svg>
