<svg width="32" height="36" viewBox="0 0 32 36" fill="none" xmlns="http://www.w3.org/2000/svg">
<path d="M26.3762 34.755L6.6725 23.3888L4.5 18L28.25 3.625L32 7.375V31.5075C32 34.3937 28.8762 36.1975 26.3762 34.755Z" fill="url(#paint0_radial_42_1091)"/>
<path d="M26.3762 34.755L6.6725 23.3888L4.5 18L28.25 3.625L32 7.375V31.5075C32 34.3937 28.8762 36.1975 26.3762 34.755Z" fill="url(#paint1_linear_42_1091)"/>
<path d="M26.3762 34.755L6.6725 23.3888L4.5 18L28.25 3.625L32 7.375V31.5075C32 34.3937 28.8762 36.1975 26.3762 34.755Z" fill="url(#paint2_linear_42_1091)"/>
<path d="M32 8.025C21.1975 8.46875 11.8688 14.6238 6.95375 23.55L2.80375 21.1563C0.988752 20.1088 0.371252 17.7613 1.61875 16.0763C9.98 4.795 22.0763 1.35875 28.1763 0.320003C30.26 -0.0349971 32 1.6225 32 3.7375V8.025Z" fill="url(#paint3_radial_42_1091)"/>
<path d="M32 8.025C21.1975 8.46875 11.8688 14.6238 6.95375 23.55L2.80375 21.1563C0.988752 20.1088 0.371252 17.7613 1.61875 16.0763C9.98 4.795 22.0763 1.35875 28.1763 0.320003C30.26 -0.0349971 32 1.6225 32 3.7375V8.025Z" fill="url(#paint4_linear_42_1091)"/>
<path d="M32 8.025C21.1975 8.46875 11.8688 14.6238 6.95375 23.55L2.80375 21.1563C0.988752 20.1088 0.371252 17.7613 1.61875 16.0763C9.98 4.795 22.0763 1.35875 28.1763 0.320003C30.26 -0.0349971 32 1.6225 32 3.7375V8.025Z" fill="url(#paint5_radial_42_1091)"/>
<path d="M29.5 16.125C29.5 17.2853 29.0391 18.3981 28.2186 19.2186C27.3981 20.0391 26.2853 20.5 25.125 20.5C23.9647 20.5 22.8519 20.0391 22.0314 19.2186C21.2109 18.3981 20.75 17.2853 20.75 16.125C20.75 14.9647 21.2109 13.8519 22.0314 13.0314C22.8519 12.2109 23.9647 11.75 25.125 11.75C26.2853 11.75 27.3981 12.2109 28.2186 13.0314C29.0391 13.8519 29.5 14.9647 29.5 16.125Z" fill="url(#paint6_radial_42_1091)"/>
<path d="M29.5 16.125C29.5 17.2853 29.0391 18.3981 28.2186 19.2186C27.3981 20.0391 26.2853 20.5 25.125 20.5C23.9647 20.5 22.8519 20.0391 22.0314 19.2186C21.2109 18.3981 20.75 17.2853 20.75 16.125C20.75 14.9647 21.2109 13.8519 22.0314 13.0314C22.8519 12.2109 23.9647 11.75 25.125 11.75C26.2853 11.75 27.3981 12.2109 28.2186 13.0314C29.0391 13.8519 29.5 14.9647 29.5 16.125Z" fill="url(#paint7_radial_42_1091)"/>
<path d="M25.75 29.25C26.413 29.25 27.0489 28.9866 27.5178 28.5178C27.9866 28.0489 28.25 27.413 28.25 26.75C28.25 26.087 27.9866 25.4511 27.5178 24.9822C27.0489 24.5134 26.413 24.25 25.75 24.25C25.087 24.25 24.4511 24.5134 23.9822 24.9822C23.5134 25.4511 23.25 26.087 23.25 26.75C23.25 27.413 23.5134 28.0489 23.9822 28.5178C24.4511 28.9866 25.087 29.25 25.75 29.25Z" fill="url(#paint8_radial_42_1091)"/>
<path d="M25.75 29.25C26.413 29.25 27.0489 28.9866 27.5178 28.5178C27.9866 28.0489 28.25 27.413 28.25 26.75C28.25 26.087 27.9866 25.4511 27.5178 24.9822C27.0489 24.5134 26.413 24.25 25.75 24.25C25.087 24.25 24.4511 24.5134 23.9822 24.9822C23.5134 25.4511 23.25 26.087 23.25 26.75C23.25 27.413 23.5134 28.0489 23.9822 28.5178C24.4511 28.9866 25.087 29.25 25.75 29.25Z" fill="url(#paint9_radial_42_1091)"/>
<path d="M19.5 23.625C19.5 24.4538 19.1708 25.2487 18.5847 25.8347C17.9987 26.4208 17.2038 26.75 16.375 26.75C15.5462 26.75 14.7513 26.4208 14.1653 25.8347C13.5792 25.2487 13.25 24.4538 13.25 23.625C13.25 22.7962 13.5792 22.0013 14.1653 21.4153C14.7513 20.8292 15.5462 20.5 16.375 20.5C17.2038 20.5 17.9987 20.8292 18.5847 21.4153C19.1708 22.0013 19.5 22.7962 19.5 23.625Z" fill="#FF3478"/>
<path d="M19.5 23.625C19.5 24.4538 19.1708 25.2487 18.5847 25.8347C17.9987 26.4208 17.2038 26.75 16.375 26.75C15.5462 26.75 14.7513 26.4208 14.1653 25.8347C13.5792 25.2487 13.25 24.4538 13.25 23.625C13.25 22.7962 13.5792 22.0013 14.1653 21.4153C14.7513 20.8292 15.5462 20.5 16.375 20.5C17.2038 20.5 17.9987 20.8292 18.5847 21.4153C19.1708 22.0013 19.5 22.7962 19.5 23.625Z" fill="url(#paint10_radial_42_1091)"/>
<path d="M19.5 23.625C19.5 24.4538 19.1708 25.2487 18.5847 25.8347C17.9987 26.4208 17.2038 26.75 16.375 26.75C15.5462 26.75 14.7513 26.4208 14.1653 25.8347C13.5792 25.2487 13.25 24.4538 13.25 23.625C13.25 22.7962 13.5792 22.0013 14.1653 21.4153C14.7513 20.8292 15.5462 20.5 16.375 20.5C17.2038 20.5 17.9987 20.8292 18.5847 21.4153C19.1708 22.0013 19.5 22.7962 19.5 23.625Z" fill="url(#paint11_radial_42_1091)"/>
<defs>
<radialGradient id="paint0_radial_42_1091" cx="0" cy="0" r="1" gradientUnits="userSpaceOnUse" gradientTransform="translate(28.6413 17.6875) rotate(128.873) scale(19.6683 17.096)">
<stop stop-color="#FFE657"/>
<stop offset="1" stop-color="#FFC547"/>
</radialGradient>
<linearGradient id="paint1_linear_42_1091" x1="13.25" y1="28.4687" x2="16.2975" y2="23.625" gradientUnits="userSpaceOnUse">
<stop offset="0.231" stop-color="#EA9352"/>
<stop offset="0.787" stop-color="#EA9353" stop-opacity="0"/>
</linearGradient>
<linearGradient id="paint2_linear_42_1091" x1="32" y1="17.1413" x2="30.36" y2="17.1413" gradientUnits="userSpaceOnUse">
<stop offset="0.238" stop-color="#F5C344"/>
<stop offset="0.81" stop-color="#FFD059" stop-opacity="0"/>
</linearGradient>
<radialGradient id="paint3_radial_42_1091" cx="0" cy="0" r="1" gradientUnits="userSpaceOnUse" gradientTransform="translate(21.8437 16.9065) rotate(145.566) scale(43.383 22.8755)">
<stop offset="0.278" stop-color="#FFA060"/>
<stop offset="0.39" stop-color="#FFC48A"/>
<stop offset="0.455" stop-color="#FFC888"/>
<stop offset="0.623" stop-color="#E4AF7C"/>
</radialGradient>
<linearGradient id="paint4_linear_42_1091" x1="3.25" y1="21.75" x2="7.15625" y2="16.4375" gradientUnits="userSpaceOnUse">
<stop stop-color="#E79786"/>
<stop offset="0.783" stop-color="#EA8F85" stop-opacity="0"/>
</linearGradient>
<radialGradient id="paint5_radial_42_1091" cx="0" cy="0" r="1" gradientUnits="userSpaceOnUse" gradientTransform="translate(30.5938 3.5475) rotate(81.0851) scale(4.0331 7.85936)">
<stop stop-color="#FFE498"/>
<stop offset="1" stop-color="#FFE398" stop-opacity="0"/>
</radialGradient>
<radialGradient id="paint6_radial_42_1091" cx="0" cy="0" r="1" gradientUnits="userSpaceOnUse" gradientTransform="translate(27.3123 15.1106) rotate(137.626) scale(6.02779)">
<stop stop-color="#FF8DA2"/>
<stop offset="1" stop-color="#FF2B43"/>
</radialGradient>
<radialGradient id="paint7_radial_42_1091" cx="0" cy="0" r="1" gradientUnits="userSpaceOnUse" gradientTransform="translate(24.4996 19.0163) rotate(101.611) scale(5.82228)">
<stop offset="0.393" stop-color="#F63080"/>
<stop offset="1" stop-color="#F73184" stop-opacity="0"/>
</radialGradient>
<radialGradient id="paint8_radial_42_1091" cx="0" cy="0" r="1" gradientUnits="userSpaceOnUse" gradientTransform="translate(26.9997 26.1717) rotate(137.626) scale(3.44445)">
<stop stop-color="#FF8DA2"/>
<stop offset="1" stop-color="#FF2B43"/>
</radialGradient>
<radialGradient id="paint9_radial_42_1091" cx="0" cy="0" r="1" gradientUnits="userSpaceOnUse" gradientTransform="translate(25.3933 28.4025) rotate(101.611) scale(3.32701)">
<stop offset="0.393" stop-color="#F63080"/>
<stop offset="1" stop-color="#F73184" stop-opacity="0"/>
</radialGradient>
<radialGradient id="paint10_radial_42_1091" cx="0" cy="0" r="1" gradientUnits="userSpaceOnUse" gradientTransform="translate(17.9365 22.8997) rotate(137.626) scale(4.30556)">
<stop stop-color="#FF8DA2"/>
<stop offset="1" stop-color="#FF2B43"/>
</radialGradient>
<radialGradient id="paint11_radial_42_1091" cx="0" cy="0" r="1" gradientUnits="userSpaceOnUse" gradientTransform="translate(15.9289 25.69) rotate(101.611) scale(4.15877)">
<stop offset="0.393" stop-color="#F63080"/>
<stop offset="1" stop-color="#F73184" stop-opacity="0"/>
</radialGradient>
</defs>
</svg>
