<svg width="18" height="19" viewBox="0 0 18 19" fill="none" xmlns="http://www.w3.org/2000/svg">
<path d="M9 0.5C11.4497 0.5 11.7515 0.517751 12.7101 0.553254C13.6509 0.588757 14.3077 0.748521 14.8935 0.97929C15.497 1.21006 15.9941 1.51183 16.4911 2.00888C16.9882 2.50592 17.2899 3.00296 17.5207 3.60651C17.7515 4.19231 17.9112 4.84911 17.9467 5.78994C17.9822 6.74852 18 7.0503 18 9.5C18 11.9497 17.9822 12.2515 17.9467 13.2101C17.9112 14.1509 17.7515 14.8077 17.5207 15.3935C17.2899 15.997 16.9882 16.4941 16.4911 16.9911C15.9941 17.4882 15.497 17.7899 14.8935 18.0207C14.3077 18.2515 13.6509 18.4112 12.7101 18.4467C11.7515 18.4822 11.4497 18.5 9 18.5C6.5503 18.5 6.24852 18.4822 5.28994 18.4467C4.34911 18.4112 3.69231 18.2515 3.10651 18.0207C2.50296 17.7899 2.00592 17.4882 1.50888 16.9911C1.01183 16.4941 0.710059 15.997 0.47929 15.3935C0.248521 14.8077 0.0887574 14.1509 0.0532544 13.2101C0.0177515 12.2515 0 11.9497 0 9.5C0 7.0503 0.0177515 6.74852 0.0532544 5.78994C0.0887574 4.84911 0.248521 4.19231 0.47929 3.60651C0.710059 3.00296 1.01183 2.50592 1.50888 2.00888C2.00592 1.51183 2.50296 1.21006 3.10651 0.97929C3.69231 0.748521 4.34911 0.588757 5.28994 0.553254C6.24852 0.517751 6.5503 0.5 9 0.5ZM9 1.6716C6.44379 1.6716 6.14201 1.68935 5.14793 1.72485C4.22485 1.76035 3.71006 1.93787 3.37278 2.06213C2.50296 2.41716 1.91716 3.00296 1.56213 3.87278C1.43787 4.21006 1.26035 4.72485 1.22485 5.64793C1.18935 6.64201 1.1716 6.94379 1.1716 9.5C1.1716 12.0562 1.18935 12.358 1.22485 13.3521C1.26035 14.2751 1.43787 14.7899 1.56213 15.1272C1.91716 15.997 2.50296 16.5828 3.37278 16.9379C3.71006 17.0621 4.22485 17.2396 5.14793 17.2751C6.14201 17.3107 6.44379 17.3284 9 17.3284C11.5562 17.3284 11.858 17.3107 12.8521 17.2751C13.7751 17.2396 14.2899 17.0621 14.6272 16.9379C15.497 16.5828 16.0828 15.997 16.4379 15.1272C16.5621 14.7899 16.7396 14.2751 16.7751 13.3521C16.8107 12.358 16.8284 12.0562 16.8284 9.5C16.8284 6.94379 16.8107 6.64201 16.7751 5.64793C16.7396 4.72485 16.5621 4.21006 16.4379 3.87278C16.0828 3.00296 15.497 2.41716 14.6272 2.06213C14.2899 1.93787 13.7751 1.76035 12.8521 1.72485C11.858 1.68935 11.5562 1.6716 9 1.6716ZM9 13.1036C10.9882 13.1036 12.6036 11.4882 12.6036 9.5C12.6036 7.51183 10.9882 5.89645 9 5.89645C7.01183 5.89645 5.39645 7.51183 5.39645 9.5C5.39645 11.4882 7.01183 13.1036 9 13.1036ZM9 4.88462C11.5562 4.88462 13.6154 6.94379 13.6154 9.5C13.6154 12.0562 11.5562 14.1154 9 14.1154C6.44379 14.1154 4.38462 12.0562 4.38462 9.5C4.38462 6.94379 6.44379 4.88462 9 4.88462ZM14.8935 4.7071C14.8935 5.31065 14.3965 5.77219 13.7929 5.77219C13.1893 5.77219 12.7278 5.31065 12.7278 4.7071C12.7278 4.10355 13.1893 3.60651 13.7929 3.60651C14.3965 3.60651 14.8935 4.10355 14.8935 4.7071Z" fill="black"/>
</svg>
