<svg width="20" height="21" viewBox="0 0 20 21" fill="none" xmlns="http://www.w3.org/2000/svg">
<path d="M9.99996 2.16663C5.40496 2.16663 1.66663 5.90496 1.66663 10.5C1.66663 15.095 5.40496 18.8333 9.99996 18.8333C14.595 18.8333 18.3333 15.095 18.3333 10.5C18.3333 5.90496 14.595 2.16663 9.99996 2.16663ZM3.33329 10.5C3.33329 9.75079 3.46329 9.03163 3.69246 8.35913L4.99996 9.66663L6.66663 11.3333V13L8.33329 14.6666L9.16663 15.5V17.1091C5.88413 16.6966 3.33329 13.8933 3.33329 10.5ZM15.275 14.5608C14.7308 14.1225 13.9058 13.8333 13.3333 13.8333V13C13.3333 12.5579 13.1577 12.134 12.8451 11.8214C12.5326 11.5089 12.1087 11.3333 11.6666 11.3333H8.33329V8.83329C8.77532 8.83329 9.19924 8.6577 9.5118 8.34514C9.82436 8.03258 9.99996 7.60865 9.99996 7.16663V6.33329H10.8333C11.2753 6.33329 11.6992 6.1577 12.0118 5.84514C12.3244 5.53258 12.5 5.10865 12.5 4.66663V4.32413C14.94 5.31496 16.6666 7.70829 16.6666 10.5C16.6663 11.9705 16.1767 13.3991 15.275 14.5608Z" fill="black"/>
</svg>
