<svg width="18" height="19" viewBox="0 0 18 19" fill="none" xmlns="http://www.w3.org/2000/svg">
<path d="M7.45834 10.5417V6.375C7.45834 5.80208 6.98959 5.33333 6.41667 5.33333H2.25001V3.25H6.41667C6.98959 3.25 7.45834 2.78125 7.45834 2.20833C7.45834 1.63542 6.98959 1.16667 6.41667 1.16667H4.85417C4.85417 0.59375 4.38542 0.125 3.81251 0.125C3.23959 0.125 2.77084 0.59375 2.77084 1.16667H1.20834C0.635422 1.16667 0.166672 1.63542 0.166672 2.20833V6.375C0.166672 6.94792 0.635422 7.41667 1.20834 7.41667H5.375V9.5H1.20834C0.635422 9.5 0.166672 9.96875 0.166672 10.5417C0.166672 11.1146 0.635422 11.5833 1.20834 11.5833H2.77084C2.77084 12.1562 3.23959 12.625 3.81251 12.625C4.38542 12.625 4.85417 12.1562 4.85417 11.5833H6.41667C6.98959 11.5833 7.45834 11.1146 7.45834 10.5417ZM15.6667 10.7708L10.5104 15.9271L8.30209 13.7187C8.10732 13.524 7.84316 13.4146 7.56771 13.4146C7.29227 13.4146 7.02811 13.524 6.83334 13.7187C6.63857 13.9135 6.52915 14.1777 6.52915 14.4531C6.52915 14.7286 6.63857 14.9927 6.83334 15.1875L9.78125 18.1354C10.1875 18.5417 10.8438 18.5417 11.25 18.1354L17.1458 12.2396C17.2424 12.1432 17.319 12.0287 17.3713 11.9027C17.4236 11.7767 17.4505 11.6416 17.4505 11.5052C17.4505 11.3688 17.4236 11.2337 17.3713 11.1077C17.319 10.9817 17.2424 10.8672 17.1458 10.7708C16.7292 10.3646 16.0729 10.3646 15.6667 10.7708Z" fill="black"/>
</svg>
