<svg width="20" height="21" viewBox="0 0 20 21" fill="none" xmlns="http://www.w3.org/2000/svg">
<path fill-rule="evenodd" clip-rule="evenodd" d="M1.16931 10.5C1.16931 8.15794 2.09968 5.91183 3.75575 4.25575C5.41183 2.59968 7.65794 1.66931 9.99998 1.66931C12.342 1.66931 14.5881 2.59968 16.2442 4.25575C17.9003 5.91183 18.8306 8.15794 18.8306 10.5C18.8306 12.842 17.9003 15.0881 16.2442 16.7442C14.5881 18.4003 12.342 19.3306 9.99998 19.3306C7.65794 19.3306 5.41183 18.4003 3.75575 16.7442C2.09968 15.0881 1.16931 12.842 1.16931 10.5ZM9.99998 2.93598C8.53387 2.93603 7.09937 3.36216 5.87099 4.16252C4.64262 4.96288 3.67331 6.10298 3.081 7.44412C2.48869 8.78526 2.29891 10.2696 2.53473 11.7166C2.77055 13.1637 3.42182 14.511 4.40931 15.5946C5.00872 14.6556 5.83522 13.8827 6.8124 13.3477C7.78958 12.8126 8.88589 12.5325 9.99998 12.5333C11.1141 12.5325 12.2104 12.8126 13.1876 13.3477C14.1647 13.8827 14.9912 14.6556 15.5906 15.5946C16.5781 14.511 17.2294 13.1637 17.4652 11.7166C17.7011 10.2696 17.5113 8.78526 16.919 7.44412C16.3266 6.10298 15.3573 4.96288 14.129 4.16252C12.9006 3.36216 11.4661 2.93603 9.99998 2.93598ZM14.6426 16.472C14.1711 15.6585 13.4939 14.9834 12.679 14.5144C11.8641 14.0454 10.9402 13.799 9.99998 13.8C9.05975 13.799 8.13582 14.0454 7.32092 14.5144C6.50602 14.9834 5.82883 15.6585 5.35731 16.472C6.68376 17.506 8.3181 18.0664 9.99998 18.064C11.7493 18.064 13.36 17.4693 14.6426 16.472ZM6.86665 9.17331C6.86665 8.3423 7.19676 7.54532 7.78438 6.95771C8.37199 6.3701 9.16897 6.03998 9.99998 6.03998C10.831 6.03998 11.628 6.3701 12.2156 6.95771C12.8032 7.54532 13.1333 8.3423 13.1333 9.17331C13.1333 10.0043 12.8032 10.8013 12.2156 11.3889C11.628 11.9765 10.831 12.3066 9.99998 12.3066C9.16897 12.3066 8.37199 11.9765 7.78438 11.3889C7.19676 10.8013 6.86665 10.0043 6.86665 9.17331ZM9.99998 7.30665C9.75484 7.30665 9.51211 7.35493 9.28564 7.44874C9.05916 7.54255 8.85338 7.68004 8.68005 7.85338C8.50671 8.02672 8.36921 8.23249 8.2754 8.45897C8.18159 8.68544 8.13331 8.92818 8.13331 9.17331C8.13331 9.41845 8.18159 9.66118 8.2754 9.88765C8.36921 10.1141 8.50671 10.3199 8.68005 10.4932C8.85338 10.6666 9.05916 10.8041 9.28564 10.8979C9.51211 10.9917 9.75484 11.04 9.99998 11.04C10.495 11.04 10.9698 10.8433 11.3199 10.4932C11.67 10.1432 11.8666 9.66838 11.8666 9.17331C11.8666 8.67824 11.67 8.20345 11.3199 7.85338C10.9698 7.50331 10.495 7.30665 9.99998 7.30665Z" fill="black"/>
</svg>
