<svg width="20" height="21" viewBox="0 0 20 21" fill="none" xmlns="http://www.w3.org/2000/svg">
<path d="M2.29163 10.5C2.29163 12.5443 3.10375 14.505 4.54934 15.9506C5.99494 17.3962 7.95558 18.2083 9.99996 18.2083V2.79163C7.95558 2.79163 5.99494 3.60375 4.54934 5.04934C3.10375 6.49494 2.29163 8.45558 2.29163 10.5Z" fill="black"/>
<path d="M9.99996 18.2083C12.0443 18.2083 14.005 17.3962 15.4506 15.9506C16.8962 14.505 17.7083 12.5443 17.7083 10.5C17.7083 8.45558 16.8962 6.49494 15.4506 5.04934C14.005 3.60375 12.0443 2.79163 9.99996 2.79163M9.99996 18.2083C7.95558 18.2083 5.99494 17.3962 4.54934 15.9506C3.10375 14.505 2.29163 12.5443 2.29163 10.5C2.29163 8.45558 3.10375 6.49494 4.54934 5.04934C5.99494 3.60375 7.95558 2.79163 9.99996 2.79163M9.99996 18.2083V2.79163" stroke="black" stroke-width="1.25" stroke-linecap="round" stroke-linejoin="round"/>
</svg>
