<svg width="19" height="20" viewBox="0 0 19 20" fill="none" xmlns="http://www.w3.org/2000/svg">
<path fill-rule="evenodd" clip-rule="evenodd" d="M5.99477 4.82706C4.91144 5.91039 4.65102 7.13227 4.89894 8.35206C5.1531 9.60102 5.95102 10.8708 7.0281 11.9448C8.12498 13.0385 9.3854 13.8448 10.626 14.101C11.8323 14.35 13.0531 14.0885 14.1729 12.975C14.175 12.9708 14.2239 12.8844 14.1354 12.6208C14.0416 12.3406 13.8271 11.9896 13.4927 11.6573C13.1594 11.3239 12.8062 11.1094 12.526 11.0156C12.2552 10.926 12.1687 10.9781 12.1666 10.9781C11.6771 11.4677 11.4031 11.9052 11.3646 12.2927C11.3562 12.374 11.3289 12.4522 11.2847 12.5209C11.2406 12.5897 11.1808 12.6471 11.1104 12.6885C10.776 12.8864 10.3125 12.9635 9.72706 12.7677C9.16352 12.5781 8.48852 12.1375 7.66456 11.3156C6.83956 10.4927 6.39685 9.82081 6.20623 9.25831C6.00935 8.67393 6.08748 8.21039 6.2854 7.87602C6.32693 7.80576 6.38439 7.74625 6.45315 7.70229C6.5219 7.65832 6.60003 7.63112 6.68123 7.62289C7.07081 7.58435 7.51248 7.31039 8.00206 6.82394C8.00206 6.81873 8.05206 6.73331 7.96352 6.46977C7.86977 6.18956 7.65519 5.83852 7.32081 5.50623C6.98748 5.17289 6.63435 4.95831 6.35415 4.86456C6.08331 4.77498 5.99685 4.82706 5.99477 4.82706ZM6.68227 3.87602C7.14685 4.03019 7.63331 4.34477 8.05727 4.76769C8.48019 5.1906 8.79685 5.67498 8.95206 6.13852C9.09581 6.56873 9.14685 7.1531 8.74269 7.55519C8.29165 8.00623 7.74998 8.4281 7.13435 8.59477C7.13413 8.70751 7.15424 8.81937 7.19373 8.92498C7.31144 9.27289 7.63123 9.81144 8.39998 10.5771C9.16769 11.3437 9.70831 11.6625 10.0583 11.7802C10.2031 11.8281 10.3114 11.8427 10.3927 11.8396C10.5604 11.225 10.9844 10.6854 11.4354 10.2354C11.8396 9.83331 12.4229 9.88435 12.8541 10.0271C13.3177 10.1812 13.8041 10.4969 14.2281 10.9198C14.6521 11.3427 14.9677 11.826 15.1239 12.2896C15.2666 12.7198 15.3187 13.3041 14.9135 13.7073C13.5375 15.0791 11.9562 15.4396 10.4156 15.1208C8.90623 14.8094 7.4729 13.8594 6.29269 12.6833C5.1229 11.5166 4.18644 10.0719 3.8781 8.55935C3.56456 7.01769 3.91248 5.43123 5.26352 4.08435C5.66769 3.68227 6.25206 3.73331 6.68227 3.87602Z" fill="black"/>
<path fill-rule="evenodd" clip-rule="evenodd" d="M9.50001 1.352C8.00603 1.3518 6.54077 1.76235 5.2644 2.53878C3.98803 3.3152 2.9497 4.42761 2.26293 5.75437C1.57616 7.08113 1.26739 8.57118 1.37038 10.0616C1.47337 11.552 1.98415 12.9854 2.84688 14.2051C2.8985 14.278 2.93049 14.363 2.93979 14.4518C2.9491 14.5407 2.9354 14.6304 2.90001 14.7124L1.56251 17.8062L5.37188 16.701C5.5004 16.6635 5.63842 16.6769 5.7573 16.7385C6.85327 17.3048 8.06355 17.6149 9.29683 17.6453C10.5301 17.6758 11.7542 17.4258 12.8768 16.9142C13.9994 16.4026 14.9911 15.6428 15.7773 14.692C16.5634 13.7413 17.1234 12.6244 17.415 11.4257C17.7065 10.227 17.7221 8.97773 17.4605 7.77213C17.1989 6.56652 16.667 5.43606 15.9048 4.466C15.1426 3.49594 14.1701 2.71162 13.0606 2.17219C11.9512 1.63277 10.7337 1.35232 9.50001 1.352ZM0.310424 9.49991C0.31079 7.50421 0.960821 5.56287 2.16226 3.96933C3.3637 2.37579 5.05125 1.21668 6.96981 0.6672C8.88838 0.117718 10.9337 0.207735 12.7965 0.923645C14.6594 1.63956 16.2386 2.94244 17.2954 4.63537C18.3522 6.3283 18.8292 8.31924 18.6542 10.3073C18.4792 12.2953 17.6619 14.1723 16.3256 15.6546C14.9894 17.1369 13.2069 18.144 11.2476 18.5235C9.28831 18.903 7.25873 18.6344 5.46563 17.7582L0.790632 19.1145C0.695835 19.1419 0.595212 19.1418 0.500478 19.1142C0.405745 19.0866 0.320799 19.0326 0.255531 18.9586C0.190263 18.8846 0.147358 18.7936 0.131811 18.6962C0.116264 18.5987 0.128716 18.4989 0.167716 18.4082L1.83022 14.5624C0.837529 13.0607 0.308953 11.3 0.310424 9.49991Z" fill="black"/>
</svg>
